<svg width="24" height="24" viewBox="0 0 24 24" fill="none" xmlns="http://www.w3.org/2000/svg">
<path fill-rule="evenodd" clip-rule="evenodd" d="M3.75 5C3.75 3.48122 4.98122 2.25 6.5 2.25H17.5C19.0188 2.25 20.25 3.48122 20.25 5V19C20.25 20.5188 19.0188 21.75 17.5 21.75H6.5C4.98122 21.75 3.75 20.5188 3.75 19V17.75H2.5C2.08579 17.75 1.75 17.4142 1.75 17C1.75 16.5858 2.08579 16.25 2.5 16.25H3.75V12.75H2.5C2.08579 12.75 1.75 12.4142 1.75 12C1.75 11.5858 2.08579 11.25 2.5 11.25H3.75V7.75H2.5C2.08579 7.75 1.75 7.41421 1.75 7C1.75 6.58579 2.08579 6.25 2.5 6.25H3.75V5ZM8.75 20.25H6.5C5.80964 20.25 5.25 19.6904 5.25 19V17.75H6.5C6.91421 17.75 7.25 17.4142 7.25 17C7.25 16.5858 6.91421 16.25 6.5 16.25H5.25V12.75H6.5C6.91421 12.75 7.25 12.4142 7.25 12C7.25 11.5858 6.91421 11.25 6.5 11.25H5.25V7.75H6.5C6.91421 7.75 7.25 7.41421 7.25 7C7.25 6.58579 6.91421 6.25 6.5 6.25H5.25V5C5.25 4.30964 5.80964 3.75 6.5 3.75H8.75V20.25Z" fill="#212121"/>
</svg>
