<svg width="24" height="24" viewBox="0 0 24 24" fill="none" xmlns="http://www.w3.org/2000/svg">
<path fill-rule="evenodd" clip-rule="evenodd" d="M1.75 10.5C1.75 6.21979 5.21979 2.75 9.5 2.75H14.5C18.7802 2.75 22.25 6.21979 22.25 10.5C22.25 14.7802 18.7802 18.25 14.5 18.25H10.5299L7.85493 20.7578C7.0566 21.5062 5.75 20.9402 5.75 19.8459V17.2838C3.36602 15.9632 1.75 13.421 1.75 10.5ZM12 12C12.8284 12 13.5 11.3284 13.5 10.5C13.5 9.67157 12.8284 9 12 9C11.1716 9 10.5 9.67156 10.5 10.5C10.5 11.3284 11.1716 12 12 12ZM9.5 10.5C9.5 11.3284 8.82843 12 8 12C7.17157 12 6.5 11.3284 6.5 10.5C6.5 9.67156 7.17157 9 8 9C8.82843 9 9.5 9.67157 9.5 10.5ZM16 12C16.8284 12 17.5 11.3284 17.5 10.5C17.5 9.67157 16.8284 9 16 9C15.1716 9 14.5 9.67156 14.5 10.5C14.5 11.3284 15.1716 12 16 12Z" fill="#212121"/>
</svg>
