<svg width="24" height="24" viewBox="0 0 24 24" fill="none" xmlns="http://www.w3.org/2000/svg">
<path d="M13.5303 3.46969C13.3158 3.25519 12.9932 3.19103 12.713 3.30711C12.4327 3.4232 12.25 3.69668 12.25 4.00002V7.71404C10.4943 7.71491 8.22552 8.23414 6.28148 9.78937C3.98581 11.6259 2.25 14.8202 2.25 20C2.25 20.3371 2.47492 20.6328 2.7998 20.7228C3.12468 20.8128 3.46968 20.675 3.64312 20.3859C4.48557 18.9818 7.39955 16.1419 12.25 16.2177V20C12.25 20.3034 12.4327 20.5768 12.713 20.6929C12.9932 20.809 13.3158 20.7449 13.5303 20.5304L21.5303 12.5304C21.8232 12.2375 21.8232 11.7626 21.5303 11.4697L13.5303 3.46969Z" fill="#212121"/>
</svg>
