<svg width="24" height="24" viewBox="0 0 24 24" fill="none" xmlns="http://www.w3.org/2000/svg">
<path fill-rule="evenodd" clip-rule="evenodd" d="M15 8.5C16.3979 8.5 17.5725 7.54392 17.9055 6.25H20.5C20.9142 6.25 21.25 5.91421 21.25 5.5C21.25 5.08579 20.9142 4.75 20.5 4.75H17.9055C17.5725 3.45608 16.3979 2.5 15 2.5C13.6021 2.5 12.4275 3.45608 12.0945 4.75H3.5C3.08579 4.75 2.75 5.08579 2.75 5.5C2.75 5.91421 3.08579 6.25 3.5 6.25H12.0945C12.4275 7.54392 13.6021 8.5 15 8.5ZM15 7C15.8284 7 16.5 6.32843 16.5 5.5C16.5 4.67157 15.8284 4 15 4C14.1716 4 13.5 4.67157 13.5 5.5C13.5 6.32843 14.1716 7 15 7Z" fill="#212121"/>
<path d="M2.75 12C2.75 11.5858 3.08579 11.25 3.5 11.25H20.5C20.9142 11.25 21.25 11.5858 21.25 12C21.25 12.4142 20.9142 12.75 20.5 12.75H3.5C3.08579 12.75 2.75 12.4142 2.75 12Z" fill="#212121"/>
<path fill-rule="evenodd" clip-rule="evenodd" d="M6.09451 17.75C6.42755 16.4561 7.60212 15.5 9 15.5C10.3979 15.5 11.5725 16.4561 11.9055 17.75L20.5 17.75C20.9142 17.75 21.25 18.0858 21.25 18.5C21.25 18.9142 20.9142 19.25 20.5 19.25L11.9055 19.25C11.5725 20.5439 10.3979 21.5 9 21.5C7.60212 21.5 6.42755 20.5439 6.09451 19.25H3.5C3.08579 19.25 2.75 18.9142 2.75 18.5C2.75 18.0858 3.08579 17.75 3.5 17.75H6.09451ZM7.5 18.5C7.5 17.6716 8.17157 17 9 17C9.82843 17 10.5 17.6716 10.5 18.5C10.5 19.3284 9.82843 20 9 20C8.17157 20 7.5 19.3284 7.5 18.5Z" fill="#212121"/>
</svg>
