<svg width="24" height="24" viewBox="0 0 24 24" fill="none" xmlns="http://www.w3.org/2000/svg">
<path d="M8 12C8.82843 12 9.5 11.3284 9.5 10.5C9.5 9.67157 8.82843 9 8 9C7.17157 9 6.5 9.67156 6.5 10.5C6.5 11.3284 7.17157 12 8 12Z" fill="#212121"/>
<path d="M12 12C12.8284 12 13.5 11.3284 13.5 10.5C13.5 9.67157 12.8284 9 12 9C11.1716 9 10.5 9.67156 10.5 10.5C10.5 11.3284 11.1716 12 12 12Z" fill="#212121"/>
<path d="M17.5 10.5C17.5 11.3284 16.8284 12 16 12C15.1716 12 14.5 11.3284 14.5 10.5C14.5 9.67156 15.1716 9 16 9C16.8284 9 17.5 9.67157 17.5 10.5Z" fill="#212121"/>
<path fill-rule="evenodd" clip-rule="evenodd" d="M9.5 2.75C5.21979 2.75 1.75 6.21979 1.75 10.5C1.75 13.421 3.36602 15.9632 5.75 17.2838V19.8459C5.75 20.9402 7.0566 21.5062 7.85493 20.7578L10.5299 18.25H14.5C18.7802 18.25 22.25 14.7802 22.25 10.5C22.25 6.21979 18.7802 2.75 14.5 2.75H9.5ZM3.25 10.5C3.25 7.04822 6.04822 4.25 9.5 4.25H14.5C17.9518 4.25 20.75 7.04822 20.75 10.5C20.75 13.9518 17.9518 16.75 14.5 16.75H10.2333C10.0428 16.75 9.85939 16.8225 9.72038 16.9528L7.25 19.2688V16.8264C7.25 16.5368 7.08334 16.2732 6.82182 16.1489C4.70852 15.145 3.25 12.9921 3.25 10.5Z" fill="#212121"/>
</svg>
