<svg width="24" height="24" viewBox="0 0 24 24" fill="none" xmlns="http://www.w3.org/2000/svg">
<path d="M14.75 4.72317C14.75 3.37947 13.2984 2.53709 12.1318 3.20374L6.85847 6.21705C6.8207 6.23863 6.77794 6.24999 6.73444 6.24999H3C2.0335 6.24999 1.25 7.03349 1.25 7.99999V15C1.25 15.9665 2.0335 16.75 3 16.75H7.15988C7.21501 16.75 7.2686 16.7682 7.31231 16.8018L11.933 20.3562C13.0838 21.2415 14.75 20.4211 14.75 18.9691V4.72317Z" fill="#212121"/>
<path d="M16.4697 8.96966C16.7626 8.67676 17.2374 8.67676 17.5303 8.96966L19.5 10.9393L21.4697 8.96966C21.7626 8.67676 22.2374 8.67676 22.5303 8.96966C22.8232 9.26255 22.8232 9.73742 22.5303 10.0303L20.5607 12L22.5303 13.9697C22.8232 14.2625 22.8232 14.7374 22.5303 15.0303C22.2374 15.3232 21.7626 15.3232 21.4697 15.0303L19.5 13.0606L17.5303 15.0303C17.2374 15.3232 16.7626 15.3232 16.4697 15.0303C16.1768 14.7374 16.1768 14.2625 16.4697 13.9697L18.4393 12L16.4697 10.0303C16.1768 9.73742 16.1768 9.26255 16.4697 8.96966Z" fill="#212121"/>
</svg>
