<svg width="24" height="24" viewBox="0 0 24 24" fill="none" xmlns="http://www.w3.org/2000/svg">
<path fill-rule="evenodd" clip-rule="evenodd" d="M22.7906 14.1468L19.5534 13.5064C19.6492 13.0218 19.7 12.5185 19.7 12C19.7 11.4815 19.6492 10.9782 19.5534 10.4936L22.7906 9.85322C22.928 10.5475 23 11.2654 23 12C23 12.7346 22.928 13.4525 22.7906 14.1468ZM21.1472 5.88823L18.405 7.72408C17.8419 6.88296 17.117 6.15809 16.2759 5.59498L18.1118 2.85278C19.3113 3.65587 20.3441 4.68866 21.1472 5.88823ZM14.1468 1.20937L13.5064 4.44663C13.0218 4.35078 12.5185 4.3 12 4.3C11.4815 4.3 10.9782 4.35078 10.4936 4.44663L9.85322 1.20937C10.5475 1.07202 11.2654 1 12 1C12.7346 1 13.4525 1.07202 14.1468 1.20937ZM5.88823 2.85278L7.72408 5.59498C6.88296 6.15809 6.15809 6.88296 5.59498 7.72408L2.85278 5.88823C3.65587 4.68866 4.68866 3.65587 5.88823 2.85278ZM1.20937 9.85322C1.07202 10.5475 1 11.2654 1 12C1 12.7346 1.07202 13.4525 1.20937 14.1468L4.44663 13.5064C4.35078 13.0218 4.3 12.5185 4.3 12C4.3 11.4815 4.35078 10.9782 4.44663 10.4936L1.20937 9.85322ZM2.85278 18.1118L5.59498 16.2759C6.15809 17.117 6.88296 17.8419 7.72408 18.405L5.88823 21.1472C4.68866 20.3441 3.65587 19.3113 2.85278 18.1118ZM9.85322 22.7906L10.4936 19.5534C10.9782 19.6492 11.4815 19.7 12 19.7C12.5185 19.7 13.0218 19.6492 13.5064 19.5534L14.1468 22.7906C13.4525 22.928 12.7346 23 12 23C11.2654 23 10.5475 22.928 9.85322 22.7906ZM18.1118 21.1472L16.2759 18.405C17.117 17.8419 17.8419 17.117 18.405 16.2759L21.1472 18.1118C20.3441 19.3113 19.3113 20.3441 18.1118 21.1472Z" fill="#FFCD4B"/>
</svg>
