<svg width="24" height="24" viewBox="0 0 24 24" fill="none" xmlns="http://www.w3.org/2000/svg">
<path d="M12.75 9C12.75 8.58579 12.4142 8.25 12 8.25C11.5858 8.25 11.25 8.58579 11.25 9V14.1708L9.53413 12.43C9.24335 12.135 8.76849 12.1316 8.4735 12.4224C8.17851 12.7132 8.17509 13.188 8.46587 13.483L11.4659 16.5265C11.6068 16.6695 11.7992 16.75 12 16.75C12.2008 16.75 12.3932 16.6695 12.5341 16.5265L15.5341 13.483C15.8249 13.188 15.8215 12.7132 15.5265 12.4224C15.2315 12.1316 14.7566 12.135 14.4659 12.43L12.75 14.1708V9Z" fill="#212121"/>
<path fill-rule="evenodd" clip-rule="evenodd" d="M2.25 4C2.25 3.58579 2.58579 3.25 3 3.25H21C21.4142 3.25 21.75 3.58579 21.75 4C21.75 4.41421 21.4142 4.75 21 4.75H20.25V18C20.25 19.5188 19.0188 20.75 17.5 20.75H6.5C4.98122 20.75 3.75 19.5188 3.75 18V4.75H3C2.58579 4.75 2.25 4.41421 2.25 4ZM5.25 18V4.75H18.75V18C18.75 18.6904 18.1904 19.25 17.5 19.25H6.5C5.80964 19.25 5.25 18.6904 5.25 18Z" fill="#212121"/>
</svg>
