<svg width="24" height="24" viewBox="0 0 24 24" fill="none" xmlns="http://www.w3.org/2000/svg">
<path d="M9.75 12C9.75 10.7574 10.7574 9.75 12 9.75C13.2426 9.75 14.25 10.7574 14.25 12C14.25 13.2426 13.2426 14.25 12 14.25C10.7574 14.25 9.75 13.2426 9.75 12Z" fill="#212121"/>
<path fill-rule="evenodd" clip-rule="evenodd" d="M8.90178 3.26483C9.01945 2.39716 9.76029 1.75 10.6359 1.75H13.364C14.2397 1.75 14.9805 2.39716 15.0982 3.26483L15.3349 5.0104C15.6912 5.18239 16.0322 5.381 16.3553 5.60362L17.9714 4.93929C18.7819 4.60613 19.7119 4.92515 20.148 5.68469L21.5166 8.0684C21.9518 8.82627 21.7619 9.78999 21.0728 10.3268L19.689 11.4048C19.7039 11.6013 19.7114 11.7998 19.7114 12C19.7114 12.2001 19.7039 12.3986 19.689 12.5952L21.0728 13.6732C21.7619 14.21 21.9518 15.1737 21.5166 15.9316L20.148 18.3153C19.7119 19.0748 18.7819 19.3939 17.9714 19.0607L16.3553 18.3964C16.0322 18.619 15.6912 18.8176 15.3349 18.9896L15.0982 20.7352C14.9805 21.6028 14.2397 22.25 13.364 22.25H10.6359C9.76029 22.25 9.01945 21.6028 8.90178 20.7352L8.66506 18.9896C8.30876 18.8176 7.96777 18.619 7.64463 18.3964L6.02852 19.0607C5.21805 19.3939 4.28807 19.0749 3.85196 18.3153L2.48331 15.9316C2.04816 15.1737 2.23805 14.21 2.92713 13.6732L4.31096 12.5952C4.29609 12.3987 4.28852 12.2002 4.28852 12C4.28852 11.7999 4.29609 11.6014 4.31096 11.4048L2.92713 10.3268C2.23805 9.79 2.04816 8.82628 2.48331 8.06841L3.85196 5.68471C4.28807 4.92516 5.21806 4.60615 6.02852 4.9393L7.64462 5.60363C7.96776 5.38101 8.30875 5.18239 8.66506 5.0104L8.90178 3.26483ZM12 8.25C9.92893 8.25 8.25 9.92893 8.25 12C8.25 14.0711 9.92893 15.75 12 15.75C14.0711 15.75 15.75 14.0711 15.75 12C15.75 9.92893 14.0711 8.25 12 8.25Z" fill="#212121"/>
</svg>
