<svg width="24" height="24" viewBox="0 0 24 24" fill="none" xmlns="http://www.w3.org/2000/svg">
<path d="M6 1.25C6.41421 1.25 6.75 1.58579 6.75 2V5.25H16C17.5188 5.25 18.75 6.48122 18.75 8V17.25H22C22.4142 17.25 22.75 17.5858 22.75 18C22.75 18.4142 22.4142 18.75 22 18.75H18.75V22C18.75 22.4142 18.4142 22.75 18 22.75C17.5858 22.75 17.25 22.4142 17.25 22V8C17.25 7.30964 16.6904 6.75 16 6.75H2C1.58579 6.75 1.25 6.41421 1.25 6C1.25 5.58579 1.58579 5.25 2 5.25H5.25V2C5.25 1.58579 5.58579 1.25 6 1.25Z" fill="#212121"/>
<path d="M15 17.25L8 17.25C7.30964 17.25 6.75 16.6904 6.75 16L6.75 9H5.25L5.25 16C5.25 17.5188 6.48122 18.75 8 18.75H15V17.25Z" fill="#212121"/>
</svg>
