<svg width="24" height="24" viewBox="0 0 24 24" fill="none" xmlns="http://www.w3.org/2000/svg">
<path d="M9.52515 1.70406C9.93936 1.70406 10.2751 2.03985 10.2751 2.45406V4.57538C10.2751 4.9896 9.93936 5.32538 9.52515 5.32538C9.11093 5.32538 8.77515 4.9896 8.77515 4.57538V2.45406C8.77515 2.03985 9.11093 1.70406 9.52515 1.70406Z" fill="#212121"/>
<path d="M19.2479 4.75215C17.5882 3.09242 14.8972 3.09242 13.2375 4.75215L10.7626 7.22703C10.4697 7.51992 10.4697 7.99479 10.7626 8.28769C11.0555 8.58058 11.5304 8.58058 11.8233 8.28769L14.2981 5.81281C15.3721 4.73887 17.1133 4.73887 18.1872 5.81281C19.2612 6.88675 19.2612 8.62796 18.1872 9.7019L15.7123 12.1768C15.4195 12.4697 15.4195 12.9445 15.7123 13.2374C16.0052 13.5303 16.4801 13.5303 16.773 13.2374L19.2479 10.7626C20.9076 9.10283 20.9076 6.41188 19.2479 4.75215Z" fill="#212121"/>
<path d="M18.5408 19.6014C18.8337 19.8943 19.3085 19.8943 19.6014 19.6014C19.8943 19.3085 19.8943 18.8336 19.6014 18.5408L18.1872 17.1265C17.8943 16.8336 17.4195 16.8336 17.1266 17.1265C16.8337 17.4194 16.8337 17.8943 17.1266 18.1872L18.5408 19.6014Z" fill="#212121"/>
<path d="M10.7626 19.2478C9.10286 20.9076 6.41191 20.9076 4.75218 19.2478C3.09245 17.5881 3.09245 14.8972 4.75218 13.2374L7.22706 10.7626C7.51995 10.4697 7.99482 10.4697 8.28772 10.7626C8.58061 11.0555 8.58061 11.5303 8.28772 11.8232L5.81284 14.2981C4.7389 15.372 4.7389 17.1132 5.81284 18.1872C6.88678 19.2611 8.62799 19.2611 9.70193 18.1872L12.1768 15.7123C12.4697 15.4194 12.9446 15.4194 13.2375 15.7123C13.5304 16.0052 13.5304 16.4801 13.2375 16.773L10.7626 19.2478Z" fill="#212121"/>
<path d="M5.45929 4.39862C5.16639 4.10572 4.69152 4.10572 4.39862 4.39862C4.10573 4.69151 4.10573 5.16638 4.39862 5.45928L5.81284 6.87349C6.10573 7.16638 6.58061 7.16638 6.8735 6.87349C7.16639 6.5806 7.16639 6.10572 6.8735 5.81283L5.45929 4.39862Z" fill="#212121"/>
<path d="M13.7249 21.5459C13.7249 21.9602 14.0607 22.2959 14.4749 22.2959C14.8891 22.2959 15.2249 21.9602 15.2249 21.5459V19.4246C15.2249 19.0104 14.8891 18.6746 14.4749 18.6746C14.0607 18.6746 13.7249 19.0104 13.7249 19.4246V21.5459Z" fill="#212121"/>
<path d="M5.32543 9.52513C5.32543 9.93934 4.98964 10.2751 4.57543 10.2751H2.45411C2.0399 10.2751 1.70411 9.93934 1.70411 9.52513C1.70411 9.11091 2.0399 8.77513 2.45411 8.77513H4.57543C4.98964 8.77513 5.32543 9.11091 5.32543 9.52513Z" fill="#212121"/>
<path d="M19.4246 13.7249C19.0104 13.7249 18.6746 14.0607 18.6746 14.4749C18.6746 14.8891 19.0104 15.2249 19.4246 15.2249H21.5459C21.9602 15.2249 22.2959 14.8891 22.296 14.4749C22.296 14.0607 21.9602 13.7249 21.546 13.7249H19.4246Z" fill="#212121"/>
</svg>
