<svg width="24" height="24" viewBox="0 0 24 24" fill="none" xmlns="http://www.w3.org/2000/svg">
<path fill-rule="evenodd" clip-rule="evenodd" d="M5 2.25C3.48122 2.25 2.25 3.48122 2.25 5V18.5551L14.5683 9.88664C14.8665 9.6768 15.2724 9.71183 15.5303 9.96967L21.75 16.1894V5C21.75 3.48122 20.5188 2.25 19 2.25H5ZM10 9C10 9.82843 9.32843 10.5 8.5 10.5C7.67157 10.5 7 9.82843 7 9C7 8.17157 7.67157 7.5 8.5 7.5C9.32843 7.5 10 8.17157 10 9Z" fill="#212121"/>
<path d="M21.75 18.3107L14.9157 11.4764L2.52341 20.1969C2.96846 21.1161 3.9102 21.75 5 21.75H19C20.5188 21.75 21.75 20.5188 21.75 19V18.3107Z" fill="#212121"/>
</svg>
