<svg width="24" height="24" viewBox="0 0 24 24" fill="none" xmlns="http://www.w3.org/2000/svg">
<path fill-rule="evenodd" clip-rule="evenodd" d="M12.1318 3.20374C13.2984 2.53709 14.75 3.37947 14.75 4.72317V18.9691C14.75 20.4211 13.0838 21.2415 11.933 20.3562L7.31231 16.8018C7.2686 16.7682 7.21501 16.75 7.15988 16.75H3C2.0335 16.75 1.25 15.9665 1.25 15V7.99999C1.25 7.03349 2.0335 6.24999 3 6.24999H6.73444C6.77794 6.24999 6.8207 6.23863 6.85847 6.21705L12.1318 3.20374ZM13.25 4.72317C13.25 4.53121 13.0426 4.41087 12.876 4.50611L7.60268 7.51941C7.33826 7.67051 7.03898 7.74999 6.73444 7.74999H3C2.86193 7.74999 2.75 7.86192 2.75 7.99999V15C2.75 15.1381 2.86193 15.25 3 15.25H7.15988C7.54583 15.25 7.92096 15.3776 8.22687 15.6129L12.8476 19.1673C13.012 19.2937 13.25 19.1765 13.25 18.9691V4.72317Z" fill="#212121"/>
<path d="M16.4697 8.96965C16.7626 8.67676 17.2374 8.67676 17.5303 8.96965L19.5 10.9393L21.4697 8.96965C21.7626 8.67676 22.2374 8.67676 22.5303 8.96965C22.8232 9.26255 22.8232 9.73742 22.5303 10.0303L20.5607 12L22.5303 13.9697C22.8232 14.2625 22.8232 14.7374 22.5303 15.0303C22.2374 15.3232 21.7626 15.3232 21.4697 15.0303L19.5 13.0606L17.5303 15.0303C17.2374 15.3232 16.7626 15.3232 16.4697 15.0303C16.1768 14.7374 16.1768 14.2625 16.4697 13.9697L18.4393 12L16.4697 10.0303C16.1768 9.73742 16.1768 9.26255 16.4697 8.96965Z" fill="#212121"/>
</svg>
