<svg width="24" height="24" viewBox="0 0 24 24" fill="none" xmlns="http://www.w3.org/2000/svg">
<path d="M12 1.25C11.4285 1.25 10.8669 1.29466 10.3187 1.38082C9.90951 1.44513 9.62992 1.82897 9.69423 2.23816C9.75854 2.64735 10.1424 2.92694 10.5516 2.86263C11.0231 2.78854 11.5068 2.75 12 2.75C12.4932 2.75 12.9769 2.78854 13.4484 2.86263C13.8576 2.92694 14.2415 2.64735 14.3058 2.23816C14.3701 1.82897 14.0905 1.44513 13.6813 1.38082C13.1331 1.29466 12.5715 1.25 12 1.25Z" fill="#212121"/>
<path d="M6.56314 4.5156C6.89805 4.27187 6.97196 3.80278 6.72822 3.46787C6.48448 3.13296 6.01539 3.05905 5.68048 3.30279C4.7691 3.96608 3.96608 4.7691 3.30279 5.68048C3.05905 6.01539 3.13296 6.48448 3.46787 6.72822C3.80278 6.97196 4.27187 6.89805 4.5156 6.56314C5.08675 5.77837 5.77837 5.08675 6.56314 4.5156Z" fill="#212121"/>
<path d="M18.3195 3.30279C17.9846 3.05905 17.5155 3.13296 17.2718 3.46787C17.028 3.80278 17.1019 4.27187 17.4369 4.5156C18.2216 5.08675 18.9132 5.77837 19.4844 6.56314C19.7281 6.89805 20.1972 6.97196 20.5321 6.72822C20.867 6.48448 20.9409 6.01539 20.6972 5.68048C20.0339 4.7691 19.2309 3.96608 18.3195 3.30279Z" fill="#212121"/>
<path d="M2.86263 10.5516C2.92694 10.1424 2.64735 9.75854 2.23816 9.69423C1.82897 9.62992 1.44513 9.90951 1.38082 10.3187C1.29466 10.8669 1.25 11.4285 1.25 12C1.25 12.5715 1.29466 13.1331 1.38082 13.6813C1.44513 14.0905 1.82897 14.3701 2.23816 14.3058C2.64735 14.2415 2.92694 13.8576 2.86263 13.4484C2.78854 12.9769 2.75 12.4932 2.75 12C2.75 11.5068 2.78854 11.0231 2.86263 10.5516Z" fill="#212121"/>
<path d="M22.6192 10.3187C22.5549 9.90951 22.171 9.62992 21.7618 9.69423C21.3526 9.75854 21.0731 10.1424 21.1374 10.5516C21.2115 11.0231 21.25 11.5068 21.25 12C21.25 12.4932 21.2115 12.9769 21.1374 13.4484C21.0731 13.8576 21.3526 14.2415 21.7618 14.3058C22.171 14.3701 22.5549 14.0905 22.6192 13.6813C22.7053 13.1331 22.75 12.5715 22.75 12C22.75 11.4285 22.7053 10.8669 22.6192 10.3187Z" fill="#212121"/>
<path d="M4.5156 17.4369C4.27187 17.1019 3.80278 17.028 3.46787 17.2718C3.13296 17.5155 3.05905 17.9846 3.30279 18.3195C3.96608 19.2309 4.7691 20.0339 5.68048 20.6972C6.01539 20.9409 6.48448 20.867 6.72822 20.5321C6.97196 20.1972 6.89805 19.7281 6.56314 19.4844C5.77837 18.9132 5.08675 18.2216 4.5156 17.4369Z" fill="#212121"/>
<path d="M20.6972 18.3195C20.9409 17.9846 20.867 17.5155 20.5321 17.2718C20.1972 17.028 19.7281 17.1019 19.4844 17.4369C18.9132 18.2216 18.2216 18.9132 17.4369 19.4844C17.1019 19.7281 17.028 20.1972 17.2718 20.5321C17.5155 20.867 17.9846 20.9409 18.3195 20.6972C19.2309 20.0339 20.0339 19.2309 20.6972 18.3195Z" fill="#212121"/>
<path d="M10.5516 21.1374C10.1424 21.0731 9.75854 21.3526 9.69423 21.7618C9.62992 22.171 9.90951 22.5549 10.3187 22.6192C10.8669 22.7053 11.4285 22.75 12 22.75C12.5715 22.75 13.1331 22.7053 13.6813 22.6192C14.0905 22.5549 14.3701 22.171 14.3058 21.7618C14.2415 21.3526 13.8576 21.0731 13.4484 21.1374C12.9769 21.2115 12.4932 21.25 12 21.25C11.5068 21.25 11.0231 21.2115 10.5516 21.1374Z" fill="#212121"/>
<path d="M17.0303 10.0303C17.3232 9.73744 17.3232 9.26256 17.0303 8.96967C16.7374 8.67678 16.2626 8.67678 15.9697 8.96967L11 13.9393L8.03033 10.9697C7.73744 10.6768 7.26256 10.6768 6.96967 10.9697C6.67678 11.2626 6.67678 11.7374 6.96967 12.0303L10.4697 15.5303C10.7626 15.8232 11.2374 15.8232 11.5303 15.5303L17.0303 10.0303Z" fill="#212121"/>
</svg>
