<svg width="24" height="24" viewBox="0 0 24 24" fill="none" xmlns="http://www.w3.org/2000/svg">
<path d="M10.8067 10.8067L9.1362 14.8638L13.1932 13.1932L10.8067 10.8067Z" fill="#212121"/>
<path fill-rule="evenodd" clip-rule="evenodd" d="M1.25 12C1.25 6.06294 6.06294 1.25 12 1.25C17.9371 1.25 22.75 6.06294 22.75 12C22.75 17.9371 17.9371 22.75 12 22.75C6.06294 22.75 1.25 17.9371 1.25 12ZM16.773 7.22702C16.9871 7.44111 17.0514 7.76294 16.9361 8.04291L14.4613 14.0533C14.3851 14.2383 14.2383 14.3851 14.0533 14.4613L8.04291 16.9361C7.76294 17.0514 7.44111 16.9871 7.22702 16.773C7.01292 16.5589 6.94856 16.237 7.06384 15.9571L9.53871 9.94666C9.61486 9.76172 9.76172 9.61486 9.94666 9.53871L15.9571 7.06384C16.237 6.94856 16.5589 7.01292 16.773 7.22702Z" fill="#212121"/>
</svg>
