<svg width="24" height="24" viewBox="0 0 24 24" fill="none" xmlns="http://www.w3.org/2000/svg">
<path d="M3.75 12C3.75 7.44365 7.44365 3.75 12 3.75C14.787 3.75 17.2522 5.1318 18.7463 7.25H16.5C16.0858 7.25 15.75 7.58579 15.75 8C15.75 8.41421 16.0858 8.75 16.5 8.75H20.5C20.9142 8.75 21.25 8.41421 21.25 8V4C21.25 3.58579 20.9142 3.25 20.5 3.25C20.0858 3.25 19.75 3.58579 19.75 4V6.08327C17.969 3.75399 15.1606 2.25 12 2.25C6.61522 2.25 2.25 6.61522 2.25 12C2.25 17.3848 6.61522 21.75 12 21.75C16.2464 21.75 19.8569 19.0358 21.195 15.2499C21.333 14.8594 21.1284 14.4309 20.7378 14.2929C20.3473 14.1548 19.9188 14.3595 19.7808 14.7501C18.6478 17.9554 15.5909 20.25 12 20.25C7.44365 20.25 3.75 16.5563 3.75 12Z" fill="#212121"/>
</svg>
