<svg width="24" height="24" viewBox="0 0 24 24" fill="none" xmlns="http://www.w3.org/2000/svg">
<path fill-rule="evenodd" clip-rule="evenodd" d="M12 23C18.0751 23 23 18.0751 23 12C23 5.92487 18.0751 1 12 1C5.92487 1 1 5.92487 1 12C1 18.0751 5.92487 23 12 23ZM11.4697 8.53033C11.1768 8.23744 11.1768 7.76256 11.4697 7.46967C11.7626 7.17678 12.2374 7.17678 12.5303 7.46967L16.5303 11.4697C16.8232 11.7626 16.8232 12.2374 16.5303 12.5303L12.5303 16.5303C12.2374 16.8232 11.7626 16.8232 11.4697 16.5303C11.1768 16.2374 11.1768 15.7626 11.4697 15.4697L14.1893 12.75H6.25C5.83579 12.75 5.5 12.4142 5.5 12C5.5 11.5858 5.83579 11.25 6.25 11.25H14.1893L11.4697 8.53033Z" fill="#212121"/>
</svg>
