<svg width="24" height="24" viewBox="0 0 24 24" fill="none" xmlns="http://www.w3.org/2000/svg">
<path d="M14.25 2.5C14.25 2.08579 13.9142 1.75 13.5 1.75C13.0858 1.75 12.75 2.08579 12.75 2.5V10.5C12.75 10.9142 13.0858 11.25 13.5 11.25H21.5C21.9142 11.25 22.25 10.9142 22.25 10.5C22.25 10.0858 21.9142 9.75 21.5 9.75H15.3107L22.0303 3.03033C22.3232 2.73744 22.3232 2.26256 22.0303 1.96967C21.7374 1.67678 21.2626 1.67678 20.9697 1.96967L14.25 8.68934V2.5Z" fill="#212121"/>
<path d="M9.75 21.5C9.75 21.9142 10.0858 22.25 10.5 22.25C10.9142 22.25 11.25 21.9142 11.25 21.5L11.25 13.5C11.25 13.0858 10.9142 12.75 10.5 12.75L2.5 12.75C2.08579 12.75 1.75 13.0858 1.75 13.5C1.75 13.9142 2.08579 14.25 2.5 14.25H8.68934L1.96967 20.9697C1.67678 21.2626 1.67678 21.7374 1.96967 22.0303C2.26256 22.3232 2.73744 22.3232 3.03033 22.0303L9.75 15.3107L9.75 21.5Z" fill="#212121"/>
</svg>
