<svg width="24" height="24" viewBox="0 0 24 24" fill="none" xmlns="http://www.w3.org/2000/svg">
<path d="M17.5 3C16.9477 3 16.5 3.44772 16.5 4V20C16.5 20.5523 16.9477 21 17.5 21H20.5C21.0523 21 21.5 20.5523 21.5 20V4C21.5 3.44772 21.0523 3 20.5 3H17.5Z" fill="#212121"/>
<path d="M9.5 9C9.5 8.44772 9.94772 8 10.5 8H13.5C14.0523 8 14.5 8.44772 14.5 9V20C14.5 20.5523 14.0523 21 13.5 21H10.5C9.94772 21 9.5 20.5523 9.5 20V9Z" fill="#212121"/>
<path d="M2.5 14C2.5 13.4477 2.94772 13 3.5 13H6.5C7.05228 13 7.5 13.4477 7.5 14V20C7.5 20.5523 7.05228 21 6.5 21H3.5C2.94772 21 2.5 20.5523 2.5 20V14Z" fill="#212121"/>
</svg>
