<svg width="24" height="24" viewBox="0 0 24 24" fill="none" xmlns="http://www.w3.org/2000/svg">
<path fill-rule="evenodd" clip-rule="evenodd" d="M11.6057 1.36201C11.8268 1.22536 12.1029 1.21293 12.3354 1.32918L17.3354 3.82918C17.5895 3.95622 17.75 4.21592 17.75 4.5C17.75 4.78408 17.5895 5.04378 17.3354 5.17082L12.75 7.46353V11.2648C15.0343 11.3553 17.1177 11.8563 18.6994 12.6472C20.4078 13.5014 21.75 14.8202 21.75 16.5C21.75 18.1798 20.4078 19.4986 18.6994 20.3528C16.9461 21.2294 14.5765 21.75 12 21.75C9.42353 21.75 7.0539 21.2294 5.30063 20.3528C3.59222 19.4986 2.25 18.1798 2.25 16.5C2.25 14.8202 3.59222 13.5014 5.30063 12.6472C6.88234 11.8563 8.96569 11.3553 11.25 11.2648V2C11.25 1.74007 11.3846 1.49867 11.6057 1.36201ZM11.25 14.5V12.7661C9.16248 12.8559 7.31654 13.3163 5.97145 13.9888C4.4225 14.7633 3.75 15.6945 3.75 16.5C3.75 17.3055 4.4225 18.2367 5.97145 19.0112C7.47554 19.7632 9.60591 20.25 12 20.25C14.3941 20.25 16.5245 19.7632 18.0286 19.0112C19.5775 18.2367 20.25 17.3055 20.25 16.5C20.25 15.6945 19.5775 14.7633 18.0286 13.9888C16.6835 13.3163 14.8375 12.8559 12.75 12.7661V14.5C12.75 14.9142 12.4142 15.25 12 15.25C11.5858 15.25 11.25 14.9142 11.25 14.5Z" fill="black"/>
</svg>
