<svg width="24" height="24" viewBox="0 0 24 24" fill="none" xmlns="http://www.w3.org/2000/svg">
<path d="M1.75 3C1.75 2.58579 2.08579 2.25 2.5 2.25H21.5C21.9142 2.25 22.25 2.58579 22.25 3C22.25 3.41421 21.9142 3.75 21.5 3.75H2.5C2.08579 3.75 1.75 3.41421 1.75 3Z" fill="#212121"/>
<path d="M12.75 8.81066L17.4697 13.5303C17.7626 13.8232 18.2374 13.8232 18.5303 13.5303C18.8232 13.2374 18.8232 12.7626 18.5303 12.4697L12.5303 6.46967C12.2374 6.17678 11.7626 6.17678 11.4697 6.46967L5.46967 12.4697C5.17678 12.7626 5.17678 13.2374 5.46967 13.5303C5.76256 13.8232 6.23744 13.8232 6.53033 13.5303L11.25 8.81066V21.5C11.25 21.9142 11.5858 22.25 12 22.25C12.4142 22.25 12.75 21.9142 12.75 21.5V8.81066Z" fill="#212121"/>
</svg>
