<svg width="24" height="24" viewBox="0 0 24 24" fill="none" xmlns="http://www.w3.org/2000/svg">
<path d="M5.75 8C5.75 7.58579 6.08579 7.25 6.5 7.25H17.5C17.9142 7.25 18.25 7.58579 18.25 8C18.25 8.41421 17.9142 8.75 17.5 8.75H6.5C6.08579 8.75 5.75 8.41421 5.75 8Z" fill="#212121"/>
<path d="M6.5 11.25C6.08579 11.25 5.75 11.5858 5.75 12C5.75 12.4142 6.08579 12.75 6.5 12.75H12C12.4142 12.75 12.75 12.4142 12.75 12C12.75 11.5858 12.4142 11.25 12 11.25H6.5Z" fill="#212121"/>
<path fill-rule="evenodd" clip-rule="evenodd" d="M2.25 6C2.25 4.48122 3.48122 3.25 5 3.25H19C20.5188 3.25 21.75 4.48122 21.75 6V15C21.75 16.5188 20.5188 17.75 19 17.75H15.635L12.8342 20.2596C12.3594 20.685 11.6406 20.685 11.1659 20.2596L8.36503 17.75H5C3.48122 17.75 2.25 16.5188 2.25 15V6ZM5 4.75C4.30964 4.75 3.75 5.30964 3.75 6V15C3.75 15.6904 4.30964 16.25 5 16.25H8.65188C8.8366 16.25 9.01481 16.3182 9.15238 16.4414L12 18.993L14.8476 16.4414C14.9852 16.3182 15.1634 16.25 15.3481 16.25H19C19.6904 16.25 20.25 15.6904 20.25 15V6C20.25 5.30964 19.6904 4.75 19 4.75H5Z" fill="#212121"/>
</svg>
