<svg width="24" height="24" viewBox="0 0 24 24" fill="none" xmlns="http://www.w3.org/2000/svg">
<path fill-rule="evenodd" clip-rule="evenodd" d="M9.5 4.25C6.04822 4.25 3.25 7.04822 3.25 10.5C3.25 12.9921 4.70852 15.145 6.82182 16.1489C7.08334 16.2732 7.25 16.5368 7.25 16.8264V19.2688L9.72038 16.9528C9.85939 16.8225 10.0428 16.75 10.2333 16.75H14.5C17.9518 16.75 20.75 13.9518 20.75 10.5C20.75 7.04822 17.9518 4.25 14.5 4.25H9.5ZM1.75 10.5C1.75 6.21979 5.21979 2.75 9.5 2.75H14.5C18.7802 2.75 22.25 6.21979 22.25 10.5C22.25 14.7802 18.7802 18.25 14.5 18.25H10.5299L7.85493 20.7578C7.0566 21.5062 5.75 20.9402 5.75 19.8459V17.2838C3.36602 15.9632 1.75 13.421 1.75 10.5Z" fill="#212121"/>
</svg>
