<svg width="24" height="24" viewBox="0 0 24 24" fill="none" xmlns="http://www.w3.org/2000/svg">
<path fill-rule="evenodd" clip-rule="evenodd" d="M13.9728 1.57201C12.9146 0.961076 11.572 1.5951 11.3715 2.80041L10.9594 5.27777L3.87342 10.1759C2.81662 10.9064 2.88091 12.4886 3.99349 13.131L8.90367 15.9659L5.27866 22.2446C5.07155 22.6033 5.19446 23.062 5.55318 23.2691C5.9119 23.4762 6.37059 23.3533 6.5777 22.9946L10.2027 16.7159L15.1129 19.5508C16.2255 20.1931 17.6279 19.4577 17.7321 18.1772L18.4311 9.59153L20.3705 7.99598C21.3141 7.2197 21.1918 5.73994 20.1337 5.12901L13.9728 1.57201ZM15.8629 18.2517C16.0219 18.3435 16.2222 18.2384 16.2371 18.0555L16.9618 9.15328C16.9782 8.95094 17.076 8.76392 17.2328 8.63494L19.4175 6.83761C19.5523 6.72672 19.5348 6.51532 19.3837 6.42804L13.2228 2.87104C13.0716 2.78377 12.8798 2.87434 12.8511 3.04653L12.387 5.83719C12.3536 6.03745 12.2406 6.21564 12.0736 6.33108L4.72634 11.4098C4.57537 11.5141 4.58455 11.7402 4.74349 11.8319L15.8629 18.2517Z" fill="#212121"/>
</svg>
