<svg width="24" height="24" viewBox="0 0 24 24" fill="none" xmlns="http://www.w3.org/2000/svg">
<path d="M12.75 3C12.75 2.58579 12.4142 2.25 12 2.25C11.5858 2.25 11.25 2.58579 11.25 3V12.6893L7.53033 8.96967C7.23744 8.67678 6.76256 8.67678 6.46967 8.96967C6.17678 9.26256 6.17678 9.73744 6.46967 10.0303L11.4697 15.0303C11.7626 15.3232 12.2374 15.3232 12.5303 15.0303L17.5303 10.0303C17.8232 9.73744 17.8232 9.26256 17.5303 8.96967C17.2374 8.67678 16.7626 8.67678 16.4697 8.96967L12.75 12.6893V3Z" fill="#212121"/>
<path d="M3.25 14C3.25 13.5858 2.91421 13.25 2.5 13.25C2.08579 13.25 1.75 13.5858 1.75 14V18.5C1.75 20.0188 2.98122 21.25 4.5 21.25H19.5C21.0188 21.25 22.25 20.0188 22.25 18.5V14C22.25 13.5858 21.9142 13.25 21.5 13.25C21.0858 13.25 20.75 13.5858 20.75 14V18.5C20.75 19.1904 20.1904 19.75 19.5 19.75H4.5C3.80964 19.75 3.25 19.1904 3.25 18.5V14Z" fill="#212121"/>
</svg>
