<svg width="24" height="24" viewBox="0 0 24 24" fill="none" xmlns="http://www.w3.org/2000/svg">
<path fill-rule="evenodd" clip-rule="evenodd" d="M20.75 6C20.75 4.48122 19.5188 3.25 18 3.25H6C4.48122 3.25 3.25 4.48122 3.25 6V18C3.25 19.5188 4.48122 20.75 6 20.75H18C19.5188 20.75 20.75 19.5188 20.75 18V6ZM16 19.25H18C18.6904 19.25 19.25 18.6904 19.25 18L19.25 6C19.25 5.30964 18.6904 4.75 18 4.75L16 4.75C15.9999 4.75 16.0001 4.75 16 4.75C15.3098 4.75017 14.75 5.30975 14.75 6V18C14.75 18.6904 15.3096 19.25 16 19.25ZM13.5499 4.75C13.3581 5.12503 13.25 5.54989 13.25 6V18C13.25 18.4501 13.3581 18.875 13.5499 19.25H6C5.30964 19.25 4.75 18.6904 4.75 18L4.75 6C4.75 5.30964 5.30964 4.75 6 4.75L13.5499 4.75Z" fill="#212121"/>
</svg>
