<svg width="24" height="24" viewBox="0 0 24 24" fill="none" xmlns="http://www.w3.org/2000/svg">
<path d="M10 2.80554C7.62212 2.80554 5.69446 4.7332 5.69446 7.1111C5.69446 9.48899 7.62212 11.4167 10 11.4167C12.3779 11.4167 14.3056 9.48899 14.3056 7.1111C14.3056 4.7332 12.3779 2.80554 10 2.80554Z" fill="#212121"/>
<path d="M10 12.5833C3.96002 12.5833 1.25 16.2587 1.25 18.4057C1.25 19.237 1.87314 19.7599 2.44149 20.0644C3.03785 20.3839 3.82169 20.6057 4.64616 20.7651C6.30922 21.0865 8.36282 21.1945 10 21.1945C11.6372 21.1945 13.6908 21.0865 15.3538 20.7651C16.1783 20.6057 16.9621 20.3839 17.5585 20.0644C18.1269 19.7599 18.75 19.237 18.75 18.4057C18.75 16.2587 16.04 12.5833 10 12.5833Z" fill="#212121"/>
<path d="M16.9697 7.46967C17.2626 7.17678 17.7374 7.17678 18.0303 7.46967L19.6213 9.06068L21.2123 7.46967C21.5052 7.17678 21.9801 7.17678 22.273 7.46967C22.5659 7.76256 22.5659 8.23744 22.273 8.53033L20.682 10.1213L22.273 11.7123C22.5659 12.0052 22.5659 12.4801 22.273 12.773C21.9801 13.0659 21.5052 13.0659 21.2123 12.773L19.6213 11.182L18.0304 12.773C17.7375 13.0659 17.2626 13.0659 16.9697 12.773C16.6768 12.4801 16.6768 12.0052 16.9697 11.7123L18.5607 10.1213L16.9697 8.53033C16.6768 8.23744 16.6768 7.76256 16.9697 7.46967Z" fill="#212121"/>
</svg>
