<svg width="24" height="24" viewBox="0 0 24 24" fill="none" xmlns="http://www.w3.org/2000/svg">
<path d="M12 2.25C9.37665 2.25 7.25 4.37665 7.25 7C7.25 9.62335 9.37665 11.75 12 11.75C14.6234 11.75 16.75 9.62335 16.75 7C16.75 4.37665 14.6234 2.25 12 2.25Z" fill="#212121"/>
<path d="M12 13.25C5.24007 13.25 2.25 17.3581 2.25 19.7063C2.25 20.588 2.9104 21.152 3.54095 21.4898C4.19951 21.8427 5.07049 22.09 5.99472 22.2687C7.8573 22.6286 10.1609 22.75 12 22.75C13.8391 22.75 16.1427 22.6286 18.0053 22.2687C18.9295 22.09 19.8005 21.8427 20.459 21.4898C21.0896 21.152 21.75 20.588 21.75 19.7063C21.75 17.3581 18.7599 13.25 12 13.25Z" fill="#212121"/>
</svg>
