<svg width="24" height="24" viewBox="0 0 24 24" fill="none" xmlns="http://www.w3.org/2000/svg">
<path d="M15.8056 5.01388C13.87 4.20609 11.975 4.07943 10.182 4.44449C6.50276 5.19357 3.48106 7.9733 1.60873 10.5166C0.954861 11.4048 0.957669 12.6107 1.61466 13.4961C2.3663 14.509 3.28905 15.5412 4.352 16.4675L8.28755 12.5319C8.26288 12.3581 8.25012 12.1806 8.25012 12C8.25012 9.92893 9.92905 8.25 12.0001 8.25C12.1807 8.25 12.3583 8.26276 12.532 8.28743L15.8056 5.01388Z" fill="#212121"/>
<path fill-rule="evenodd" clip-rule="evenodd" d="M3.98316 18.9563L2.96979 19.9697C2.6769 20.2626 2.6769 20.7374 2.96979 21.0303C3.26269 21.3232 3.73756 21.3232 4.03045 21.0303L6.82239 18.2384C7.90971 18.8594 9.08693 19.3321 10.3335 19.5733C14.1184 20.3056 18.3112 18.8655 22.2993 13.5746C23.0007 12.6441 22.9928 11.3626 22.2852 10.4396C21.0253 8.79607 19.754 7.52425 18.4878 6.57302L21.0305 4.03033C21.3233 3.73744 21.3233 3.26256 21.0305 2.96967C20.7376 2.67678 20.2627 2.67678 19.9698 2.96967L19.5361 3.40336C19.5278 3.41251 19.5192 3.4215 19.5104 3.43032L4.01045 18.9303C4.00152 18.9393 3.99242 18.9479 3.98316 18.9563ZM15.1288 9.93196L14.0308 11.0299C14.1714 11.3237 14.2501 11.6526 14.2501 12C14.2501 13.2426 13.2428 14.25 12.0001 14.25C11.6528 14.25 11.3238 14.1713 11.0301 14.0307L9.93208 15.1287C10.5249 15.5213 11.2358 15.75 12.0001 15.75C14.0712 15.75 15.7501 14.0711 15.7501 12C15.7501 11.2357 15.5215 10.5248 15.1288 9.93196Z" fill="#212121"/>
</svg>
