<svg width="24" height="24" viewBox="0 0 24 24" fill="none" xmlns="http://www.w3.org/2000/svg">
<path fill-rule="evenodd" clip-rule="evenodd" d="M14.6921 4.41385L10.0772 9.0288C9.7845 9.32148 9.60503 9.70843 9.57066 10.1209L9.35074 12.76C9.26087 13.8384 10.1616 14.7391 11.24 14.6492L13.8791 14.4293C14.2915 14.3949 14.6785 14.2155 14.9712 13.9228L21.3232 7.57074C22.0066 6.88732 22.0066 5.77929 21.3232 5.09587L18.9041 2.67675C18.2207 1.99333 17.1126 1.99333 16.4292 2.67675L14.7017 4.40425C14.7001 4.40584 14.6985 4.40743 14.6969 4.40903C14.6953 4.41063 14.6937 4.41224 14.6921 4.41385ZM17.8434 3.73741C17.7458 3.63978 17.5875 3.63978 17.4899 3.73741L16.2879 4.93938L19.0606 7.71206L20.2626 6.51008C20.3602 6.41245 20.3602 6.25416 20.2626 6.15653L17.8434 3.73741ZM17.9999 8.77272L15.2273 6.00004L11.1378 10.0895C11.096 10.1313 11.0704 10.1866 11.0655 10.2455L10.8456 12.8845C10.8327 13.0386 10.9614 13.1673 11.1155 13.1544L13.7545 12.9345C13.8134 12.9296 13.8687 12.9039 13.9105 12.8621L17.9999 8.77272Z" fill="#212121"/>
<path d="M5.50006 4.24997C4.80971 4.24997 4.25006 4.80961 4.25006 5.49997V18.5C4.25006 19.1903 4.80971 19.75 5.50006 19.75H18.5001C19.1904 19.75 19.7501 19.1903 19.7501 18.5V13.5C19.7501 13.0858 20.0858 12.75 20.5001 12.75C20.9143 12.75 21.2501 13.0858 21.2501 13.5V18.5C21.2501 20.0188 20.0188 21.25 18.5001 21.25H5.50006C3.98128 21.25 2.75006 20.0188 2.75006 18.5V5.49997C2.75006 3.98119 3.98128 2.74997 5.50006 2.74997H10.5001C10.9143 2.74997 11.2501 3.08576 11.2501 3.49997C11.2501 3.91418 10.9143 4.24997 10.5001 4.24997H5.50006Z" fill="#212121"/>
</svg>
