<svg width="24" height="24" viewBox="0 0 24 24" fill="none" xmlns="http://www.w3.org/2000/svg">
<path fill-rule="evenodd" clip-rule="evenodd" d="M12 8.24997C9.92893 8.24997 8.25 9.9289 8.25 12C8.25 14.071 9.92893 15.75 12 15.75C14.0711 15.75 15.75 14.071 15.75 12C15.75 9.9289 14.0711 8.24997 12 8.24997ZM9.75 12C9.75 10.7573 10.7574 9.74997 12 9.74997C13.2426 9.74997 14.25 10.7573 14.25 12C14.25 13.2426 13.2426 14.25 12 14.25C10.7574 14.25 9.75 13.2426 9.75 12Z" fill="#212121"/>
<path fill-rule="evenodd" clip-rule="evenodd" d="M22.2863 10.439C18.1822 5.0853 13.9568 3.67557 10.1831 4.44388C6.50385 5.19296 3.48216 7.97269 1.60983 10.516C0.95596 11.4042 0.958767 12.6101 1.61576 13.4955C3.55763 16.1123 6.64166 18.8581 10.3346 19.5727C14.1195 20.305 18.3123 18.8648 22.3004 13.574C23.0018 12.6435 22.9939 11.362 22.2863 10.439ZM2.81779 11.4053C4.58699 9.00208 7.32352 6.55685 10.4823 5.91372C13.5467 5.28983 17.2392 6.32066 21.0959 11.3516C21.3948 11.7415 21.397 12.2804 21.1026 12.6711C17.3638 17.6312 13.7014 18.6963 10.6196 18.1C7.44581 17.4859 4.65155 15.0693 2.82033 12.6016C2.55573 12.245 2.55481 11.7625 2.81779 11.4053Z" fill="#212121"/>
</svg>
