<svg width="24" height="24" viewBox="0 0 24 24" fill="none" xmlns="http://www.w3.org/2000/svg">
<path fill-rule="evenodd" clip-rule="evenodd" d="M21.0303 4.03033C21.3232 3.73744 21.3232 3.26256 21.0303 2.96967C20.7374 2.67678 20.2626 2.67678 19.9697 2.96967L2.96967 19.9697C2.67678 20.2626 2.67678 20.7374 2.96967 21.0303C3.26256 21.3232 3.73744 21.3232 4.03033 21.0303L6.82308 18.2376C7.91051 18.8587 9.08787 19.3315 10.3346 19.5727C14.1195 20.305 18.3123 18.8649 22.3004 13.574C23.0018 12.6435 22.9939 11.362 22.2863 10.439C21.0263 8.79533 19.7548 7.52342 18.4885 6.57216L21.0303 4.03033ZM17.4173 7.64341L15.1287 9.93196C15.5213 10.5248 15.75 11.2357 15.75 12C15.75 14.0711 14.0711 15.75 12 15.75C11.2357 15.75 10.5248 15.5213 9.93196 15.1287L7.92805 17.1326C8.78233 17.5817 9.68448 17.9191 10.6196 18.1C13.7014 18.6963 17.3638 17.6312 21.1026 12.6711C21.397 12.2804 21.3948 11.7416 21.0959 11.3516C19.8472 9.72275 18.6157 8.51323 17.4173 7.64341ZM11.0299 14.0307C11.3237 14.1713 11.6526 14.25 12 14.25C13.2426 14.25 14.25 13.2426 14.25 12C14.25 11.6526 14.1713 11.3237 14.0307 11.0299L11.0299 14.0307Z" fill="#212121"/>
<path d="M10.1831 4.44391C11.9803 4.078 13.88 4.20611 15.8203 5.01902L14.657 6.18233C13.177 5.68179 11.7739 5.6508 10.4823 5.91375C7.32352 6.55688 4.58699 9.00211 2.81779 11.4053C2.55481 11.7625 2.55573 12.2451 2.82033 12.6016C3.54893 13.5835 4.42999 14.5572 5.42675 15.4126L4.36345 16.4759C3.29614 15.5473 2.36983 14.5117 1.61576 13.4955C0.958767 12.6102 0.95596 11.4042 1.60983 10.516C3.48216 7.97272 6.50385 5.19299 10.1831 4.44391Z" fill="#212121"/>
<path d="M12 8.25C12.1866 8.25 12.3701 8.26363 12.5494 8.28996L10.6041 10.2353C10.4674 10.3435 10.3435 10.4674 10.2353 10.6041L8.28996 12.5494C8.26363 12.3701 8.25 12.1866 8.25 12C8.25 9.92893 9.92893 8.25 12 8.25Z" fill="#212121"/>
</svg>
