<svg width="24" height="24" viewBox="0 0 24 24" fill="none" xmlns="http://www.w3.org/2000/svg">
<path fill-rule="evenodd" clip-rule="evenodd" d="M2.25 5C2.25 3.48122 3.48122 2.25 5 2.25H19C20.5188 2.25 21.75 3.48122 21.75 5V19C21.75 20.5188 20.5188 21.75 19 21.75H5C3.48122 21.75 2.25 20.5188 2.25 19V5ZM20.25 8V5C20.25 4.30964 19.6904 3.75 19 3.75H15.75V8C15.75 9.24264 16.7574 10.25 18 10.25C19.2426 10.25 20.25 9.24264 20.25 8ZM15 10.2504C15.6842 11.161 16.7733 11.75 18 11.75C18.8442 11.75 19.6233 11.471 20.25 11.0003V19C20.25 19.6904 19.6904 20.25 19 20.25H12.75V16C12.75 15.5858 12.4142 15.25 12 15.25C11.5858 15.25 11.25 15.5858 11.25 16V20.25H5C4.30964 20.25 3.75 19.6904 3.75 19V11.0003C4.37675 11.471 5.1558 11.75 6 11.75C7.2267 11.75 8.31583 11.161 9 10.2504C9.68417 11.161 10.7733 11.75 12 11.75C13.2267 11.75 14.3158 11.161 15 10.2504ZM14.25 8V3.75H9.75V8C9.75 9.24264 10.7574 10.25 12 10.25C13.2426 10.25 14.25 9.24264 14.25 8ZM3.75 5V8C3.75 9.24264 4.75736 10.25 6 10.25C7.24264 10.25 8.25 9.24264 8.25 8V3.75H5C4.30964 3.75 3.75 4.30964 3.75 5Z" fill="#212121"/>
</svg>
