<svg width="24" height="24" viewBox="0 0 24 24" fill="none" xmlns="http://www.w3.org/2000/svg">
<path fill-rule="evenodd" clip-rule="evenodd" d="M5 3.25C3.48122 3.25 2.25 4.48122 2.25 6V15C2.25 16.5188 3.48122 17.75 5 17.75H8.36503L11.1659 20.2596C11.6406 20.685 12.3594 20.685 12.8342 20.2596L15.635 17.75H19C20.5188 17.75 21.75 16.5188 21.75 15V6C21.75 4.48122 20.5188 3.25 19 3.25H5ZM5.75 8C5.75 7.58579 6.08579 7.25 6.5 7.25H17.5C17.9142 7.25 18.25 7.58579 18.25 8C18.25 8.41421 17.9142 8.75 17.5 8.75H6.5C6.08579 8.75 5.75 8.41421 5.75 8ZM6.5 11.25C6.08579 11.25 5.75 11.5858 5.75 12C5.75 12.4142 6.08579 12.75 6.5 12.75H12C12.4142 12.75 12.75 12.4142 12.75 12C12.75 11.5858 12.4142 11.25 12 11.25H6.5Z" fill="#212121"/>
</svg>
