<svg width="24" height="24" viewBox="0 0 24 24" fill="none" xmlns="http://www.w3.org/2000/svg">
<path fill-rule="evenodd" clip-rule="evenodd" d="M10.1701 2.25C9.25995 2.25 8.50173 2.94766 8.42615 3.85467L8.30987 5.25H4C3.58579 5.25 3.25 5.58579 3.25 6C3.25 6.41421 3.58579 6.75 4 6.75H4.27536L4.6838 18.5948C4.73487 20.0758 5.95027 21.25 7.43216 21.25H16.5677C18.0496 21.25 19.265 20.0758 19.3161 18.5948L19.7245 6.75H20C20.4142 6.75 20.75 6.41421 20.75 6C20.75 5.58579 20.4142 5.25 20 5.25H15.6901L15.5738 3.85467C15.4982 2.94766 14.74 2.25 13.8298 2.25H10.1701ZM14.1849 5.25L14.079 3.97924C14.0682 3.84967 13.9599 3.75 13.8298 3.75H10.1701C10.0401 3.75 9.93177 3.84967 9.92097 3.97924L9.81507 5.25H14.1849ZM10 10.75C10.4142 10.75 10.75 11.0858 10.75 11.5V16C10.75 16.4142 10.4142 16.75 10 16.75C9.58579 16.75 9.25 16.4142 9.25 16V11.5C9.25 11.0858 9.58579 10.75 10 10.75ZM14.75 11.5C14.75 11.0858 14.4142 10.75 14 10.75C13.5858 10.75 13.25 11.0858 13.25 11.5V16C13.25 16.4142 13.5858 16.75 14 16.75C14.4142 16.75 14.75 16.4142 14.75 16V11.5Z" fill="#212121"/>
</svg>
