<svg width="24" height="24" viewBox="0 0 24 24" fill="none" xmlns="http://www.w3.org/2000/svg">
<path fill-rule="evenodd" clip-rule="evenodd" d="M12.713 3.30711C12.9932 3.19103 13.3158 3.25519 13.5303 3.46969L21.5303 11.4697C21.8232 11.7626 21.8232 12.2375 21.5303 12.5304L13.5303 20.5304C13.3158 20.7449 12.9932 20.809 12.713 20.6929C12.4327 20.5768 12.25 20.3034 12.25 20V16.2177C7.39955 16.1419 4.48557 18.9818 3.64312 20.3859C3.46968 20.675 3.12468 20.8128 2.7998 20.7228C2.47492 20.6328 2.25 20.3371 2.25 20C2.25 14.8203 3.98581 11.6259 6.28148 9.78937C8.22552 8.23414 10.4943 7.71491 12.25 7.71404V4.00002C12.25 3.69668 12.4327 3.4232 12.713 3.30711ZM13.75 5.81068V8.50002C13.75 8.71192 13.6604 8.91393 13.5033 9.05611C13.3461 9.1983 13.1362 9.26739 12.9254 9.2463C11.4136 9.09512 9.11986 9.4396 7.21852 10.9607C5.65127 12.2145 4.2759 14.3282 3.87065 17.8146C5.67949 16.145 8.77115 14.4461 13.0534 14.7519C13.4459 14.78 13.75 15.1066 13.75 15.5V18.1894L19.9393 12L13.75 5.81068Z" fill="#212121"/>
</svg>
