<svg width="24" height="24" viewBox="0 0 24 24" fill="none" xmlns="http://www.w3.org/2000/svg">
<path d="M3.5 4C3.5 3.72386 3.72386 3.5 4 3.5H5C5.27614 3.5 5.5 3.72386 5.5 4V7.5C5.5 7.77614 5.27614 8 5 8C4.72386 8 4.5 7.77614 4.5 7.5V4.5H4C3.72386 4.5 3.5 4.27614 3.5 4Z" fill="#212121"/>
<path d="M9.25 6C9.25 5.58579 9.58579 5.25 10 5.25H20C20.4142 5.25 20.75 5.58579 20.75 6C20.75 6.41421 20.4142 6.75 20 6.75H10C9.58579 6.75 9.25 6.41421 9.25 6Z" fill="#212121"/>
<path d="M9.25 12C9.25 11.5858 9.58579 11.25 10 11.25H20C20.4142 11.25 20.75 11.5858 20.75 12C20.75 12.4142 20.4142 12.75 20 12.75H10C9.58579 12.75 9.25 12.4142 9.25 12Z" fill="#212121"/>
<path d="M10 17.25C9.58579 17.25 9.25 17.5858 9.25 18C9.25 18.4142 9.58579 18.75 10 18.75H20C20.4142 18.75 20.75 18.4142 20.75 18C20.75 17.5858 20.4142 17.25 20 17.25H10Z" fill="#212121"/>
<path d="M4 9.5C3.72386 9.5 3.5 9.72386 3.5 10C3.5 10.2761 3.72386 10.5 4 10.5H5C5.27614 10.5 5.5 10.7239 5.5 11C5.5 11.2761 5.27614 11.5 5 11.5H4.66667C4.02233 11.5 3.5 12.0223 3.5 12.6667V13.5C3.5 13.7761 3.72386 14 4 14H6C6.27614 14 6.5 13.7761 6.5 13.5C6.5 13.2239 6.27614 13 6 13H4.5V12.6667C4.5 12.5746 4.57462 12.5 4.66667 12.5H5C5.82843 12.5 6.5 11.8284 6.5 11C6.5 10.1716 5.82843 9.5 5 9.5H4Z" fill="#212121"/>
<path d="M3.5 16.5C3.5 16.2239 3.72386 16 4 16H5.25C5.94036 16 6.5 16.5596 6.5 17.25C6.5 17.5314 6.40701 17.7911 6.25009 18C6.40701 18.2089 6.5 18.4686 6.5 18.75C6.5 19.4404 5.94036 20 5.25 20H4C3.72386 20 3.5 19.7761 3.5 19.5C3.5 19.2239 3.72386 19 4 19H5.25C5.38807 19 5.5 18.8881 5.5 18.75C5.5 18.6119 5.38807 18.5 5.25 18.5H4.5C4.22386 18.5 4 18.2761 4 18C4 17.7239 4.22386 17.5 4.5 17.5H5.25C5.38807 17.5 5.5 17.3881 5.5 17.25C5.5 17.1119 5.38807 17 5.25 17H4C3.72386 17 3.5 16.7761 3.5 16.5Z" fill="#212121"/>
</svg>
