<svg width="24" height="24" viewBox="0 0 24 24" fill="none" xmlns="http://www.w3.org/2000/svg">
<path fill-rule="evenodd" clip-rule="evenodd" d="M4.5 1.75C2.98122 1.75 1.75 2.98122 1.75 4.5V12.5C1.75 14.0188 2.98122 15.25 4.5 15.25H12.5C14.0188 15.25 15.25 14.0188 15.25 12.5V4.5C15.25 2.98122 14.0188 1.75 12.5 1.75H4.5ZM3.25 4.5C3.25 3.80964 3.80964 3.25 4.5 3.25H12.5C13.1904 3.25 13.75 3.80964 13.75 4.5V12.5C13.75 13.1904 13.1904 13.75 12.5 13.75H4.5C3.80964 13.75 3.25 13.1904 3.25 12.5V4.5Z" fill="#212121"/>
<path d="M17.5 10.25H19.5C20.1904 10.25 20.75 10.8096 20.75 11.5V19.5C20.75 20.1904 20.1904 20.75 19.5 20.75H11.5C10.8096 20.75 10.25 20.1904 10.25 19.5V17.5H8.75V19.5C8.75 21.0188 9.98122 22.25 11.5 22.25H19.5C21.0188 22.25 22.25 21.0188 22.25 19.5V11.5C22.25 9.98122 21.0188 8.75 19.5 8.75H17.5V10.25Z" fill="#212121"/>
</svg>
