<svg width="24" height="24" viewBox="0 0 24 24" fill="none" xmlns="http://www.w3.org/2000/svg">
<path d="M8.25 11.5C8.25 10.8096 8.80964 10.25 9.5 10.25C10.1904 10.25 10.75 10.8096 10.75 11.5C10.75 12.1904 10.1904 12.75 9.5 12.75C8.80964 12.75 8.25 12.1904 8.25 11.5Z" fill="black"/>
<path d="M13.25 11.5C13.25 10.8096 13.8096 10.25 14.5 10.25C15.1904 10.25 15.75 10.8096 15.75 11.5C15.75 12.1904 15.1904 12.75 14.5 12.75C13.8096 12.75 13.25 12.1904 13.25 11.5Z" fill="black"/>
<path fill-rule="evenodd" clip-rule="evenodd" d="M10 14.25C9.0335 14.25 8.25 15.0335 8.25 16C8.25 16.9665 9.0335 17.75 10 17.75H14C14.9665 17.75 15.75 16.9665 15.75 16C15.75 15.0335 14.9665 14.25 14 14.25H10ZM9.75 16C9.75 15.8619 9.86193 15.75 10 15.75H14C14.1381 15.75 14.25 15.8619 14.25 16C14.25 16.1381 14.1381 16.25 14 16.25H10C9.86193 16.25 9.75 16.1381 9.75 16Z" fill="black"/>
<path fill-rule="evenodd" clip-rule="evenodd" d="M18 4.25H14.6465C14.32 3.09575 13.2588 2.25 12 2.25C10.7412 2.25 9.67998 3.09575 9.35352 4.25H6C4.48122 4.25 3.25 5.48122 3.25 7V9.25H3C2.0335 9.25 1.25 10.0335 1.25 11V15C1.25 15.9665 2.0335 16.75 3 16.75H3.25V19C3.25 20.5188 4.48122 21.75 6 21.75H18C19.5188 21.75 20.75 20.5188 20.75 19V16.75H21C21.9665 16.75 22.75 15.9665 22.75 15V11C22.75 10.0335 21.9665 9.25 21 9.25H20.75V7C20.75 5.48122 19.5188 4.25 18 4.25ZM6 5.75H18C18.6904 5.75 19.25 6.30964 19.25 7V19C19.25 19.6904 18.6904 20.25 18 20.25H6C5.30964 20.25 4.75 19.6904 4.75 19V7C4.75 6.30964 5.30964 5.75 6 5.75Z" fill="black"/>
</svg>
