<svg width="24" height="24" viewBox="0 0 24 24" fill="none" xmlns="http://www.w3.org/2000/svg">
<path fill-rule="evenodd" clip-rule="evenodd" d="M6.5 2.25C4.98122 2.25 3.75 3.48122 3.75 5V19C3.75 20.5188 4.98122 21.75 6.5 21.75H12.5632C13.3089 21.75 14.0226 21.4472 14.5407 20.911L19.4775 15.8026C19.92 15.3447 20.1882 14.7493 20.2406 14.1194C20.2468 14.0805 20.25 14.0406 20.25 14C20.25 13.9875 20.2497 13.975 20.2491 13.9626C20.2497 13.9389 20.25 13.9152 20.25 13.8915V5C20.25 3.48122 19.0188 2.25 17.5 2.25H6.5ZM18.75 13.25V5C18.75 4.30964 18.1904 3.75 17.5 3.75H6.5C5.80964 3.75 5.25 4.30964 5.25 5V19C5.25 19.6904 5.80964 20.25 6.5 20.25H11.75V15C11.75 14.0335 12.5335 13.25 13.5 13.25H18.75ZM13.25 20.0445C13.3264 19.9942 13.3976 19.9354 13.4621 19.8686L18.3989 14.7602C18.4021 14.7568 18.4054 14.7534 18.4086 14.75H13.5C13.3619 14.75 13.25 14.8619 13.25 15V20.0445Z" fill="#212121"/>
</svg>
