<svg width="24" height="24" viewBox="0 0 24 24" fill="none" xmlns="http://www.w3.org/2000/svg">
<path fill-rule="evenodd" clip-rule="evenodd" d="M12 2.25C8.27208 2.25 5.25 5.27208 5.25 9C5.25 11.3413 6.44235 13.4033 8.25 14.6132V17C8.25 17.4142 8.58579 17.75 9 17.75H15C15.4142 17.75 15.75 17.4142 15.75 17V14.6132C17.5576 13.4033 18.75 11.3413 18.75 9C18.75 5.27208 15.7279 2.25 12 2.25ZM6.75 9C6.75 6.10051 9.10051 3.75 12 3.75C14.8995 3.75 17.25 6.10051 17.25 9C17.25 10.9423 16.1956 12.6392 14.6245 13.5481C14.3927 13.6822 14.25 13.9296 14.25 14.1973V16.25H9.75V14.1973C9.75 13.9296 9.60729 13.6822 9.37554 13.5481C7.80436 12.6392 6.75 10.9423 6.75 9Z" fill="#212121"/>
<path d="M9 19.25C8.58579 19.25 8.25 19.5858 8.25 20C8.25 20.4142 8.58579 20.75 9 20.75H15C15.4142 20.75 15.75 20.4142 15.75 20C15.75 19.5858 15.4142 19.25 15 19.25H9Z" fill="#212121"/>
</svg>
