<svg width="24" height="24" viewBox="0 0 24 24" fill="none" xmlns="http://www.w3.org/2000/svg">
<path fill-rule="evenodd" clip-rule="evenodd" d="M5 5.25C3.48122 5.25 2.25 6.48122 2.25 8V16C2.25 17.5188 3.48122 18.75 5 18.75H19C20.5188 18.75 21.75 17.5188 21.75 16V8C21.75 6.48122 20.5188 5.25 19 5.25H5ZM3.75 8C3.75 7.30964 4.30964 6.75 5 6.75H19C19.6904 6.75 20.25 7.30964 20.25 8V8.05878L12.607 12.3049C12.2295 12.5146 11.7704 12.5146 11.3929 12.3049L3.75 8.05881V8ZM3.75 9.77475V16C3.75 16.6904 4.30964 17.25 5 17.25H19C19.6904 17.25 20.25 16.6904 20.25 16V9.77472L13.3355 13.6161C12.5049 14.0775 11.495 14.0775 10.6645 13.6161L3.75 9.77475Z" fill="#212121"/>
</svg>
