<svg width="24" height="24" viewBox="0 0 24 24" fill="none" xmlns="http://www.w3.org/2000/svg">
<path fill-rule="evenodd" clip-rule="evenodd" d="M12 1.25C9.37665 1.25 7.25 3.37665 7.25 6V8.25H3.68049C2.59909 8.25 1.77652 9.22102 1.9543 10.2877L3.62096 20.2877C3.7616 21.1315 4.49168 21.75 5.34715 21.75H18.6529C19.5084 21.75 20.2385 21.1315 20.3791 20.2877L22.0458 10.2877C22.2235 9.22102 21.401 8.25 20.3196 8.25H16.75V6C16.75 3.37665 14.6234 1.25 12 1.25ZM15.25 8.25V6C15.25 4.20507 13.7949 2.75 12 2.75C10.2051 2.75 8.75 4.20507 8.75 6V8.25H15.25ZM3.43389 10.0411C3.40849 9.88872 3.526 9.75 3.68049 9.75H20.3196C20.4741 9.75 20.5916 9.88872 20.5662 10.0411L18.8995 20.0411C18.8794 20.1616 18.7751 20.25 18.6529 20.25H5.34715C5.22494 20.25 5.12065 20.1616 5.10055 20.0411L3.43389 10.0411Z" fill="#212121"/>
</svg>
