<svg width="24" height="24" viewBox="0 0 24 24" fill="none" xmlns="http://www.w3.org/2000/svg">
<path d="M12 12.75C11.3096 12.75 10.75 13.3096 10.75 14C10.75 14.6904 11.3096 15.25 12 15.25C12.6904 15.25 13.25 14.6904 13.25 14C13.25 13.3096 12.6904 12.75 12 12.75Z" fill="black"/>
<path fill-rule="evenodd" clip-rule="evenodd" d="M12 8.75C12.9665 8.75 13.75 7.9665 13.75 7V3.25H14.5516C15.2033 3.25 15.8338 3.48145 16.3307 3.9031L19.7792 6.82905C20.395 7.35156 20.75 8.11834 20.75 8.92595V18C20.75 19.5188 19.5188 20.75 18 20.75H6C4.48122 20.75 3.25 19.5188 3.25 18V6C3.25 4.48122 4.48122 3.25 6 3.25H6.25L6.25 7C6.25 7.9665 7.0335 8.75 8 8.75L12 8.75ZM9.25 14C9.25 12.4812 10.4812 11.25 12 11.25C13.5188 11.25 14.75 12.4812 14.75 14C14.75 15.5188 13.5188 16.75 12 16.75C10.4812 16.75 9.25 15.5188 9.25 14Z" fill="black"/>
<path d="M7.75 3.25L7.75 7C7.75 7.13807 7.86193 7.25 8 7.25L12 7.25C12.1381 7.25 12.25 7.13807 12.25 7V3.25H7.75Z" fill="black"/>
</svg>
