<svg width="24" height="24" viewBox="0 0 24 24" fill="none" xmlns="http://www.w3.org/2000/svg">
<path d="M12 1.75C12.4142 1.75 12.75 2.08579 12.75 2.5V5C12.75 5.41421 12.4142 5.75 12 5.75C11.5858 5.75 11.25 5.41421 11.25 5V2.5C11.25 2.08579 11.5858 1.75 12 1.75Z" fill="#212121"/>
<path fill-rule="evenodd" clip-rule="evenodd" d="M8.25 12C8.25 9.92893 9.92893 8.25 12 8.25C14.0711 8.25 15.75 9.92893 15.75 12C15.75 14.0711 14.0711 15.75 12 15.75C9.92893 15.75 8.25 14.0711 8.25 12ZM12 9.75C10.7574 9.75 9.75 10.7574 9.75 12C9.75 13.2426 10.7574 14.25 12 14.25C13.2426 14.25 14.25 13.2426 14.25 12C14.25 10.7574 13.2426 9.75 12 9.75Z" fill="#212121"/>
<path d="M12.75 19C12.75 18.5858 12.4142 18.25 12 18.25C11.5858 18.25 11.25 18.5858 11.25 19V21.5C11.25 21.9142 11.5858 22.25 12 22.25C12.4142 22.25 12.75 21.9142 12.75 21.5V19Z" fill="#212121"/>
<path d="M22.25 12C22.25 12.4142 21.9142 12.75 21.5 12.75H19C18.5858 12.75 18.25 12.4142 18.25 12C18.25 11.5858 18.5858 11.25 19 11.25H21.5C21.9142 11.25 22.25 11.5858 22.25 12Z" fill="#212121"/>
<path d="M5 12.75C5.41421 12.75 5.75 12.4142 5.75 12C5.75 11.5858 5.41421 11.25 5 11.25H2.5C2.08579 11.25 1.75 11.5858 1.75 12C1.75 12.4142 2.08579 12.75 2.5 12.75H5Z" fill="#212121"/>
<path d="M19.2479 4.75213C19.5408 5.04503 19.5408 5.5199 19.2479 5.81279L17.4801 7.58056C17.1872 7.87345 16.7123 7.87345 16.4194 7.58056C16.1265 7.28767 16.1265 6.81279 16.4194 6.5199L18.1872 4.75213C18.4801 4.45924 18.955 4.45924 19.2479 4.75213Z" fill="#212121"/>
<path d="M7.58056 17.4801C7.87346 17.1872 7.87346 16.7123 7.58056 16.4194C7.28767 16.1265 6.8128 16.1265 6.5199 16.4194L4.75214 18.1872C4.45924 18.4801 4.45924 18.9549 4.75214 19.2478C5.04503 19.5407 5.5199 19.5407 5.8128 19.2478L7.58056 17.4801Z" fill="#212121"/>
<path d="M19.2479 19.2479C18.955 19.5408 18.4801 19.5408 18.1872 19.2479L16.4194 17.4801C16.1265 17.1872 16.1265 16.7123 16.4194 16.4194C16.7123 16.1265 17.1872 16.1265 17.4801 16.4194L19.2479 18.1872C19.5408 18.4801 19.5408 18.955 19.2479 19.2479Z" fill="#212121"/>
<path d="M6.51991 7.58059C6.8128 7.87349 7.28768 7.87349 7.58057 7.58059C7.87346 7.2877 7.87346 6.81283 7.58057 6.51993L5.8128 4.75217C5.51991 4.45927 5.04504 4.45927 4.75214 4.75217C4.45925 5.04506 4.45925 5.51993 4.75214 5.81283L6.51991 7.58059Z" fill="#212121"/>
</svg>
