<svg width="24" height="24" viewBox="0 0 24 24" fill="none" xmlns="http://www.w3.org/2000/svg">
<path d="M12.5303 2.46967C12.2374 2.17678 11.7626 2.17678 11.4697 2.46967L5.96967 7.96967C5.67678 8.26256 5.67678 8.73744 5.96967 9.03033C6.26256 9.32322 6.73744 9.32322 7.03033 9.03033L11.25 4.81066V15C11.25 15.4142 11.5858 15.75 12 15.75C12.4142 15.75 12.75 15.4142 12.75 15V4.81066L16.9697 9.03033C17.2626 9.32322 17.7374 9.32322 18.0303 9.03033C18.3232 8.73744 18.3232 8.26256 18.0303 7.96967L12.5303 2.46967Z" fill="#212121"/>
<path d="M4.25 14C4.25 13.5858 3.91421 13.25 3.5 13.25C3.08579 13.25 2.75 13.5858 2.75 14V18.5C2.75 20.0188 3.98122 21.25 5.5 21.25H18.5C20.0188 21.25 21.25 20.0188 21.25 18.5V14C21.25 13.5858 20.9142 13.25 20.5 13.25C20.0858 13.25 19.75 13.5858 19.75 14V18.5C19.75 19.1904 19.1904 19.75 18.5 19.75H5.5C4.80964 19.75 4.25 19.1904 4.25 18.5V14Z" fill="#212121"/>
</svg>
