<svg width="24" height="24" viewBox="0 0 24 24" fill="none" xmlns="http://www.w3.org/2000/svg">
<path d="M8.75 13C8.75 11.2051 10.2051 9.75 12 9.75C13.7949 9.75 15.25 11.2051 15.25 13C15.25 14.7949 13.7949 16.25 12 16.25C10.2051 16.25 8.75 14.7949 8.75 13Z" fill="#212121"/>
<path fill-rule="evenodd" clip-rule="evenodd" d="M7.1141 2.90678C7.44621 2.49166 7.949 2.25 8.48062 2.25H15.5194C16.051 2.25 16.5538 2.49166 16.8859 2.90678L18.7605 5.25H19.5C21.0188 5.25 22.25 6.48122 22.25 8V19C22.25 20.5188 21.0188 21.75 19.5 21.75H4.5C2.98122 21.75 1.75 20.5188 1.75 19V8C1.75 6.48122 2.98122 5.25 4.5 5.25H5.23953L7.1141 2.90678ZM12 8.25C9.37665 8.25 7.25 10.3766 7.25 13C7.25 15.6234 9.37665 17.75 12 17.75C14.6234 17.75 16.75 15.6234 16.75 13C16.75 10.3766 14.6234 8.25 12 8.25Z" fill="#212121"/>
</svg>
