<svg width="24" height="24" viewBox="0 0 24 24" fill="none" xmlns="http://www.w3.org/2000/svg">
<path fill-rule="evenodd" clip-rule="evenodd" d="M5 3.75C4.30964 3.75 3.75 4.30964 3.75 5V18C3.75 18.6904 4.30964 19.25 5 19.25H19C19.6904 19.25 20.25 18.6904 20.25 18V8C20.25 7.30964 19.6904 6.75 19 6.75H11.4706C11.2465 6.75 11.0341 6.64978 10.8916 6.47678L9.02106 4.20537C8.78362 3.91704 8.42967 3.75 8.05615 3.75H5ZM2.25 5C2.25 3.48122 3.48122 2.25 5 2.25H8.05615C8.87789 2.25 9.65657 2.61748 10.179 3.2518L11.8245 5.25H19C20.5188 5.25 21.75 6.48122 21.75 8V18C21.75 19.5188 20.5188 20.75 19 20.75H5C3.48122 20.75 2.25 19.5188 2.25 18V5Z" fill="#212121"/>
</svg>
