<svg width="24" height="24" viewBox="0 0 24 24" fill="none" xmlns="http://www.w3.org/2000/svg">
<path fill-rule="evenodd" clip-rule="evenodd" d="M10 2.80554C7.62212 2.80554 5.69446 4.7332 5.69446 7.1111C5.69446 9.48899 7.62212 11.4167 10 11.4167C12.3779 11.4167 14.3056 9.48899 14.3056 7.1111C14.3056 4.7332 12.3779 2.80554 10 2.80554ZM7.19446 7.1111C7.19446 5.56163 8.45055 4.30554 10 4.30554C11.5495 4.30554 12.8056 5.56163 12.8056 7.1111C12.8056 8.66056 11.5495 9.91665 10 9.91665C8.45055 9.91665 7.19446 8.66056 7.19446 7.1111Z" fill="#212121"/>
<path d="M23.0303 8.96967C23.3232 9.26256 23.3232 9.73744 23.0303 10.0303L19.5303 13.5303C19.3897 13.671 19.1989 13.75 19 13.75C18.8011 13.75 18.6103 13.671 18.4697 13.5303L16.4697 11.5303C16.1768 11.2374 16.1768 10.7626 16.4697 10.4697C16.7626 10.1768 17.2374 10.1768 17.5303 10.4697L19 11.9393L21.9697 8.96967C22.2626 8.67678 22.7374 8.67678 23.0303 8.96967Z" fill="#212121"/>
<path fill-rule="evenodd" clip-rule="evenodd" d="M1.25 18.4057C1.25 16.2587 3.96002 12.5833 10 12.5833C16.04 12.5833 18.75 16.2587 18.75 18.4057C18.75 19.237 18.1269 19.7599 17.5585 20.0644C16.9621 20.3839 16.1783 20.6057 15.3538 20.7651C13.6908 21.0865 11.6372 21.1945 10 21.1945C8.36282 21.1945 6.30922 21.0865 4.64616 20.7651C3.82169 20.6057 3.03785 20.3839 2.44149 20.0644C1.87314 19.7599 1.25 19.237 1.25 18.4057ZM10 14.0833C4.52083 14.0833 2.75 17.3316 2.75 18.4057C2.75 18.4112 2.75058 18.4149 2.75307 18.4213C2.75609 18.429 2.76508 18.4482 2.78987 18.4783C2.84349 18.5433 2.95232 18.6364 3.14987 18.7422C3.54871 18.9559 4.15911 19.1432 4.93079 19.2923C6.46006 19.5879 8.40645 19.6945 10 19.6945C11.5935 19.6945 13.5399 19.5879 15.0692 19.2923C15.8409 19.1432 16.4513 18.9559 16.8501 18.7422C17.0477 18.6364 17.1565 18.5433 17.2101 18.4783C17.2349 18.4482 17.2439 18.429 17.2469 18.4213C17.2494 18.4149 17.25 18.4112 17.25 18.4057C17.25 17.3316 15.4792 14.0833 10 14.0833Z" fill="#212121"/>
</svg>
