<svg width="24" height="24" viewBox="0 0 24 24" fill="none" xmlns="http://www.w3.org/2000/svg">
<path d="M19.0303 14.4697C18.7374 14.1768 18.2626 14.1768 17.9697 14.4697C17.6768 14.7626 17.6768 15.2374 17.9697 15.5303L19.6893 17.25L15.1085 17.25C14.6775 17.25 14.2769 17.028 14.0485 16.6625L11.1344 12L14.0485 7.3375C14.2769 6.97203 14.6775 6.75 15.1085 6.75L19.6893 6.75L17.9697 8.46967C17.6768 8.76257 17.6768 9.23744 17.9697 9.53033C18.2626 9.82323 18.7374 9.82323 19.0303 9.53033L22.0303 6.53033C22.171 6.38968 22.25 6.19891 22.25 6C22.25 5.80109 22.171 5.61032 22.0303 5.46967L19.0303 2.46967C18.7374 2.17678 18.2626 2.17678 17.9697 2.46967C17.6768 2.76256 17.6768 3.23744 17.9697 3.53033L19.6893 5.25L15.1085 5.25C14.1603 5.25 13.279 5.73846 12.7765 6.54251L10.25 10.5849L7.7235 6.54251C7.22097 5.73846 6.33968 5.25 5.3915 5.25L2.5 5.25C2.08579 5.25 1.75 5.58579 1.75 6C1.75 6.41422 2.08579 6.75 2.5 6.75L5.3915 6.75C5.82249 6.75 6.22308 6.97203 6.4515 7.3375L9.36556 12L6.4515 16.6625C6.22308 17.028 5.82249 17.25 5.39151 17.25L2.5 17.25C2.08579 17.25 1.75 17.5858 1.75 18C1.75 18.4142 2.08579 18.75 2.5 18.75L5.39151 18.75C6.33968 18.75 7.22097 18.2615 7.7235 17.4575L10.25 13.4151L12.7765 17.4575C13.279 18.2616 14.1603 18.75 15.1085 18.75H19.6893L17.9697 20.4697C17.6768 20.7626 17.6768 21.2374 17.9697 21.5303C18.2626 21.8232 18.7374 21.8232 19.0303 21.5303L22.0303 18.5303C22.3232 18.2374 22.3232 17.7626 22.0303 17.4697L19.0303 14.4697Z" fill="#212121"/>
</svg>
