<svg width="24" height="24" viewBox="0 0 24 24" fill="none" xmlns="http://www.w3.org/2000/svg">
<path d="M15.0303 7.53033C15.3232 7.23744 15.3232 6.76256 15.0303 6.46967C14.7374 6.17678 14.2626 6.17678 13.9697 6.46967L11.4697 8.96967C11.1768 9.26256 11.1768 9.73744 11.4697 10.0303L12.6893 11.25L7.67672 16.2626C6.57428 17.365 7.35507 19.25 8.91415 19.25H14.9999C15.1989 19.25 15.3896 19.171 15.5303 19.0303L18 16.5606L18.9697 17.5303C19.2626 17.8232 19.7374 17.8232 20.0303 17.5303L22.5303 15.0303C22.8232 14.7374 22.8232 14.2626 22.5303 13.9697C22.2374 13.6768 21.7626 13.6768 21.4697 13.9697L19.5 15.9393L13.0607 9.5L15.0303 7.53033Z" fill="#212121"/>
<path d="M2 17.75C1.58579 17.75 1.25 18.0858 1.25 18.5C1.25 18.9142 1.58579 19.25 2 19.25H5C5.41421 19.25 5.75 18.9142 5.75 18.5C5.75 18.0858 5.41421 17.75 5 17.75H2Z" fill="#212121"/>
</svg>
