<svg width="24" height="24" viewBox="0 0 24 24" fill="none" xmlns="http://www.w3.org/2000/svg">
<path d="M8 7.25C7.58579 7.25 7.25 7.58579 7.25 8C7.25 8.41421 7.58579 8.75 8 8.75H16C16.4142 8.75 16.75 8.41421 16.75 8C16.75 7.58579 16.4142 7.25 16 7.25H8Z" fill="#212121"/>
<path d="M7.25 12C7.25 11.5858 7.58579 11.25 8 11.25H16C16.4142 11.25 16.75 11.5858 16.75 12C16.75 12.4142 16.4142 12.75 16 12.75H8C7.58579 12.75 7.25 12.4142 7.25 12Z" fill="#212121"/>
<path d="M8 15.25C7.58579 15.25 7.25 15.5858 7.25 16C7.25 16.4142 7.58579 16.75 8 16.75H16C16.4142 16.75 16.75 16.4142 16.75 16C16.75 15.5858 16.4142 15.25 16 15.25H8Z" fill="#212121"/>
<path fill-rule="evenodd" clip-rule="evenodd" d="M6.5 2.25C4.98122 2.25 3.75 3.48122 3.75 5V19C3.75 20.5188 4.98122 21.75 6.5 21.75H17.5C19.0188 21.75 20.25 20.5188 20.25 19V5C20.25 3.48122 19.0188 2.25 17.5 2.25H6.5ZM5.25 5C5.25 4.30964 5.80964 3.75 6.5 3.75H17.5C18.1904 3.75 18.75 4.30964 18.75 5V19C18.75 19.6904 18.1904 20.25 17.5 20.25H6.5C5.80964 20.25 5.25 19.6904 5.25 19V5Z" fill="#212121"/>
</svg>
