<svg width="24" height="24" viewBox="0 0 24 24" fill="none" xmlns="http://www.w3.org/2000/svg">
<path d="M10 2.80554C7.62212 2.80554 5.69446 4.7332 5.69446 7.1111C5.69446 9.48899 7.62212 11.4167 10 11.4167C12.3779 11.4167 14.3056 9.48899 14.3056 7.1111C14.3056 4.7332 12.3779 2.80554 10 2.80554Z" fill="#212121"/>
<path d="M10 12.5833C3.96002 12.5833 1.25 16.2587 1.25 18.4057C1.25 19.237 1.87314 19.7599 2.44149 20.0644C3.03785 20.3839 3.82169 20.6057 4.64616 20.7651C6.30922 21.0865 8.36282 21.1945 10 21.1945C11.6372 21.1945 13.6908 21.0865 15.3538 20.7651C16.1783 20.6057 16.9621 20.3839 17.5585 20.0644C18.1269 19.7599 18.75 19.237 18.75 18.4057C18.75 16.2587 16.04 12.5833 10 12.5833Z" fill="#212121"/>
<path d="M20 7.25C20.4142 7.25 20.75 7.58579 20.75 8V10.25H23C23.4142 10.25 23.75 10.5858 23.75 11C23.75 11.4142 23.4142 11.75 23 11.75H20.75V14C20.75 14.4142 20.4142 14.75 20 14.75C19.5858 14.75 19.25 14.4142 19.25 14V11.75H17C16.5858 11.75 16.25 11.4142 16.25 11C16.25 10.5858 16.5858 10.25 17 10.25H19.25V8C19.25 7.58579 19.5858 7.25 20 7.25Z" fill="#212121"/>
</svg>
