<svg width="24" height="24" viewBox="0 0 24 24" fill="none" xmlns="http://www.w3.org/2000/svg">
<path fill-rule="evenodd" clip-rule="evenodd" d="M20.75 6C20.75 4.48122 19.5188 3.25 18 3.25H6C4.48122 3.25 3.25 4.48122 3.25 6V18C3.25 19.5188 4.48122 20.75 6 20.75H18C19.5188 20.75 20.75 19.5188 20.75 18V6ZM10.4501 19.25H18C18.6904 19.25 19.25 18.6904 19.25 18L19.25 6C19.25 5.30964 18.6904 4.75 18 4.75L10.4501 4.75C10.6419 5.12503 10.75 5.54989 10.75 6L10.75 18C10.75 18.4501 10.6419 18.875 10.4501 19.25ZM8 4.75L6 4.75C5.30964 4.75 4.75 5.30964 4.75 6L4.75 18C4.75 18.6904 5.30964 19.25 6 19.25H8C8.69036 19.25 9.25 18.6904 9.25 18L9.25 6C9.25 5.30964 8.69036 4.75 8 4.75Z" fill="#212121"/>
</svg>
