<svg width="24" height="24" viewBox="0 0 24 24" fill="none" xmlns="http://www.w3.org/2000/svg">
<path fill-rule="evenodd" clip-rule="evenodd" d="M12.3354 1.32918C12.1029 1.21293 11.8268 1.22536 11.6057 1.36201C11.3846 1.49867 11.25 1.74007 11.25 2V11.2648C8.96569 11.3553 6.88234 11.8563 5.30063 12.6472C3.59222 13.5014 2.25 14.8202 2.25 16.5C2.25 18.1798 3.59222 19.4986 5.30063 20.3528C7.0539 21.2294 9.42353 21.75 12 21.75C14.5765 21.75 16.9461 21.2294 18.6994 20.3528C20.4078 19.4986 21.75 18.1798 21.75 16.5C21.75 14.8202 20.4078 13.5014 18.6994 12.6472C17.1177 11.8563 15.0343 11.3553 12.75 11.2648V7.46353L17.3354 5.17082C17.5895 5.04378 17.75 4.78408 17.75 4.5C17.75 4.21592 17.5895 3.95622 17.3354 3.82918L12.3354 1.32918ZM11.25 12.7661V14.5C11.25 14.9142 11.5858 15.25 12 15.25C12.4142 15.25 12.75 14.9142 12.75 14.5V12.7661C14.8375 12.8559 16.6835 13.3163 18.0286 13.9888C19.5775 14.7633 20.25 15.6945 20.25 16.5C20.25 17.3055 19.5775 18.2367 18.0286 19.0112C16.5245 19.7632 14.3941 20.25 12 20.25C9.60591 20.25 7.47554 19.7632 5.97145 19.0112C4.4225 18.2367 3.75 17.3055 3.75 16.5C3.75 15.6945 4.4225 14.7633 5.97145 13.9888C7.31654 13.3163 9.16248 12.8559 11.25 12.7661ZM15.3229 4.5L12.75 5.78648V3.21353L15.3229 4.5Z" fill="#212121"/>
</svg>
