<svg width="24" height="24" viewBox="0 0 24 24" fill="none" xmlns="http://www.w3.org/2000/svg">
<path fill-rule="evenodd" clip-rule="evenodd" d="M12 11.25C10.4812 11.25 9.25 12.4812 9.25 14C9.25 15.5188 10.4812 16.75 12 16.75C13.5188 16.75 14.75 15.5188 14.75 14C14.75 12.4812 13.5188 11.25 12 11.25ZM10.75 14C10.75 13.3096 11.3096 12.75 12 12.75C12.6904 12.75 13.25 13.3096 13.25 14C13.25 14.6904 12.6904 15.25 12 15.25C11.3096 15.25 10.75 14.6904 10.75 14Z" fill="black"/>
<path fill-rule="evenodd" clip-rule="evenodd" d="M14.5516 3.25H6C4.48122 3.25 3.25 4.48122 3.25 6V18C3.25 19.5188 4.48122 20.75 6 20.75H18C19.5188 20.75 20.75 19.5188 20.75 18V8.92595C20.75 8.11834 20.395 7.35156 19.7792 6.82905L16.3307 3.9031C15.8338 3.48145 15.2033 3.25 14.5516 3.25ZM19.25 18L19.25 8.92595C19.25 8.55885 19.0886 8.21032 18.8087 7.97281L15.3603 5.04686C15.1344 4.85521 14.8478 4.75 14.5516 4.75H13.75L13.75 7C13.75 7.9665 12.9665 8.75 12 8.75L8 8.75C7.0335 8.75 6.25 7.9665 6.25 7L6.25 4.75H6C5.30964 4.75 4.75 5.30964 4.75 6L4.75 18C4.75 18.6904 5.30964 19.25 6 19.25L18 19.25C18.6904 19.25 19.25 18.6904 19.25 18ZM7.75 7L7.75 4.75L12.25 4.75V7C12.25 7.13807 12.1381 7.25 12 7.25L8 7.25C7.86193 7.25 7.75 7.13807 7.75 7Z" fill="black"/>
</svg>
