<svg width="24" height="24" viewBox="0 0 24 24" fill="none" xmlns="http://www.w3.org/2000/svg">
<path fill-rule="evenodd" clip-rule="evenodd" d="M12 23C18.0751 23 23 18.0751 23 12C23 5.92487 18.0751 1 12 1C5.92487 1 1 5.92487 1 12C1 18.0751 5.92487 23 12 23ZM12.75 6C12.75 5.58579 12.4142 5.25 12 5.25C11.5858 5.25 11.25 5.58579 11.25 6V11.6893L6.96967 15.9697C6.67678 16.2626 6.67678 16.7374 6.96967 17.0303C7.26256 17.3232 7.73744 17.3232 8.03033 17.0303L12.5303 12.5303C12.671 12.3897 12.75 12.1989 12.75 12V6Z" fill="#212121"/>
</svg>
