<svg width="24" height="24" viewBox="0 0 24 24" fill="none" xmlns="http://www.w3.org/2000/svg">
<path d="M16.0303 16.0303C15.7374 16.3232 15.2626 16.3232 14.9697 16.0303L12 13.0607L9.03033 16.0303C8.73744 16.3232 8.26256 16.3232 7.96967 16.0303C7.67678 15.7374 7.67678 15.2626 7.96967 14.9697L10.9393 12L7.96967 9.03033C7.67678 8.73744 7.67678 8.26256 7.96967 7.96967C8.26256 7.67678 8.73744 7.67678 9.03033 7.96967L12 10.9393L14.9697 7.96967C15.2626 7.67677 15.7374 7.67677 16.0303 7.96967C16.3232 8.26256 16.3232 8.73744 16.0303 9.03033L13.0607 12L16.0303 14.9697C16.3232 15.2626 16.3232 15.7374 16.0303 16.0303Z" fill="#212121"/>
<path fill-rule="evenodd" clip-rule="evenodd" d="M1.25 12C1.25 6.06294 6.06294 1.25 12 1.25C17.9371 1.25 22.75 6.06294 22.75 12C22.75 17.9371 17.9371 22.75 12 22.75C6.06294 22.75 1.25 17.9371 1.25 12ZM12 2.75C6.89137 2.75 2.75 6.89137 2.75 12C2.75 17.1086 6.89137 21.25 12 21.25C17.1086 21.25 21.25 17.1086 21.25 12C21.25 6.89137 17.1086 2.75 12 2.75Z" fill="#212121"/>
</svg>
