<svg width="24" height="24" viewBox="0 0 24 24" fill="none" xmlns="http://www.w3.org/2000/svg">
<path fill-rule="evenodd" clip-rule="evenodd" d="M18 2.25C17.0335 2.25 16.25 3.0335 16.25 4V20C16.25 20.9665 17.0335 21.75 18 21.75H20.5C21.4665 21.75 22.25 20.9665 22.25 20V4C22.25 3.0335 21.4665 2.25 20.5 2.25H18ZM17.75 4C17.75 3.86193 17.8619 3.75 18 3.75H20.5C20.6381 3.75 20.75 3.86193 20.75 4V20C20.75 20.1381 20.6381 20.25 20.5 20.25H18C17.8619 20.25 17.75 20.1381 17.75 20V4Z" fill="#212121"/>
<path fill-rule="evenodd" clip-rule="evenodd" d="M9 9C9 8.0335 9.7835 7.25 10.75 7.25H13.25C14.2165 7.25 15 8.0335 15 9V20C15 20.9665 14.2165 21.75 13.25 21.75H10.75C9.7835 21.75 9 20.9665 9 20V9ZM10.75 8.75C10.6119 8.75 10.5 8.86193 10.5 9V20C10.5 20.1381 10.6119 20.25 10.75 20.25H13.25C13.3881 20.25 13.5 20.1381 13.5 20V9C13.5 8.86193 13.3881 8.75 13.25 8.75H10.75Z" fill="#212121"/>
<path fill-rule="evenodd" clip-rule="evenodd" d="M1.75 14C1.75 13.0335 2.5335 12.25 3.5 12.25H6C6.9665 12.25 7.75 13.0335 7.75 14V20C7.75 20.9665 6.9665 21.75 6 21.75H3.5C2.5335 21.75 1.75 20.9665 1.75 20V14ZM3.5 13.75C3.36193 13.75 3.25 13.8619 3.25 14V20C3.25 20.1381 3.36193 20.25 3.5 20.25H6C6.13807 20.25 6.25 20.1381 6.25 20V14C6.25 13.8619 6.13807 13.75 6 13.75H3.5Z" fill="#212121"/>
</svg>
