<svg width="24" height="24" viewBox="0 0 24 24" fill="none" xmlns="http://www.w3.org/2000/svg">
<path d="M12 13.25C12.4142 13.25 12.75 13.5858 12.75 14V17C12.75 17.4142 12.4142 17.75 12 17.75C11.5858 17.75 11.25 17.4142 11.25 17V14C11.25 13.5858 11.5858 13.25 12 13.25Z" fill="#212121"/>
<path fill-rule="evenodd" clip-rule="evenodd" d="M12 1.25C8.82436 1.25 6.25 3.82436 6.25 7V9.25H6C4.48122 9.25 3.25 10.4812 3.25 12V19C3.25 20.5188 4.48122 21.75 6 21.75H18C19.5188 21.75 20.75 20.5188 20.75 19V12C20.75 10.4812 19.5188 9.25 18 9.25H17.75V7C17.75 3.82436 15.1756 1.25 12 1.25ZM16.25 9.25V7C16.25 4.65279 14.3472 2.75 12 2.75C9.65279 2.75 7.75 4.65279 7.75 7V9.25H16.25ZM6 10.75C5.30964 10.75 4.75 11.3096 4.75 12V19C4.75 19.6904 5.30964 20.25 6 20.25H18C18.6904 20.25 19.25 19.6904 19.25 19V12C19.25 11.3096 18.6904 10.75 18 10.75H6Z" fill="#212121"/>
</svg>
