<svg width="24" height="24" viewBox="0 0 24 24" fill="none" xmlns="http://www.w3.org/2000/svg">
<path d="M16.2374 2.17675C15.554 1.49333 14.4459 1.49333 13.7625 2.17675L11.4991 4.44014C11.5097 4.44962 11.5201 4.45945 11.5303 4.46964L18.0303 10.9696C18.0405 10.9798 18.0503 10.9902 18.0598 11.0008L20.3232 8.73741C21.0066 8.05399 21.0066 6.94595 20.3232 6.26253L16.2374 2.17675Z" fill="#212121"/>
<path d="M4.22863 11.7106L10.4402 5.49909C10.4496 5.5097 10.4595 5.52011 10.4697 5.5303L16.9697 12.0303C16.9798 12.0405 16.9902 12.0503 17.0008 12.0598L10.7893 18.2713C10.4966 18.564 10.1097 18.7434 9.69718 18.7778L5.23996 19.1492C4.1615 19.2391 3.2608 18.3384 3.35068 17.26L3.72211 12.8027C3.75648 12.3902 3.93595 12.0033 4.22863 11.7106Z" fill="#212121"/>
<path d="M2 21.25C1.58579 21.25 1.25 21.5858 1.25 22C1.25 22.4142 1.58579 22.75 2 22.75H22C22.4142 22.75 22.75 22.4142 22.75 22C22.75 21.5858 22.4142 21.25 22 21.25H2Z" fill="#212121"/>
</svg>
