<svg width="24" height="24" viewBox="0 0 24 24" fill="none" xmlns="http://www.w3.org/2000/svg">
<path d="M16.0303 1.46967C15.7374 1.17678 15.2626 1.17678 14.9697 1.46967C14.6768 1.76256 14.6768 2.23744 14.9697 2.53033L18.1893 5.75H4C3.58579 5.75 3.25 6.08579 3.25 6.5C3.25 6.91421 3.58579 7.25 4 7.25H18.1893L14.9697 10.4697C14.6768 10.7626 14.6768 11.2374 14.9697 11.5303C15.2626 11.8232 15.7374 11.8232 16.0303 11.5303L20.5303 7.03033C20.8232 6.73744 20.8232 6.26256 20.5303 5.96967L16.0303 1.46967Z" fill="#212121"/>
<path d="M5.81066 18.25L9.03033 21.4697C9.32322 21.7626 9.32322 22.2374 9.03033 22.5303C8.73744 22.8232 8.26256 22.8232 7.96967 22.5303L3.46967 18.0303C3.17678 17.7374 3.17678 17.2626 3.46967 16.9697L7.96967 12.4697C8.26256 12.1768 8.73744 12.1768 9.03033 12.4697C9.32322 12.7626 9.32322 13.2374 9.03033 13.5303L5.81066 16.75L20 16.75C20.4142 16.75 20.75 17.0858 20.75 17.5C20.75 17.9142 20.4142 18.25 20 18.25L5.81066 18.25Z" fill="#212121"/>
</svg>
