<svg width="24" height="24" viewBox="0 0 24 24" fill="none" xmlns="http://www.w3.org/2000/svg">
<path d="M20.25 4C20.25 3.58579 19.9142 3.25 19.5 3.25C19.0858 3.25 18.75 3.58579 18.75 4V13C18.75 13.6904 18.1904 14.25 17.5 14.25H5.31066L10.0303 9.53033C10.3232 9.23744 10.3232 8.76256 10.0303 8.46967C9.73744 8.17678 9.26256 8.17678 8.96967 8.46967L2.96967 14.4697C2.67678 14.7626 2.67678 15.2374 2.96967 15.5303L8.96967 21.5303C9.26256 21.8232 9.73744 21.8232 10.0303 21.5303C10.3232 21.2374 10.3232 20.7626 10.0303 20.4697L5.31066 15.75H17.5C19.0188 15.75 20.25 14.5188 20.25 13V4Z" fill="#212121"/>
</svg>
