<svg width="24" height="24" viewBox="0 0 24 24" fill="none" xmlns="http://www.w3.org/2000/svg">
<path d="M3.25 6C3.25 4.48122 4.48122 3.25 6 3.25H8.54C8.95421 3.25 9.29 3.58579 9.29 4C9.29 4.41421 8.95421 4.75 8.54 4.75H6C5.30964 4.75 4.75 5.30964 4.75 6V8.54C4.75 8.95421 4.41421 9.29 4 9.29C3.58579 9.29 3.25 8.95421 3.25 8.54V6Z" fill="#212121"/>
<path d="M20.75 18C20.75 19.5188 19.5188 20.75 18 20.75H15.46C15.0458 20.75 14.71 20.4142 14.71 20C14.71 19.5858 15.0458 19.25 15.46 19.25H18C18.6904 19.25 19.25 18.6904 19.25 18V15.46C19.25 15.0458 19.5858 14.71 20 14.71C20.4142 14.71 20.75 15.0458 20.75 15.46V18Z" fill="#212121"/>
<path d="M20.75 6C20.75 4.48122 19.5188 3.25 18 3.25H15.46C15.0458 3.25 14.71 3.58579 14.71 4C14.71 4.41421 15.0458 4.75 15.46 4.75L18 4.75C18.6904 4.75 19.25 5.30964 19.25 6V8.54C19.25 8.95421 19.5858 9.29 20 9.29C20.4142 9.29 20.75 8.95421 20.75 8.54V6Z" fill="#212121"/>
<path d="M6 20.75C4.48122 20.75 3.25 19.5188 3.25 18L3.25 15.46C3.25 15.0458 3.58579 14.71 4 14.71C4.41421 14.71 4.75 15.0458 4.75 15.46L4.75 18C4.75 18.6904 5.30964 19.25 6 19.25H8.54C8.95421 19.25 9.29 19.5858 9.29 20C9.29 20.4142 8.95421 20.75 8.54 20.75H6Z" fill="#212121"/>
<path d="M3 11.25C2.58579 11.25 2.25 11.5858 2.25 12C2.25 12.4142 2.58579 12.75 3 12.75H21C21.4142 12.75 21.75 12.4142 21.75 12C21.75 11.5858 21.4142 11.25 21 11.25H3Z" fill="#212121"/>
</svg>
