<svg width="24" height="24" viewBox="0 0 24 24" fill="none" xmlns="http://www.w3.org/2000/svg">
<path fill-rule="evenodd" clip-rule="evenodd" d="M12 2.25C9.37665 2.25 7.25 4.37665 7.25 7C7.25 9.62335 9.37665 11.75 12 11.75C14.6234 11.75 16.75 9.62335 16.75 7C16.75 4.37665 14.6234 2.25 12 2.25ZM8.75 7C8.75 5.20507 10.2051 3.75 12 3.75C13.7949 3.75 15.25 5.20507 15.25 7C15.25 8.79493 13.7949 10.25 12 10.25C10.2051 10.25 8.75 8.79493 8.75 7Z" fill="#212121"/>
<path fill-rule="evenodd" clip-rule="evenodd" d="M12 13.25C5.24007 13.25 2.25 17.3581 2.25 19.7063C2.25 20.588 2.9104 21.152 3.54095 21.4898C4.19951 21.8427 5.07049 22.09 5.99472 22.2687C7.8573 22.6286 10.1609 22.75 12 22.75C13.8391 22.75 16.1427 22.6286 18.0053 22.2687C18.9295 22.09 19.8005 21.8427 20.459 21.4898C21.0896 21.152 21.75 20.588 21.75 19.7063C21.75 17.3581 18.7599 13.25 12 13.25ZM3.75 19.7063C3.75 18.4309 5.80088 14.75 12 14.75C18.1991 14.75 20.25 18.4309 20.25 19.7063C20.25 19.7302 20.2397 19.9056 19.7507 20.1676C19.2896 20.4146 18.5921 20.6275 17.7206 20.7959C15.9919 21.13 13.7955 21.25 12 21.25C10.2045 21.25 8.00813 21.13 6.27935 20.7959C5.40791 20.6275 4.71037 20.4146 4.24933 20.1676C3.76028 19.9056 3.75 19.7302 3.75 19.7063Z" fill="#212121"/>
</svg>
