<svg width="24" height="24" viewBox="0 0 24 24" fill="none" xmlns="http://www.w3.org/2000/svg">
<path d="M18.904 2.67675C18.2206 1.99333 17.1126 1.99333 16.4292 2.67675L15.2272 3.87872L20.1212 8.77272L21.3232 7.57074C22.0066 6.88732 22.0066 5.77929 21.3232 5.09587L18.904 2.67675Z" fill="#212121"/>
<path d="M10.0771 9.0288L14.1665 4.93938L19.0605 9.83338L14.9711 13.9228C14.6784 14.2155 14.2915 14.3949 13.879 14.4293L11.24 14.6492C10.1615 14.7391 9.2608 13.8384 9.35068 12.7599L9.5706 10.1209C9.60497 9.70843 9.78443 9.32148 10.0771 9.0288Z" fill="#212121"/>
<path d="M4.25 5.49997C4.25 4.80961 4.80964 4.24997 5.5 4.24997H10.5C10.9142 4.24997 11.25 3.91418 11.25 3.49997C11.25 3.08576 10.9142 2.74997 10.5 2.74997H5.5C3.98122 2.74997 2.75 3.98119 2.75 5.49997V18.5C2.75 20.0188 3.98122 21.25 5.5 21.25H18.5C20.0188 21.25 21.25 20.0188 21.25 18.5V13.5C21.25 13.0858 20.9142 12.75 20.5 12.75C20.0858 12.75 19.75 13.0858 19.75 13.5V18.5C19.75 19.1903 19.1904 19.75 18.5 19.75H5.5C4.80964 19.75 4.25 19.1903 4.25 18.5V5.49997Z" fill="#212121"/>
</svg>
