<svg width="24" height="24" viewBox="0 0 24 24" fill="none" xmlns="http://www.w3.org/2000/svg">
<path d="M7.75 2.25H6.5C4.98122 2.25 3.75 3.48122 3.75 5V19C3.75 20.5188 4.98122 21.75 6.5 21.75H7.75V2.25Z" fill="#212121"/>
<path fill-rule="evenodd" clip-rule="evenodd" d="M9.25 21.75H17.5C19.0188 21.75 20.25 20.5188 20.25 19V5C20.25 3.48122 19.0188 2.25 17.5 2.25H9.25V21.75ZM10.75 7C10.75 6.58579 11.0858 6.25 11.5 6.25H16.5C16.9142 6.25 17.25 6.58579 17.25 7C17.25 7.41421 16.9142 7.75 16.5 7.75H11.5C11.0858 7.75 10.75 7.41421 10.75 7ZM11.5 9.25C11.0858 9.25 10.75 9.58579 10.75 10C10.75 10.4142 11.0858 10.75 11.5 10.75H13.5C13.9142 10.75 14.25 10.4142 14.25 10C14.25 9.58579 13.9142 9.25 13.5 9.25H11.5Z" fill="#212121"/>
</svg>
