<svg width="24" height="24" viewBox="0 0 24 24" fill="none" xmlns="http://www.w3.org/2000/svg">
<path d="M14.75 13.25V7.25H18.382C19.0448 7.25 19.6508 7.6245 19.9472 8.21738L22.4635 13.25H14.75Z" fill="black"/>
<path fill-rule="evenodd" clip-rule="evenodd" d="M13 4.25C13.0849 4.25 13.1683 4.25604 13.25 4.26772V19.75H8.64648C8.32002 20.9043 7.25878 21.75 6 21.75C4.74122 21.75 3.67998 20.9043 3.35352 19.75H3C2.0335 19.75 1.25 18.9665 1.25 18V6C1.25 5.0335 2.0335 4.25 3 4.25H13ZM6 17.75C5.30964 17.75 4.75 18.3096 4.75 19C4.75 19.6904 5.30964 20.25 6 20.25C6.69036 20.25 7.25 19.6904 7.25 19C7.25 18.3096 6.69036 17.75 6 17.75Z" fill="black"/>
<path fill-rule="evenodd" clip-rule="evenodd" d="M15.3535 19.75H14.75V14.75H22.75V18C22.75 18.9665 21.9665 19.75 21 19.75H20.6465C20.32 20.9043 19.2588 21.75 18 21.75C16.7412 21.75 15.68 20.9043 15.3535 19.75ZM18 17.75C17.3096 17.75 16.75 18.3096 16.75 19C16.75 19.6904 17.3096 20.25 18 20.25C18.6904 20.25 19.25 19.6904 19.25 19C19.25 18.3096 18.6904 17.75 18 17.75Z" fill="black"/>
</svg>
