<svg width="24" height="24" viewBox="0 0 24 24" fill="none" xmlns="http://www.w3.org/2000/svg">
<path d="M18.5303 1.96967C18.2374 1.67678 17.7626 1.67678 17.4697 1.96967C17.1768 2.26256 17.1768 2.73744 17.4697 3.03033L18.6893 4.25H10C5.99594 4.25 2.75 7.49594 2.75 11.5C2.75 11.9142 3.08579 12.25 3.5 12.25C3.91421 12.25 4.25 11.9142 4.25 11.5C4.25 8.32436 6.82436 5.75 10 5.75H18.6893L17.4697 6.96967C17.1768 7.26256 17.1768 7.73744 17.4697 8.03033C17.7626 8.32322 18.2374 8.32322 18.5303 8.03033L21.0303 5.53033C21.3232 5.23744 21.3232 4.76256 21.0303 4.46967L18.5303 1.96967Z" fill="#212121"/>
<path d="M6.53033 22.0303C6.23744 22.3232 5.76256 22.3232 5.46967 22.0303L2.96967 19.5303C2.67678 19.2374 2.67678 18.7626 2.96967 18.4697L5.46967 15.9697C5.76256 15.6768 6.23744 15.6768 6.53033 15.9697C6.82322 16.2626 6.82322 16.7374 6.53033 17.0303L5.31066 18.25H14C17.1756 18.25 19.75 15.6756 19.75 12.5C19.75 12.0858 20.0858 11.75 20.5 11.75C20.9142 11.75 21.25 12.0858 21.25 12.5C21.25 16.5041 18.0041 19.75 14 19.75H5.31066L6.53033 20.9697C6.82322 21.2626 6.82322 21.7374 6.53033 22.0303Z" fill="#212121"/>
</svg>
