<svg width="24" height="24" viewBox="0 0 24 24" fill="none" xmlns="http://www.w3.org/2000/svg">
<path d="M15.2625 2.67675C15.9459 1.99333 17.054 1.99333 17.7374 2.67675L21.8232 6.76253C22.5066 7.44595 22.5066 8.55399 21.8232 9.23741L19.0597 12.0008C19.0503 11.9902 19.0404 11.9798 19.0303 11.9697L12.5303 5.46967C12.5201 5.45949 12.5097 5.44966 12.4991 5.44018L15.2625 2.67675Z" fill="#212121"/>
<path d="M11.4401 6.49913L3.22863 14.7106C2.93595 15.0033 2.75648 15.3902 2.72211 15.8027L2.35068 20.26C2.2608 21.3384 3.1615 22.2391 4.23996 22.1492L8.69718 21.7778C9.10966 21.7434 9.49661 21.564 9.78929 21.2713L18.0008 13.0598C17.9902 13.0503 17.9798 13.0405 17.9696 13.0303L11.4696 6.53033C11.4594 6.52015 11.4496 6.50974 11.4401 6.49913Z" fill="#212121"/>
</svg>
