<svg width="24" height="24" viewBox="0 0 24 24" fill="none" xmlns="http://www.w3.org/2000/svg">
<path fill-rule="evenodd" clip-rule="evenodd" d="M5 20.75C3.48122 20.75 2.25 19.5188 2.25 18V11.5C2.25 9.98122 3.48122 8.75 5 8.75H7.55203L10.3964 3.46754C10.8002 2.71764 11.5832 2.25 12.4349 2.25C13.7135 2.25 14.75 3.28653 14.75 4.56515V6.75H19.3631C21.1841 6.75 22.5022 8.48793 22.0112 10.2415L19.6312 18.7415C19.2987 19.929 18.2163 20.75 16.9831 20.75H5ZM11.7171 4.17869C11.8593 3.91465 12.135 3.75 12.4349 3.75C12.885 3.75 13.25 4.11495 13.25 4.56515V7.5C13.25 7.91421 13.5858 8.25 14 8.25H19.3631C20.1908 8.25 20.79 9.03997 20.5668 9.83704L18.1868 18.337C18.0356 18.8768 17.5436 19.25 16.9831 19.25H8.75V9.68909L11.7171 4.17869ZM7.25 10.25H5C4.30964 10.25 3.75 10.8096 3.75 11.5V18C3.75 18.6904 4.30964 19.25 5 19.25H7.25V10.25Z" fill="#212121"/>
</svg>
