<svg width="24" height="24" viewBox="0 0 24 24" fill="none" xmlns="http://www.w3.org/2000/svg">
<path d="M14.296 20.6879L15.4761 17.7376C14.5538 18.341 13.5776 18.8651 12.5575 19.3023L11.6813 19.6778C11.3653 19.8132 11.033 19.8818 10.7026 19.8872L11.0626 20.7274C11.6768 22.1604 13.717 22.1355 14.296 20.6879Z" fill="#212121"/>
<path d="M3.31286 12.9776L4.153 13.3376C4.15835 13.0072 4.22697 12.6749 4.36236 12.3589L4.73788 11.4827C5.17506 10.4627 5.69917 9.48645 6.30258 8.56413L3.35229 9.74425C1.90471 10.3233 1.87984 12.3634 3.31286 12.9776Z" fill="#212121"/>
<path d="M14.6623 7.61019C15.1504 7.12203 15.9419 7.12203 16.43 7.61019C16.9182 8.09834 16.9182 8.8898 16.43 9.37795C15.9419 9.86611 15.1504 9.86611 14.6623 9.37795C14.1741 8.8898 14.1741 8.09834 14.6623 7.61019Z" fill="#212121"/>
<path fill-rule="evenodd" clip-rule="evenodd" d="M6.1166 12.0736C6.86129 10.336 7.87981 8.73662 9.1278 7.33377C9.7815 6.59894 10.4982 5.91804 11.2714 5.29944C12.6359 4.20787 14.1489 3.33232 15.7574 2.69484L21.3453 8.28281C20.7079 9.89125 19.8323 11.4043 18.7407 12.7688C18.079 13.596 17.3459 14.3584 16.5518 15.0483C15.1865 16.2345 13.6407 17.2061 11.9666 17.9236L11.0904 18.2991C10.7044 18.4645 10.2604 18.3934 9.94607 18.122L9.94446 18.1206C9.92489 18.1037 9.90583 18.0859 9.88732 18.0674L5.97277 14.1529C5.95377 14.1339 5.93558 14.1143 5.9182 14.0942C5.64678 13.7799 5.57567 13.3358 5.74108 12.9498L6.1166 12.0736ZM17.4907 6.54953C16.4168 5.47558 14.6756 5.47558 13.6016 6.54953C12.5277 7.62347 12.5277 9.36467 13.6016 10.4386C14.6756 11.5126 16.4168 11.5126 17.4907 10.4386C18.5646 9.36467 18.5646 7.62347 17.4907 6.54953Z" fill="#212121"/>
<path d="M21.8861 6.70221L17.338 2.15412C18.2943 1.87717 19.2765 1.68116 20.2744 1.57028L21.3857 1.4468C22.0822 1.36941 22.6708 1.95795 22.5934 2.65447L22.4673 3.78915C22.356 4.77904 22.1609 5.75334 21.8861 6.70221Z" fill="#212121"/>
<path d="M8.99072 19.6457C9.28361 19.3528 9.28361 18.8779 8.99072 18.585C8.69782 18.2921 8.22295 18.2921 7.93006 18.585L5.45518 21.0599C5.16229 21.3528 5.16229 21.8277 5.45518 22.1206C5.74808 22.4135 6.22295 22.4135 6.51584 22.1206L8.99072 19.6457Z" fill="#212121"/>
<path d="M5.45515 16.1102C5.74805 15.8173 5.74805 15.3424 5.45515 15.0495C5.16226 14.7566 4.68739 14.7566 4.39449 15.0495L1.91962 17.5244C1.62673 17.8173 1.62673 18.2922 1.91962 18.585C2.21251 18.8779 2.68739 18.8779 2.98028 18.585L5.45515 16.1102Z" fill="#212121"/>
<path d="M5.80872 18.2315C6.10161 18.5244 6.10161 18.9993 5.80872 19.2922L3.33385 21.767C3.04095 22.0599 2.56608 22.0599 2.27319 21.767C1.98029 21.4741 1.98029 20.9993 2.27319 20.7064L4.74806 18.2315C5.04095 17.9386 5.51583 17.9386 5.80872 18.2315Z" fill="#212121"/>
</svg>
