<svg width="24" height="24" viewBox="0 0 24 24" fill="none" xmlns="http://www.w3.org/2000/svg">
<path fill-rule="evenodd" clip-rule="evenodd" d="M13.591 6.56149C14.6649 5.48755 16.4061 5.48755 17.4801 6.56149C18.554 7.63543 18.554 9.37663 17.4801 10.4506C16.4061 11.5245 14.6649 11.5245 13.591 10.4506C12.5171 9.37663 12.5171 7.63543 13.591 6.56149ZM16.4194 7.62215C15.9313 7.13399 15.1398 7.13399 14.6517 7.62215C14.1635 8.1103 14.1635 8.90176 14.6517 9.38991C15.1398 9.87807 15.9313 9.87807 16.4194 9.38991C16.9076 8.90176 16.9076 8.1103 16.4194 7.62215Z" fill="#212121"/>
<path fill-rule="evenodd" clip-rule="evenodd" d="M16.5559 15.0457C17.35 14.3558 18.0831 13.5933 18.7449 12.7661C20.8149 10.1785 22.1081 7.05654 22.474 3.76308L22.5975 2.65178C22.6749 1.95526 22.0864 1.36672 21.3898 1.44412L20.2785 1.56759C16.9851 1.93353 13.8631 3.22669 11.2755 5.29676C10.4482 5.95861 9.68568 6.69179 8.99572 7.48603L3.35644 9.74174C1.90886 10.3208 1.88399 12.3609 3.31701 12.9751L5.92255 14.0917C5.93985 14.1118 5.95797 14.1313 5.9769 14.1502L9.89145 18.0647C9.91048 18.0838 9.9301 18.102 9.95025 18.1194L11.0668 20.7246C11.6809 22.1576 13.7211 22.1327 14.3001 20.6852L16.5559 15.0457ZM21.0506 2.99104L20.4442 3.05842C19.8036 3.1296 19.17 3.23915 18.5468 3.38575L20.6559 5.49483C20.8025 4.87159 20.912 4.23806 20.9832 3.59744L21.0506 2.99104ZM12.2126 6.46806C13.626 5.33729 15.2139 4.46006 16.9054 3.86568L20.1759 7.13621C19.5816 8.82772 18.7043 10.4156 17.5736 11.829C15.9358 13.8762 13.8205 15.4896 11.4135 16.5277L10.7571 16.809L7.23263 13.2846L7.5211 12.6115C8.55944 10.2114 10.1701 8.10202 12.2126 6.46806ZM11.5706 18.0924L11.9707 17.9209L12.0058 17.9058L14.1667 16.9797L12.9074 20.1281C12.8247 20.3349 12.5332 20.3384 12.4455 20.1337L11.5706 18.0924ZM7.06189 9.8751L6.14332 12.0184L6.12073 12.0709L5.94918 12.4712L3.90789 11.5964C3.70317 11.5086 3.70673 11.2172 3.91352 11.1345L7.06189 9.8751Z" fill="#212121"/>
<path d="M5.45931 15.0469C5.7522 15.3398 5.7522 15.8147 5.45931 16.1076L2.98443 18.5825C2.69154 18.8754 2.21666 18.8754 1.92377 18.5825C1.63088 18.2896 1.63088 17.8147 1.92377 17.5218L4.39865 15.0469C4.69154 14.754 5.16641 14.754 5.45931 15.0469Z" fill="#212121"/>
<path d="M8.99483 18.5823C9.28772 18.8752 9.28772 19.3501 8.99483 19.643L6.51995 22.1179C6.22706 22.4108 5.75219 22.4108 5.45929 22.1179C5.1664 21.825 5.1664 21.3501 5.45929 21.0572L7.93417 18.5823C8.22706 18.2894 8.70193 18.2894 8.99483 18.5823Z" fill="#212121"/>
<path d="M5.81282 19.2895C6.10571 18.9966 6.10571 18.5217 5.81282 18.2288C5.51993 17.9359 5.04505 17.9359 4.75216 18.2288L2.27729 20.7037C1.98439 20.9966 1.98439 21.4715 2.27729 21.7644C2.57018 22.0572 3.04505 22.0572 3.33795 21.7644L5.81282 19.2895Z" fill="#212121"/>
</svg>
