<svg width="24" height="24" viewBox="0 0 24 24" fill="none" xmlns="http://www.w3.org/2000/svg">
<path d="M7.25 2C7.25 1.58579 6.91421 1.25 6.5 1.25C6.08579 1.25 5.75 1.58579 5.75 2V2.75H5.5C3.98122 2.75 2.75 3.98122 2.75 5.5V6.75H21.25V5.5C21.25 3.98122 20.0188 2.75 18.5 2.75H18.25V2C18.25 1.58579 17.9142 1.25 17.5 1.25C17.0858 1.25 16.75 1.58579 16.75 2V2.75H7.25V2Z" fill="#212121"/>
<path d="M21.25 8.25H2.75V19C2.75 20.5188 3.98122 21.75 5.5 21.75H18.5C20.0188 21.75 21.25 20.5188 21.25 19V8.25Z" fill="#212121"/>
</svg>
