<svg width="24" height="24" viewBox="0 0 24 24" fill="none" xmlns="http://www.w3.org/2000/svg">
<path fill-rule="evenodd" clip-rule="evenodd" d="M12 23C18.0751 23 23 18.0751 23 12C23 5.92487 18.0751 1 12 1C5.92487 1 1 5.92487 1 12C1 18.0751 5.92487 23 12 23ZM7.96967 16.0303C7.67678 15.7374 7.67678 15.2626 7.96967 14.9697L10.9393 12L7.96967 9.03033C7.67678 8.73744 7.67678 8.26256 7.96967 7.96967C8.26256 7.67678 8.73744 7.67678 9.03033 7.96967L12 10.9393L14.9697 7.96967C15.2626 7.67678 15.7374 7.67678 16.0303 7.96967C16.3232 8.26256 16.3232 8.73744 16.0303 9.03033L13.0607 12L16.0303 14.9697C16.3232 15.2626 16.3232 15.7374 16.0303 16.0303C15.7374 16.3232 15.2626 16.3232 14.9697 16.0303L12 13.0607L9.03033 16.0303C8.73744 16.3232 8.26256 16.3232 7.96967 16.0303Z" fill="#212121"/>
</svg>
