<svg width="24" height="24" viewBox="0 0 24 24" fill="none" xmlns="http://www.w3.org/2000/svg">
<path d="M9.25 2.25V7.5C9.25 9.01878 10.4812 10.25 12 10.25C13.5188 10.25 14.75 9.01878 14.75 7.5V2.25H9.25Z" fill="#212121"/>
<path d="M7.75 2.25V7.75C7.75 9.13071 6.63071 10.25 5.25 10.25C3.59315 10.25 2.25 8.90685 2.25 7.25V5C2.25 3.48122 3.48122 2.25 5 2.25H7.75Z" fill="#212121"/>
<path d="M2.25 10.6042V19C2.25 20.5188 3.48122 21.75 5 21.75H11.25V16C11.25 15.5858 11.5858 15.25 12 15.25C12.4142 15.25 12.75 15.5858 12.75 16V21.75H19C20.5188 21.75 21.75 20.5188 21.75 19V10.6042C20.9539 11.3167 19.9025 11.75 18.75 11.75C17.3736 11.75 16.1596 11.0548 15.4399 9.99642C14.6673 11.0591 13.4144 11.75 12 11.75C10.5856 11.75 9.33265 11.0591 8.5601 9.99642C7.84041 11.0548 6.62639 11.75 5.25 11.75C4.09747 11.75 3.04613 11.3167 2.25 10.6042Z" fill="#212121"/>
<path d="M21.75 7.25V5C21.75 3.48122 20.5188 2.25 19 2.25H16.25V7.75C16.25 9.13071 17.3693 10.25 18.75 10.25C20.4069 10.25 21.75 8.90685 21.75 7.25Z" fill="#212121"/>
</svg>
