<svg width="24" height="24" viewBox="0 0 24 24" fill="none" xmlns="http://www.w3.org/2000/svg">
<path d="M4.25 10C4.25 5.71979 7.71979 2.25 12 2.25C16.2802 2.25 19.75 5.71979 19.75 10V10.2289C21.7786 10.866 23.25 12.7612 23.25 15C23.25 17.4212 21.529 19.4405 19.2436 19.9013C18.7022 20.0104 18.25 19.5523 18.25 19V10C18.25 6.54822 15.4518 3.75 12 3.75C8.54822 3.75 5.75 6.54822 5.75 10V19C5.75 19.5523 5.29777 20.0104 4.75638 19.9013C2.47096 19.4405 0.75 17.4212 0.75 15C0.75 12.7612 2.22145 10.866 4.25 10.2289V10Z" fill="#212121"/>
</svg>
