<svg width="24" height="24" viewBox="0 0 24 24" fill="none" xmlns="http://www.w3.org/2000/svg">
<path fill-rule="evenodd" clip-rule="evenodd" d="M12 2.75C6.89137 2.75 2.75 6.89137 2.75 12C2.75 17.1086 6.89137 21.25 12 21.25C17.1086 21.25 21.25 17.1086 21.25 12C21.25 6.89137 17.1086 2.75 12 2.75ZM1.25 12C1.25 6.06294 6.06294 1.25 12 1.25C17.9371 1.25 22.75 6.06294 22.75 12C22.75 17.9371 17.9371 22.75 12 22.75C6.06294 22.75 1.25 17.9371 1.25 12Z" fill="#212121"/>
<path fill-rule="evenodd" clip-rule="evenodd" d="M17.0303 8.96967C17.3232 9.26256 17.3232 9.73744 17.0303 10.0303L11.5303 15.5303C11.2374 15.8232 10.7626 15.8232 10.4697 15.5303L6.96967 12.0303C6.67678 11.7374 6.67678 11.2626 6.96967 10.9697C7.26256 10.6768 7.73744 10.6768 8.03033 10.9697L11 13.9393L15.9697 8.96967C16.2626 8.67678 16.7374 8.67678 17.0303 8.96967Z" fill="#212121"/>
</svg>
