<svg width="24" height="24" viewBox="0 0 24 24" fill="none" xmlns="http://www.w3.org/2000/svg">
<path fill-rule="evenodd" clip-rule="evenodd" d="M16.773 7.22702C16.987 7.44112 17.0514 7.76294 16.9361 8.04291L14.4613 14.0533C14.3851 14.2383 14.2382 14.3851 14.0533 14.4613L8.0429 16.9361C7.76293 17.0514 7.4411 16.9871 7.22701 16.773C7.01291 16.5589 6.94855 16.237 7.06383 15.9571L9.5387 9.94666C9.61485 9.76173 9.76171 9.61487 9.94665 9.53872L15.9571 7.06384C16.237 6.94856 16.5589 7.01293 16.773 7.22702ZM10.8067 10.8067L9.1362 14.8638L13.1932 13.1932L10.8067 10.8067Z" fill="#212121"/>
<path fill-rule="evenodd" clip-rule="evenodd" d="M1.25 12C1.25 6.06294 6.06294 1.25 12 1.25C17.9371 1.25 22.75 6.06294 22.75 12C22.75 17.9371 17.9371 22.75 12 22.75C6.06294 22.75 1.25 17.9371 1.25 12ZM12 2.75C6.89137 2.75 2.75 6.89137 2.75 12C2.75 17.1086 6.89137 21.25 12 21.25C17.1086 21.25 21.25 17.1086 21.25 12C21.25 6.89137 17.1086 2.75 12 2.75Z" fill="#212121"/>
</svg>
