<svg width="24" height="24" viewBox="0 0 24 24" fill="none" xmlns="http://www.w3.org/2000/svg">
<path d="M6.46967 12.0303C6.76256 12.3232 7.23744 12.3232 7.53033 12.0303C7.82323 11.7374 7.82322 11.2626 7.53033 10.9697L5.81066 9.25L10.999 9.25C10.9987 9.25 10.9994 9.25 10.999 9.25L15 9.25C17.3472 9.25 19.25 11.1528 19.25 13.5C19.25 15.8472 17.3472 17.75 15 17.75H11C10.5858 17.75 10.25 18.0858 10.25 18.5C10.25 18.9142 10.5858 19.25 11 19.25H15C18.1756 19.25 20.75 16.6756 20.75 13.5C20.75 10.3244 18.1756 7.75 15 7.75H13.0009C13.0006 7.75 13.0011 7.75 13.0009 7.75L5.81066 7.75L7.53033 6.03033C7.82322 5.73744 7.82322 5.26256 7.53033 4.96967C7.23744 4.67678 6.76256 4.67678 6.46967 4.96967L3.46967 7.96967C3.32902 8.11032 3.25 8.30109 3.25 8.5C3.25 8.69891 3.32902 8.88968 3.46967 9.03033L6.46967 12.0303Z" fill="#212121"/>
</svg>
