<svg width="24" height="24" viewBox="0 0 24 24" fill="none" xmlns="http://www.w3.org/2000/svg">
<path d="M16.068 6.8927L9.01615 13.9446C8.53012 14.4306 8.53012 15.2186 9.01615 15.7047C9.50219 16.1907 10.2902 16.1907 10.7762 15.7047L15.7126 10.7683C16.0055 10.4754 16.4803 10.4754 16.7732 10.7683C17.0661 11.0612 17.0661 11.5361 16.7732 11.829L11.8369 16.7653C10.7651 17.8371 9.02732 17.8371 7.95549 16.7653C6.88367 15.6935 6.88367 13.9557 7.95549 12.8839L14.6548 6.18461L14.6589 6.18054L15.0074 5.83204C16.8581 3.98128 19.8588 3.98128 21.7096 5.83203C23.5603 7.68279 23.5603 10.6835 21.7096 12.5342L14.3051 19.9387C11.4807 22.7631 6.90137 22.7631 4.07696 19.9387C1.25255 17.1143 1.25254 12.535 4.07696 9.71056L8.30809 5.47943C8.60099 5.18653 9.07586 5.18653 9.36875 5.47943C9.66165 5.77232 9.66165 6.24719 9.36875 6.54009L5.13762 10.7712C2.89899 13.0098 2.89899 16.6394 5.13762 18.878C7.37625 21.1166 11.0058 21.1166 13.2444 18.878L20.6489 11.4735C20.6498 11.4727 20.6507 11.4718 20.6516 11.4709C21.9139 10.2057 21.913 8.15677 20.6489 6.89269C19.3839 5.62773 17.333 5.62773 16.068 6.8927Z" fill="#212121"/>
</svg>
