<svg width="24" height="24" viewBox="0 0 24 24" fill="none" xmlns="http://www.w3.org/2000/svg">
<path fill-rule="evenodd" clip-rule="evenodd" d="M21.75 12C21.75 12.4142 21.4142 12.75 21 12.75H18C17.5858 12.75 17.25 12.4142 17.25 12C17.25 11.5858 17.5858 11.25 18 11.25H21C21.4142 11.25 21.75 11.5858 21.75 12Z" fill="#616161"/>
<path fill-rule="evenodd" clip-rule="evenodd" d="M6.75 12C6.75 12.4142 6.41421 12.75 6 12.75H3C2.58579 12.75 2.25 12.4142 2.25 12C2.25 11.5858 2.58579 11.25 3 11.25H6C6.41421 11.25 6.75 11.5858 6.75 12Z" fill="#E0E0E0"/>
<path fill-rule="evenodd" clip-rule="evenodd" d="M12 21.75C11.5858 21.75 11.25 21.4142 11.25 21V18C11.25 17.5858 11.5858 17.25 12 17.25C12.4142 17.25 12.75 17.5858 12.75 18V21C12.75 21.4142 12.4142 21.75 12 21.75Z" fill="#9E9E9E"/>
<path fill-rule="evenodd" clip-rule="evenodd" d="M12 6.75C11.5858 6.75 11.25 6.41421 11.25 6V3C11.25 2.58579 11.5858 2.25 12 2.25C12.4142 2.25 12.75 2.58579 12.75 3V6C12.75 6.41421 12.4142 6.75 12 6.75Z" fill="#212121"/>
<path fill-rule="evenodd" clip-rule="evenodd" d="M5.10566 18.8943C4.81276 18.6014 4.81276 18.1265 5.10566 17.8336L7.22698 15.7123C7.51987 15.4194 7.99474 15.4194 8.28764 15.7123C8.58053 16.0052 8.58053 16.4801 8.28764 16.773L6.16632 18.8943C5.87342 19.1872 5.39855 19.1872 5.10566 18.8943Z" fill="#BDBDBD"/>
<path fill-rule="evenodd" clip-rule="evenodd" d="M15.7123 8.28772C15.4195 7.99482 15.4195 7.51995 15.7123 7.22706L17.8337 5.10574C18.1266 4.81284 18.6014 4.81284 18.8943 5.10574C19.1872 5.39863 19.1872 5.8735 18.8943 6.1664L16.773 8.28772C16.4801 8.58061 16.0052 8.58061 15.7123 8.28772Z" fill="#424242"/>
<path fill-rule="evenodd" clip-rule="evenodd" d="M5.10578 5.10566C5.39867 4.81276 5.87355 4.81276 6.16644 5.10566L8.28776 7.22698C8.58065 7.51987 8.58065 7.99474 8.28776 8.28764C7.99486 8.58053 7.51999 8.58053 7.2271 8.28764L5.10578 6.16632C4.81288 5.87342 4.81289 5.39855 5.10578 5.10566Z" fill="#EEEEEE"/>
<path fill-rule="evenodd" clip-rule="evenodd" d="M15.7123 15.7123C16.0052 15.4195 16.4801 15.4195 16.773 15.7123L18.8943 17.8337C19.1872 18.1266 19.1872 18.6014 18.8943 18.8943C18.6014 19.1872 18.1266 19.1872 17.8337 18.8943L15.7123 16.773C15.4195 16.4801 15.4195 16.0052 15.7123 15.7123Z" fill="#757575"/>
</svg>
