<svg width="24" height="24" viewBox="0 0 24 24" fill="none" xmlns="http://www.w3.org/2000/svg">
<path fill-rule="evenodd" clip-rule="evenodd" d="M12 1C5.92487 1 1 5.92487 1 12C1 18.0751 5.92487 23 12 23C18.0751 23 23 18.0751 23 12C23 5.92487 18.0751 1 12 1ZM12.5303 15.4697C12.8232 15.7626 12.8232 16.2374 12.5303 16.5303C12.2374 16.8232 11.7626 16.8232 11.4697 16.5303L7.46967 12.5303C7.17678 12.2374 7.17678 11.7626 7.46967 11.4697L11.4697 7.46967C11.7626 7.17678 12.2374 7.17678 12.5303 7.46967C12.8232 7.76256 12.8232 8.23744 12.5303 8.53033L9.81066 11.25L17 11.25C17.4142 11.25 17.75 11.5858 17.75 12C17.75 12.4142 17.4142 12.75 17 12.75L9.81066 12.75L12.5303 15.4697Z" fill="#212121"/>
</svg>
