<svg width="24" height="24" viewBox="0 0 24 24" fill="none" xmlns="http://www.w3.org/2000/svg">
<path fill-rule="evenodd" clip-rule="evenodd" d="M11.9999 1.25C9.37653 1.25 7.24988 3.37665 7.24988 6V8.25H3.68036C2.59897 8.25 1.7764 9.22102 1.95418 10.2877L3.62084 20.2877C3.76148 21.1315 4.49156 21.75 5.34703 21.75H18.6528C19.5082 21.75 20.2383 21.1315 20.379 20.2877L22.0456 10.2877C22.2234 9.22102 21.4008 8.25 20.3194 8.25H16.7499V6C16.7499 3.37665 14.6232 1.25 11.9999 1.25ZM15.2499 8.25V6C15.2499 4.20507 13.7948 2.75 11.9999 2.75C10.205 2.75 8.74988 4.20507 8.74988 6V8.25H15.2499Z" fill="#212121"/>
</svg>
