<svg width="24" height="24" viewBox="0 0 24 24" fill="none" xmlns="http://www.w3.org/2000/svg">
<path fill-rule="evenodd" clip-rule="evenodd" d="M5.25 12C5.25 11.5858 5.58579 11.25 6 11.25H7.40763L6.78318 9.22055C6.66137 8.82466 6.88356 8.40497 7.27945 8.28315C7.67535 8.16134 8.09504 8.38353 8.21685 8.77942L8.97703 11.25H10.3311L11.3 8.73075C11.4148 8.4323 11.7062 8.23945 12.0258 8.25043C12.3453 8.26141 12.6228 8.4738 12.7169 8.77942L13.477 11.25H14.8311L15.8 8.73075C15.9487 8.34415 16.3826 8.15129 16.7693 8.29998C17.1559 8.44867 17.3487 8.88262 17.2 9.26922L16.4382 11.25H18C18.4142 11.25 18.75 11.5858 18.75 12C18.75 12.4142 18.4142 12.75 18 12.75H15.8613L14.7 15.7692C14.5852 16.0677 14.2938 16.2605 13.9743 16.2495C13.6547 16.2386 13.3772 16.0262 13.2832 15.7206L12.3692 12.75H11.3613L10.2 15.7692C10.0852 16.0677 9.79385 16.2605 9.47427 16.2495C9.15469 16.2386 8.87722 16.0262 8.78318 15.7206L7.86917 12.75H6C5.58579 12.75 5.25 12.4142 5.25 12ZM9.43857 12.75L9.57882 13.2058L9.75414 12.75H9.43857ZM13.9386 12.75L14.0788 13.2058L14.2541 12.75H13.9386Z" fill="#212121"/>
<path fill-rule="evenodd" clip-rule="evenodd" d="M1.25 12C1.25 6.06294 6.06294 1.25 12 1.25C17.9371 1.25 22.75 6.06294 22.75 12C22.75 17.9371 17.9371 22.75 12 22.75C6.06294 22.75 1.25 17.9371 1.25 12ZM12 2.75C6.89137 2.75 2.75 6.89137 2.75 12C2.75 17.1086 6.89137 21.25 12 21.25C17.1086 21.25 21.25 17.1086 21.25 12C21.25 6.89137 17.1086 2.75 12 2.75Z" fill="#212121"/>
</svg>
