<svg width="24" height="24" viewBox="0 0 24 24" fill="none" xmlns="http://www.w3.org/2000/svg">
<path d="M4.80029 8.63923L15.7604 19.5994L21.5941 13.7657C22.6679 12.692 22.6685 10.9511 21.5941 9.87666L14.523 2.80559C13.4485 1.73112 11.7077 1.73181 10.6339 2.80559L4.80029 8.63923Z" fill="#212121"/>
<path fill-rule="evenodd" clip-rule="evenodd" d="M4.26992 20.1296C7.29649 23.1561 12.2035 23.1561 15.2301 20.1296L21.594 13.7656C22.668 12.6917 22.668 10.9505 21.594 9.87652L14.523 2.80546C13.449 1.73151 11.7078 1.73151 10.6339 2.80546L4.26992 9.16942C1.24336 12.196 1.24336 17.103 4.26992 20.1296ZM13.6076 19.5677C11.1549 21.4965 7.59188 21.3302 5.33058 19.0689C3.06928 16.8076 2.903 13.2446 4.83175 10.7919L13.6076 19.5677ZM14.6997 18.5386L20.5334 12.705C21.0215 12.2168 21.0215 11.4253 20.5334 10.9372L13.4623 3.86612C12.9742 3.37796 12.1827 3.37796 11.6945 3.86612L5.86091 9.69975L14.6997 18.5386Z" fill="#212121"/>
</svg>
