<svg width="24" height="24" viewBox="0 0 24 24" fill="none" xmlns="http://www.w3.org/2000/svg">
<path fill-rule="evenodd" clip-rule="evenodd" d="M12 8.25C9.37665 8.25 7.25 10.3766 7.25 13C7.25 15.6234 9.37665 17.75 12 17.75C14.6234 17.75 16.75 15.6234 16.75 13C16.75 10.3766 14.6234 8.25 12 8.25ZM8.75 13C8.75 11.2051 10.2051 9.75 12 9.75C13.7949 9.75 15.25 11.2051 15.25 13C15.25 14.7949 13.7949 16.25 12 16.25C10.2051 16.25 8.75 14.7949 8.75 13Z" fill="#212121"/>
<path fill-rule="evenodd" clip-rule="evenodd" d="M8.48062 2.25C7.949 2.25 7.44621 2.49166 7.1141 2.90678L5.23953 5.25H4.5C2.98122 5.25 1.75 6.48122 1.75 8V19C1.75 20.5188 2.98122 21.75 4.5 21.75H19.5C21.0188 21.75 22.25 20.5188 22.25 19V8C22.25 6.48122 21.0188 5.25 19.5 5.25H18.7605L16.8859 2.90678C16.5538 2.49166 16.051 2.25 15.5194 2.25H8.48062ZM8.28541 3.84383C8.33285 3.78452 8.40468 3.75 8.48062 3.75H15.5194C15.5953 3.75 15.6671 3.78452 15.7146 3.84383L17.8144 6.46852C17.9567 6.64643 18.1722 6.75 18.4 6.75H19.5C20.1904 6.75 20.75 7.30964 20.75 8V19C20.75 19.6904 20.1904 20.25 19.5 20.25H4.5C3.80964 20.25 3.25 19.6904 3.25 19V8C3.25 7.30964 3.80964 6.75 4.5 6.75H5.6C5.82784 6.75 6.04332 6.64643 6.18565 6.46852L8.28541 3.84383Z" fill="#212121"/>
</svg>
