<svg width="24" height="24" viewBox="0 0 24 24" fill="none" xmlns="http://www.w3.org/2000/svg">
<path fill-rule="evenodd" clip-rule="evenodd" d="M5 3.25C4.0335 3.25 3.25 4.0335 3.25 5V19C3.25 19.9665 4.0335 20.75 5 20.75H9C9.9665 20.75 10.75 19.9665 10.75 19V5C10.75 4.0335 9.9665 3.25 9 3.25H5ZM4.75 5C4.75 4.86193 4.86193 4.75 5 4.75H9C9.13807 4.75 9.25 4.86193 9.25 5V19C9.25 19.1381 9.13807 19.25 9 19.25H5C4.86193 19.25 4.75 19.1381 4.75 19V5Z" fill="#212121"/>
<path fill-rule="evenodd" clip-rule="evenodd" d="M15 3.25C14.0335 3.25 13.25 4.0335 13.25 5V19C13.25 19.9665 14.0335 20.75 15 20.75H19C19.9665 20.75 20.75 19.9665 20.75 19V5C20.75 4.0335 19.9665 3.25 19 3.25H15ZM14.75 5C14.75 4.86193 14.8619 4.75 15 4.75H19C19.1381 4.75 19.25 4.86193 19.25 5V19C19.25 19.1381 19.1381 19.25 19 19.25H15C14.8619 19.25 14.75 19.1381 14.75 19V5Z" fill="#212121"/>
</svg>
