<svg width="24" height="24" viewBox="0 0 24 24" fill="none" xmlns="http://www.w3.org/2000/svg">
<path fill-rule="evenodd" clip-rule="evenodd" d="M10.2134 3.39654C10.7932 3.30024 11.3904 3.25 12 3.25C12.6096 3.25 13.2068 3.30024 13.7866 3.39654C14.1952 3.46442 14.4714 3.8507 14.4035 4.25931C14.3356 4.66792 13.9494 4.94414 13.5407 4.87626C13.0421 4.79344 12.5272 4.75 12 4.75C11.4728 4.75 10.9579 4.79344 10.4593 4.87626C10.0506 4.94414 9.66437 4.66792 9.5965 4.25931C9.52861 3.8507 9.80483 3.46442 10.2134 3.39654ZM7.85183 4.86531C8.05472 5.22643 7.92645 5.68365 7.56533 5.88654C6.65021 6.4007 5.86192 7.06695 5.244 7.84006C4.98538 8.16362 4.51344 8.21627 4.18988 7.95765C3.86631 7.69904 3.81367 7.22709 4.07228 6.90353C4.81579 5.9733 5.75464 5.18333 6.8306 4.57881C7.19172 4.37592 7.64894 4.50419 7.85183 4.86531ZM16.1482 4.86531C16.3511 4.50419 16.8083 4.37592 17.1694 4.57881C18.2454 5.18333 19.1842 5.9733 19.9277 6.90353C20.1863 7.22709 20.1337 7.69904 19.8101 7.95765C19.4866 8.21627 19.0146 8.16362 18.756 7.84006C18.1381 7.06695 17.3498 6.4007 16.4347 5.88654C16.0735 5.68365 15.9453 5.22643 16.1482 4.86531ZM3.36581 9.61437C3.76888 9.7098 4.01827 10.1139 3.92283 10.517C3.80959 10.9953 3.75 11.4912 3.75 12C3.75 12.5088 3.80959 13.0047 3.92283 13.483C4.01827 13.8861 3.76888 14.2902 3.36581 14.3856C2.96274 14.4811 2.55862 14.2317 2.46319 13.8286C2.32345 13.2384 2.25 12.6266 2.25 12C2.25 11.3734 2.32345 10.7616 2.46319 10.1714C2.55862 9.76832 2.96274 9.51893 3.36581 9.61437ZM20.6342 9.61437C21.0373 9.51893 21.4414 9.76832 21.5368 10.1714C21.6766 10.7616 21.75 11.3734 21.75 12C21.75 12.6266 21.6766 13.2384 21.5368 13.8286C21.4414 14.2317 21.0373 14.4811 20.6342 14.3856C20.2311 14.2902 19.9817 13.8861 20.0772 13.483C20.1904 13.0047 20.25 12.5088 20.25 12C20.25 11.4912 20.1904 10.9953 20.0772 10.517C19.9817 10.1139 20.2311 9.7098 20.6342 9.61437ZM4.18987 16.0423C4.51344 15.7837 4.98538 15.8364 5.244 16.1599C5.86192 16.933 6.65021 17.5993 7.56533 18.1135C7.92645 18.3164 8.05472 18.7736 7.85183 19.1347C7.64894 19.4958 7.19172 19.6241 6.8306 19.4212C5.75464 18.8167 4.81579 18.0267 4.07228 17.0965C3.81366 16.7729 3.86631 16.301 4.18987 16.0423ZM19.8101 16.0423C20.1337 16.301 20.1863 16.7729 19.9277 17.0965C19.1842 18.0267 18.2454 18.8167 17.1694 19.4212C16.8083 19.6241 16.3511 19.4958 16.1482 19.1347C15.9453 18.7736 16.0735 18.3164 16.4347 18.1135C17.3498 17.5993 18.1381 16.933 18.756 16.1599C19.0146 15.8364 19.4866 15.7837 19.8101 16.0423ZM9.59649 19.7407C9.66437 19.3321 10.0506 19.0559 10.4593 19.1237C10.9579 19.2066 11.4728 19.25 12 19.25C12.5272 19.25 13.0421 19.2066 13.5407 19.1237C13.9494 19.0559 14.3356 19.3321 14.4035 19.7407C14.4714 20.1493 14.1952 20.5356 13.7866 20.6035C13.2068 20.6998 12.6096 20.75 12 20.75C11.3904 20.75 10.7932 20.6998 10.2134 20.6035C9.80483 20.5356 9.52861 20.1493 9.59649 19.7407Z" fill="#212121"/>
</svg>
