<svg width="24" height="24" viewBox="0 0 24 24" fill="none" xmlns="http://www.w3.org/2000/svg">
<path d="M13.25 5C13.25 5.9665 14.0335 6.75 15 6.75C15.9665 6.75 16.75 5.9665 16.75 5C16.75 4.0335 15.9665 3.25 15 3.25C14.0335 3.25 13.25 4.0335 13.25 5Z" fill="#212121"/>
<path d="M7.25 12C7.25 12.9665 8.0335 13.75 9 13.75C9.9665 13.75 10.75 12.9665 10.75 12C10.75 11.0335 9.9665 10.25 9 10.25C8.0335 10.25 7.25 11.0335 7.25 12Z" fill="#212121"/>
<path d="M9 6.75C8.0335 6.75 7.25 5.9665 7.25 5C7.25 4.0335 8.0335 3.25 9 3.25C9.9665 3.25 10.75 4.0335 10.75 5C10.75 5.9665 9.9665 6.75 9 6.75Z" fill="#212121"/>
<path d="M7.25 19C7.25 19.9665 8.0335 20.75 9 20.75C9.9665 20.75 10.75 19.9665 10.75 19C10.75 18.0335 9.9665 17.25 9 17.25C8.0335 17.25 7.25 18.0335 7.25 19Z" fill="#212121"/>
<path d="M15 13.75C14.0335 13.75 13.25 12.9665 13.25 12C13.25 11.0335 14.0335 10.25 15 10.25C15.9665 10.25 16.75 11.0335 16.75 12C16.75 12.9665 15.9665 13.75 15 13.75Z" fill="#212121"/>
<path d="M13.25 19C13.25 19.9665 14.0335 20.75 15 20.75C15.9665 20.75 16.75 19.9665 16.75 19C16.75 18.0335 15.9665 17.25 15 17.25C14.0335 17.25 13.25 18.0335 13.25 19Z" fill="#212121"/>
</svg>
