<svg width="24" height="24" viewBox="0 0 24 24" fill="none" xmlns="http://www.w3.org/2000/svg">
<path fill-rule="evenodd" clip-rule="evenodd" d="M1.25 6C1.25 4.48122 2.48122 3.25 4 3.25H20C21.5188 3.25 22.75 4.48122 22.75 6V9C22.75 9.41421 22.4142 9.75 22 9.75C20.7574 9.75 19.75 10.7574 19.75 12C19.75 13.2426 20.7574 14.25 22 14.25C22.4142 14.25 22.75 14.5858 22.75 15V18C22.75 19.5188 21.5188 20.75 20 20.75H4C2.48122 20.75 1.25 19.5188 1.25 18V15C1.25 14.5858 1.58579 14.25 2 14.25C3.24264 14.25 4.25 13.2426 4.25 12C4.25 10.7574 3.24264 9.75 2 9.75C1.58579 9.75 1.25 9.41421 1.25 9V6ZM4 4.75C3.30964 4.75 2.75 5.30964 2.75 6V8.32501C4.46168 8.67247 5.75 10.1858 5.75 12C5.75 13.8142 4.46168 15.3275 2.75 15.675V18C2.75 18.6904 3.30964 19.25 4 19.25H20C20.6904 19.25 21.25 18.6904 21.25 18V15.675C19.5383 15.3275 18.25 13.8142 18.25 12C18.25 10.1858 19.5383 8.67247 21.25 8.32501V6C21.25 5.30964 20.6904 4.75 20 4.75H4Z" fill="#212121"/>
</svg>
