<svg width="24" height="24" viewBox="0 0 24 24" fill="none" xmlns="http://www.w3.org/2000/svg">
<path d="M17.5303 12.0303C17.2374 12.3232 16.7626 12.3232 16.4697 12.0303C16.1768 11.7374 16.1768 11.2626 16.4697 10.9697L18.1893 9.25L13.001 9.25C13.0006 9.25 13.0013 9.25 13.001 9.25L9 9.25C6.65279 9.25 4.75 11.1528 4.75 13.5C4.75 15.8472 6.65279 17.75 9 17.75H13C13.4142 17.75 13.75 18.0858 13.75 18.5C13.75 18.9142 13.4142 19.25 13 19.25H9C5.82436 19.25 3.25 16.6756 3.25 13.5C3.25 10.3244 5.82436 7.75 9 7.75H10.9991C10.9989 7.75 10.9994 7.75 10.9991 7.75L18.1893 7.75L16.4697 6.03033C16.1768 5.73744 16.1768 5.26256 16.4697 4.96967C16.7626 4.67678 17.2374 4.67678 17.5303 4.96967L20.5303 7.96967C20.671 8.11032 20.75 8.30109 20.75 8.5C20.75 8.69891 20.671 8.88968 20.5303 9.03033L17.5303 12.0303Z" fill="#212121"/>
</svg>
