<svg width="24" height="24" viewBox="0 0 24 24" fill="none" xmlns="http://www.w3.org/2000/svg">
<path d="M19.75 5L19.75 13C19.75 13.4142 19.4142 13.75 19 13.75C18.5858 13.75 18.25 13.4142 18.25 13L18.25 6.81066L6.81066 18.25H13C13.4142 18.25 13.75 18.5858 13.75 19C13.75 19.4142 13.4142 19.75 13 19.75H5C4.7937 19.75 4.60686 19.6667 4.47126 19.5319L4.46967 19.5303L4.46808 19.5287C4.39696 19.4572 4.34324 19.3749 4.30691 19.2871C4.27024 19.1987 4.25 19.1017 4.25 19V11C4.25 10.5858 4.58579 10.25 5 10.25C5.41421 10.25 5.75 10.5858 5.75 11V17.1893L17.1893 5.75L11 5.75C10.5858 5.75 10.25 5.41421 10.25 5C10.25 4.58579 10.5858 4.25 11 4.25H19C19.2029 4.25 19.387 4.3306 19.5221 4.46153C19.5276 4.46692 19.5331 4.47238 19.5385 4.47793C19.6058 4.54732 19.657 4.6265 19.6922 4.7108C19.7294 4.7998 19.75 4.8975 19.75 5Z" fill="#212121"/>
</svg>
