<svg width="24" height="24" viewBox="0 0 24 24" fill="none" xmlns="http://www.w3.org/2000/svg">
<path fill-rule="evenodd" clip-rule="evenodd" d="M23 12C23 18.0751 18.0751 23 12 23C5.92487 23 1 18.0751 1 12C1 5.92487 5.92487 1 12 1C18.0751 1 23 5.92487 23 12ZM12.1464 7.75C11.232 7.75 10.4592 8.36427 10.2216 9.20412C10.1089 9.6027 9.69441 9.83442 9.29583 9.72169C8.89725 9.60896 8.66553 9.19446 8.77826 8.79588C9.19365 7.32723 10.5433 6.25 12.1464 6.25C14.0794 6.25 15.6464 7.817 15.6464 9.75C15.6464 11.4653 14.3252 12.8327 12.7499 13.17V14C12.7499 14.4142 12.4142 14.75 11.9999 14.75C11.5857 14.75 11.2499 14.4142 11.2499 14V12.5C11.2499 12.0858 11.5857 11.75 11.9999 11.75C13.1556 11.75 14.1464 10.8053 14.1464 9.75C14.1464 8.64543 13.251 7.75 12.1464 7.75ZM11.99 17.58C12.4263 17.58 12.78 17.2263 12.78 16.79C12.78 16.3537 12.4263 16 11.99 16C11.5536 16 11.2 16.3537 11.2 16.79C11.2 17.2263 11.5536 17.58 11.99 17.58Z" fill="#212121"/>
</svg>
