<svg width="24" height="24" viewBox="0 0 24 24" fill="none" xmlns="http://www.w3.org/2000/svg">
<path fill-rule="evenodd" clip-rule="evenodd" d="M13.8882 4.75169C12.8284 3.75074 11.1716 3.75074 10.1118 4.75169L4.11178 10.4184C3.56172 10.9379 3.25 11.661 3.25 12.4176V18C3.25 19.5188 4.48122 20.75 6 20.75H18C19.5188 20.75 20.75 19.5188 20.75 18V12.4176C20.75 11.661 20.4383 10.9379 19.8882 10.4184L13.8882 4.75169ZM11.1417 5.84221C11.6235 5.38723 12.3765 5.38723 12.8583 5.84221L18.8583 11.5089C19.1083 11.745 19.25 12.0737 19.25 12.4176V18C19.25 18.6904 18.6904 19.25 18 19.25H12.75V16C12.75 15.5858 12.4142 15.25 12 15.25C11.5858 15.25 11.25 15.5858 11.25 16V19.25H6C5.30964 19.25 4.75 18.6904 4.75 18V12.4176C4.75 12.0737 4.89169 11.745 5.14172 11.5089L11.1417 5.84221Z" fill="#212121"/>
</svg>
