<svg width="24" height="24" viewBox="0 0 24 24" fill="none" xmlns="http://www.w3.org/2000/svg">
<path d="M12.75 16.75C12.75 17.1642 12.4142 17.5 12 17.5C11.5858 17.5 11.25 17.1642 11.25 16.75C11.25 16.3358 11.5858 16 12 16C12.4142 16 12.75 16.3358 12.75 16.75Z" fill="#212121"/>
<path d="M12.75 8C12.75 7.58579 12.4142 7.25 12 7.25C11.5858 7.25 11.25 7.58579 11.25 8V13.5C11.25 13.9142 11.5858 14.25 12 14.25C12.4142 14.25 12.75 13.9142 12.75 13.5V8Z" fill="#212121"/>
<path fill-rule="evenodd" clip-rule="evenodd" d="M10.4845 3.125C11.1581 1.95833 12.842 1.95833 13.5156 3.125L22.1758 18.125C22.8494 19.2917 22.0074 20.75 20.6603 20.75H3.33977C1.99262 20.75 1.15065 19.2917 1.82422 18.125L10.4845 3.125ZM12.2165 3.875C12.1203 3.70833 11.8797 3.70833 11.7835 3.875L3.12326 18.875C3.02704 19.0417 3.14732 19.25 3.33977 19.25H20.6603C20.8527 19.25 20.973 19.0417 20.8768 18.875L12.2165 3.875Z" fill="#212121"/>
</svg>
