<svg width="24" height="24" viewBox="0 0 24 24" fill="none" xmlns="http://www.w3.org/2000/svg">
<path d="M10 1.75C9.6688 1.75 9.37681 1.96725 9.28164 2.28449L6.28164 12.2845C6.21351 12.5116 6.25677 12.7575 6.39829 12.9477C6.53981 13.1379 6.76293 13.25 7.00001 13.25H10.065L8.26787 21.3373C8.19185 21.6794 8.36281 22.0285 8.67963 22.1781C8.99645 22.3278 9.37468 22.2382 9.59064 21.9622L18.5906 10.4622C18.7674 10.2363 18.7999 9.92937 18.6742 9.6715C18.5486 9.41362 18.2869 9.25 18 9.25H14.0406L16.2115 2.73717C16.2878 2.50846 16.2494 2.25704 16.1084 2.06147C15.9675 1.86589 15.7411 1.75 15.5 1.75H10Z" fill="#212121"/>
</svg>
