<svg width="24" height="24" viewBox="0 0 24 24" fill="none" xmlns="http://www.w3.org/2000/svg">
<path d="M10 2.80554C7.62212 2.80554 5.69446 4.7332 5.69446 7.1111C5.69446 9.48899 7.62212 11.4167 10 11.4167C12.3779 11.4167 14.3056 9.48899 14.3056 7.1111C14.3056 4.7332 12.3779 2.80554 10 2.80554Z" fill="#212121"/>
<path d="M23.0303 8.96967C23.3232 9.26256 23.3232 9.73744 23.0303 10.0303L19.5303 13.5303C19.3897 13.671 19.1989 13.75 19 13.75C18.8011 13.75 18.6103 13.671 18.4697 13.5303L16.4697 11.5303C16.1768 11.2374 16.1768 10.7626 16.4697 10.4697C16.7626 10.1768 17.2374 10.1768 17.5303 10.4697L19 11.9393L21.9697 8.96967C22.2626 8.67678 22.7374 8.67678 23.0303 8.96967Z" fill="#212121"/>
<path d="M10 12.5833C3.96002 12.5833 1.25 16.2587 1.25 18.4057C1.25 19.237 1.87314 19.7599 2.44149 20.0644C3.03785 20.3839 3.82169 20.6057 4.64616 20.7651C6.30922 21.0865 8.36282 21.1945 10 21.1945C11.6372 21.1945 13.6908 21.0865 15.3538 20.7651C16.1783 20.6057 16.9621 20.3839 17.5585 20.0644C18.1269 19.7599 18.75 19.237 18.75 18.4057C18.75 16.2587 16.04 12.5833 10 12.5833Z" fill="#212121"/>
</svg>
