<svg width="24" height="24" viewBox="0 0 24 24" fill="none" xmlns="http://www.w3.org/2000/svg">
<path d="M12.25 6C12.25 5.30964 12.8096 4.75 13.5 4.75H19C19.6904 4.75 20.25 5.30964 20.25 6V18C20.25 18.6904 19.6904 19.25 19 19.25H13.5C12.8096 19.25 12.25 18.6904 12.25 18V16C12.25 15.5858 11.9142 15.25 11.5 15.25C11.0858 15.25 10.75 15.5858 10.75 16V18C10.75 19.5188 11.9812 20.75 13.5 20.75H19C20.5188 20.75 21.75 19.5188 21.75 18V6C21.75 4.48122 20.5188 3.25 19 3.25H13.5C11.9812 3.25 10.75 4.48122 10.75 6V8C10.75 8.41421 11.0858 8.75 11.5 8.75C11.9142 8.75 12.25 8.41421 12.25 8V6Z" fill="#212121"/>
<path d="M8.03033 7.03033C8.32322 6.73744 8.32322 6.26256 8.03033 5.96967C7.73744 5.67678 7.26256 5.67678 6.96967 5.96967L1.46967 11.4697C1.17678 11.7626 1.17678 12.2374 1.46967 12.5303L6.96967 18.0303C7.26256 18.3232 7.73744 18.3232 8.03033 18.0303C8.32322 17.7374 8.32322 17.2626 8.03033 16.9697L3.81066 12.75H14C14.4142 12.75 14.75 12.4142 14.75 12C14.75 11.5858 14.4142 11.25 14 11.25H3.81066L8.03033 7.03033Z" fill="#212121"/>
</svg>
