<svg width="24" height="24" viewBox="0 0 24 24" fill="none" xmlns="http://www.w3.org/2000/svg">
<path d="M5.25 9C5.25 5.27208 8.27208 2.25 12 2.25C15.7279 2.25 18.75 5.27208 18.75 9C18.75 11.3413 17.5576 13.4033 15.75 14.6132V17C15.75 17.4142 15.4142 17.75 15 17.75H9C8.58579 17.75 8.25 17.4142 8.25 17V14.6132C6.44235 13.4033 5.25 11.3413 5.25 9Z" fill="#212121"/>
<path d="M9 19.25C8.58579 19.25 8.25 19.5858 8.25 20C8.25 20.4142 8.58579 20.75 9 20.75H15C15.4142 20.75 15.75 20.4142 15.75 20C15.75 19.5858 15.4142 19.25 15 19.25H9Z" fill="#212121"/>
</svg>
