<svg width="24" height="24" viewBox="0 0 24 24" fill="none" xmlns="http://www.w3.org/2000/svg">
<path d="M10 9C10 9.82843 9.32843 10.5 8.5 10.5C7.67157 10.5 7 9.82843 7 9C7 8.17157 7.67157 7.5 8.5 7.5C9.32843 7.5 10 8.17157 10 9Z" fill="#212121"/>
<path fill-rule="evenodd" clip-rule="evenodd" d="M2.25 5C2.25 3.48122 3.48122 2.25 5 2.25H19C20.5188 2.25 21.75 3.48122 21.75 5V19C21.75 20.5188 20.5188 21.75 19 21.75H5C3.48524 21.75 2.25653 20.5253 2.25003 19.0121C2.24992 19.0051 2.24991 18.9981 2.25 18.9911V5ZM3.80031 19.3522C3.95239 19.8711 4.43194 20.25 5 20.25H19C19.6904 20.25 20.25 19.6904 20.25 19V16.8107L14.9171 11.4778L3.80031 19.3522ZM20.25 14.6893L15.5303 9.96967C15.2719 9.71121 14.8648 9.67671 14.5665 9.88798L3.75 17.5497V5C3.75 4.30964 4.30964 3.75 5 3.75H19C19.6904 3.75 20.25 4.30964 20.25 5V14.6893Z" fill="#212121"/>
</svg>
