<svg width="24" height="24" viewBox="0 0 24 24" fill="none" xmlns="http://www.w3.org/2000/svg">
<path d="M1.13891 20.5401C1.01506 21.6547 1.95686 22.5965 3.07146 22.4726L7.8359 21.9432L1.66829 15.7756L1.13891 20.5401Z" fill="#2277FF"/>
<path d="M19.7781 10.5509L21.3685 8.96055C22.0519 8.27713 22.0519 7.16909 21.3685 6.48567L17.1259 2.24303C16.4424 1.55961 15.3344 1.55961 14.651 2.24303L13.0606 3.83341L19.7781 10.5509Z" fill="#2277FF"/>
<path fill-rule="evenodd" clip-rule="evenodd" d="M3.07146 22.4677C1.95686 22.5916 1.01506 21.6498 1.13891 20.5352L1.66924 15.7622C1.71312 15.3673 1.89011 14.999 2.1711 14.718L14.651 2.23815C15.3344 1.55473 16.4424 1.55473 17.1259 2.23815L21.3685 6.48079C22.0519 7.16421 22.0519 8.27225 21.3685 8.95566L8.88861 21.4355C8.60762 21.7165 8.23937 21.8935 7.84443 21.9374L3.07146 22.4677ZM2.62973 20.7008C2.61204 20.8601 2.74658 20.9946 2.90581 20.9769L6.47736 20.5801L3.02657 17.1293L2.62973 20.7008ZM17.6567 10.5462L8.11072 20.0921L3.51453 15.4959L13.0605 5.94998L17.6567 10.5462ZM18.7173 9.48551L20.3078 7.895C20.4055 7.79737 20.4055 7.63908 20.3078 7.54145L16.0652 3.29881C15.9676 3.20118 15.8093 3.20118 15.7116 3.29881L14.1211 4.88932L18.7173 9.48551Z" fill="#212121"/>
</svg>
