<svg width="24" height="24" viewBox="0 0 24 24" fill="none" xmlns="http://www.w3.org/2000/svg">
<path fill-rule="evenodd" clip-rule="evenodd" d="M15.8472 14.7865C16.4151 14.0038 16.75 13.041 16.75 12C16.75 9.37665 14.6234 7.25 12 7.25C9.37665 7.25 7.25 9.37665 7.25 12C7.25 14.6234 9.37665 16.75 12 16.75C13.041 16.75 14.0038 16.4151 14.7865 15.8472L15.4697 16.5303C15.7626 16.8232 16.2374 16.8232 16.5303 16.5303C16.8232 16.2374 16.8232 15.7626 16.5303 15.4697L15.8472 14.7865ZM12 8.75C10.2051 8.75 8.75 10.2051 8.75 12C8.75 13.7949 10.2051 15.25 12 15.25C12.6257 15.25 13.2102 15.0732 13.7061 14.7667L12.4697 13.5303C12.1768 13.2374 12.1768 12.7626 12.4697 12.4697C12.7626 12.1768 13.2374 12.1768 13.5303 12.4697L14.7667 13.7061C15.0732 13.2102 15.25 12.6257 15.25 12C15.25 10.2051 13.7949 8.75 12 8.75Z" fill="#212121"/>
<path fill-rule="evenodd" clip-rule="evenodd" d="M1.25 3C1.25 2.0335 2.0335 1.25 3 1.25H5C5.9665 1.25 6.75 2.0335 6.75 3V3.25H17.25V3C17.25 2.0335 18.0335 1.25 19 1.25H21C21.9665 1.25 22.75 2.0335 22.75 3V5C22.75 5.9665 21.9665 6.75 21 6.75H20.75V17.25H21C21.9665 17.25 22.75 18.0335 22.75 19V21C22.75 21.9665 21.9665 22.75 21 22.75H19C18.0335 22.75 17.25 21.9665 17.25 21V20.75H6.75V21C6.75 21.9665 5.9665 22.75 5 22.75H3C2.0335 22.75 1.25 21.9665 1.25 21V19C1.25 18.0335 2.0335 17.25 3 17.25H3.25V6.75H3C2.0335 6.75 1.25 5.9665 1.25 5V3ZM17.25 19.25V19C17.25 18.0335 18.0335 17.25 19 17.25H19.25V6.75H19C18.0335 6.75 17.25 5.9665 17.25 5V4.75H6.75V5C6.75 5.9665 5.9665 6.75 5 6.75H4.75V17.25H5C5.9665 17.25 6.75 18.0335 6.75 19V19.25H17.25ZM3 2.75C2.86193 2.75 2.75 2.86193 2.75 3V5C2.75 5.13807 2.86193 5.25 3 5.25H5C5.13807 5.25 5.25 5.13807 5.25 5V3C5.25 2.86193 5.13807 2.75 5 2.75H3ZM3 18.75C2.86193 18.75 2.75 18.8619 2.75 19V21C2.75 21.1381 2.86193 21.25 3 21.25H5C5.13807 21.25 5.25 21.1381 5.25 21V19C5.25 18.8619 5.13807 18.75 5 18.75H3ZM18.75 3C18.75 2.86193 18.8619 2.75 19 2.75H21C21.1381 2.75 21.25 2.86193 21.25 3V5C21.25 5.13807 21.1381 5.25 21 5.25H19C18.8619 5.25 18.75 5.13807 18.75 5V3ZM18.75 19C18.75 18.8619 18.8619 18.75 19 18.75H21C21.1381 18.75 21.25 18.8619 21.25 19V21C21.25 21.1381 21.1381 21.25 21 21.25H19C18.8619 21.25 18.75 21.1381 18.75 21V19Z" fill="#212121"/>
</svg>
