<svg width="24" height="24" viewBox="0 0 24 24" fill="none" xmlns="http://www.w3.org/2000/svg">
<path d="M9.75012 12C9.75012 10.7574 10.7575 9.75 12.0001 9.75C13.2428 9.75 14.2501 10.7574 14.2501 12C14.2501 13.2426 13.2428 14.25 12.0001 14.25C10.7575 14.25 9.75012 13.2426 9.75012 12Z" fill="#212121"/>
<path fill-rule="evenodd" clip-rule="evenodd" d="M10.182 4.44449C13.9557 3.67618 18.1811 5.08592 22.2852 10.4396C22.9928 11.3626 23.0007 12.6441 22.2993 13.5746C18.3112 18.8655 14.1184 20.3056 10.3335 19.5733C6.64056 18.8588 3.55653 16.1129 1.61466 13.4961C0.957669 12.6107 0.954861 11.4048 1.60873 10.5166C3.48106 7.9733 6.50276 5.19357 10.182 4.44449ZM12.0001 8.25C9.92905 8.25 8.25012 9.92893 8.25012 12C8.25012 14.0711 9.92905 15.75 12.0001 15.75C14.0712 15.75 15.7501 14.0711 15.7501 12C15.7501 9.92893 14.0712 8.25 12.0001 8.25Z" fill="#212121"/>
</svg>
