<svg width="24" height="24" viewBox="0 0 24 24" fill="none" xmlns="http://www.w3.org/2000/svg">
<path d="M12.0006 20.75C11.7006 20.75 11.4106 20.66 11.1706 20.5C6.73059 17.58 2.19059 13.85 2.25059 8.39C2.28059 5.56 4.62059 3.25 7.46059 3.25C9.71059 3.25 11.2106 4.6 12.0006 5.58C12.7906 4.6 14.2906 3.25 16.5406 3.25C19.3806 3.25 21.7206 5.56 21.7506 8.39C21.8106 13.85 17.2806 17.58 12.8406 20.5C12.5906 20.66 12.3006 20.75 12.0106 20.75H12.0006ZM7.46059 4.75C5.44059 4.75 3.77059 6.39 3.75059 8.41C3.70059 13.15 7.89059 16.55 11.9906 19.25C16.1106 16.55 20.3006 13.15 20.2506 8.41C20.2306 6.39 18.5706 4.75 16.5406 4.75C13.9806 4.75 12.6806 7.23 12.6606 7.25C12.4006 7.75 11.5806 7.75 11.3306 7.25C11.2806 7.15 9.99059 4.75 7.45059 4.75H7.46059Z" fill="#212121"/>
</svg>
