<svg width="24" height="24" viewBox="0 0 24 24" fill="none" xmlns="http://www.w3.org/2000/svg">
<path fill-rule="evenodd" clip-rule="evenodd" d="M20.75 6C20.75 4.48122 19.5188 3.25 18 3.25H6C4.48122 3.25 3.25 4.48122 3.25 6V18C3.25 19.5188 4.48122 20.75 6 20.75H18C19.5188 20.75 20.75 19.5188 20.75 18V6ZM19.25 11.25V6C19.25 5.30964 18.6904 4.75 18 4.75L6 4.75C5.30964 4.75 4.75 5.30964 4.75 6L4.75 11.25L19.25 11.25ZM4.75 12.75L19.25 12.75V18C19.25 18.6904 18.6904 19.25 18 19.25H6C5.30964 19.25 4.75 18.6904 4.75 18L4.75 12.75Z" fill="#212121"/>
</svg>
