<svg width="24" height="24" viewBox="0 0 24 24" fill="none" xmlns="http://www.w3.org/2000/svg">
<path fill-rule="evenodd" clip-rule="evenodd" d="M12.1318 3.20374C13.2984 2.53709 14.75 3.37947 14.75 4.72317V18.9691C14.75 20.4211 13.0838 21.2415 11.933 20.3562L7.31231 16.8018C7.2686 16.7682 7.21501 16.75 7.15988 16.75H3C2.0335 16.75 1.25 15.9665 1.25 15V7.99999C1.25 7.03349 2.0335 6.24999 3 6.24999H6.73444C6.77794 6.24999 6.8207 6.23863 6.85847 6.21705L12.1318 3.20374ZM13.25 4.72317C13.25 4.53121 13.0426 4.41087 12.876 4.50611L7.60268 7.51941C7.33826 7.67051 7.03898 7.74999 6.73444 7.74999H3C2.86193 7.74999 2.75 7.86192 2.75 7.99999V15C2.75 15.1381 2.86193 15.25 3 15.25H7.15988C7.54583 15.25 7.92096 15.3776 8.22687 15.6129L12.8476 19.1673C13.012 19.2937 13.25 19.1765 13.25 18.9691V4.72317Z" fill="#212121"/>
<path d="M17.4544 8.9854C17.7386 8.68406 18.2133 8.67017 18.5146 8.95437C18.9472 9.36238 19.4999 10.2227 19.6856 11.2912C19.879 12.4038 19.6722 13.7402 18.562 14.9966C18.2878 15.307 17.8138 15.3363 17.5034 15.062C17.193 14.7878 17.1637 14.3138 17.438 14.0034C18.2212 13.117 18.33 12.2509 18.2078 11.5481C18.0779 10.8011 17.6839 10.2328 17.4854 10.0456C17.1841 9.7614 17.1702 9.28673 17.4544 8.9854Z" fill="#212121"/>
<path d="M20.9802 6.92382C20.6619 6.65865 20.189 6.70164 19.9239 7.01985C19.6587 7.33806 19.7017 7.81098 20.0199 8.07615C20.4036 8.39596 21.3081 9.506 21.6438 10.9791C21.9647 12.3875 21.7775 14.1619 19.9697 15.9697C19.6768 16.2626 19.6768 16.7374 19.9697 17.0303C20.2626 17.3232 20.7375 17.3232 21.0303 17.0303C23.2226 14.8381 23.5354 12.5292 23.1063 10.6459C22.6919 8.82731 21.5964 7.43736 20.9802 6.92382Z" fill="#212121"/>
</svg>
