<svg width="24" height="24" viewBox="0 0 24 24" fill="none" xmlns="http://www.w3.org/2000/svg">
<path fill-rule="evenodd" clip-rule="evenodd" d="M12 23C18.0751 23 23 18.0751 23 12C23 5.92487 18.0751 1 12 1C5.92487 1 1 5.92487 1 12C1 18.0751 5.92487 23 12 23ZM17.0303 10.0303C17.3232 9.73744 17.3232 9.26256 17.0303 8.96967C16.7374 8.67678 16.2626 8.67678 15.9697 8.96967L11 13.9393L8.03033 10.9697C7.73744 10.6768 7.26256 10.6768 6.96967 10.9697C6.67678 11.2626 6.67678 11.7374 6.96967 12.0303L10.4697 15.5303C10.7626 15.8232 11.2374 15.8232 11.5303 15.5303L17.0303 10.0303Z" fill="#05C072"/>
</svg>
