<svg width="24" height="24" viewBox="0 0 24 24" fill="none" xmlns="http://www.w3.org/2000/svg">
<path fill-rule="evenodd" clip-rule="evenodd" d="M12 8.25C9.92893 8.25 8.25 9.92893 8.25 12C8.25 14.0711 9.92893 15.75 12 15.75C14.0711 15.75 15.75 14.0711 15.75 12C15.75 9.92893 14.0711 8.25 12 8.25ZM9.75 12C9.75 10.7574 10.7574 9.75 12 9.75C13.2426 9.75 14.25 10.7574 14.25 12C14.25 13.2426 13.2426 14.25 12 14.25C10.7574 14.25 9.75 13.2426 9.75 12Z" fill="#212121"/>
<path fill-rule="evenodd" clip-rule="evenodd" d="M10.6359 1.75C9.76029 1.75 9.01945 2.39716 8.90178 3.26483L8.66506 5.0104C8.30875 5.18239 7.96776 5.38101 7.64462 5.60363L6.02852 4.9393C5.21806 4.60615 4.28807 4.92516 3.85196 5.68471L2.48331 8.06841C2.04816 8.82628 2.23805 9.79 2.92713 10.3268L4.31096 11.4048C4.29609 11.6014 4.28852 11.7999 4.28852 12C4.28852 12.2002 4.29609 12.3987 4.31096 12.5952L2.92713 13.6732C2.23805 14.21 2.04816 15.1737 2.48331 15.9316L3.85196 18.3153C4.28807 19.0749 5.21805 19.3939 6.02852 19.0607L7.64463 18.3964C7.96777 18.619 8.30876 18.8176 8.66506 18.9896L8.90178 20.7352C9.01945 21.6028 9.76029 22.25 10.6359 22.25H13.364C14.2397 22.25 14.9805 21.6028 15.0982 20.7352L15.3349 18.9896C15.6912 18.8176 16.0322 18.619 16.3553 18.3964L17.9714 19.0607C18.7819 19.3939 19.7119 19.0748 20.148 18.3153L21.5166 15.9316C21.9518 15.1737 21.7619 14.21 21.0728 13.6732L19.689 12.5952C19.7039 12.3986 19.7114 12.2001 19.7114 12C19.7114 11.7998 19.7039 11.6013 19.689 11.4048L21.0728 10.3268C21.7619 9.78999 21.9518 8.82627 21.5166 8.0684L20.148 5.68469C19.7119 4.92515 18.7819 4.60613 17.9714 4.93929L16.3553 5.60362C16.0322 5.381 15.6912 5.18239 15.3349 5.0104L15.0982 3.26483C14.9805 2.39716 14.2397 1.75 13.364 1.75H10.6359ZM10.3882 3.46641C10.405 3.34245 10.5108 3.25 10.6359 3.25H13.364C13.4891 3.25 13.595 3.34245 13.6118 3.4664L13.9045 5.62487C13.9404 5.88944 14.1142 6.11499 14.3609 6.21708C14.8759 6.43022 15.3566 6.71122 15.7919 7.04932C16.0042 7.21421 16.2885 7.25289 16.5371 7.15069L18.5417 6.32665C18.6554 6.2799 18.7854 6.32404 18.8472 6.43159L20.2158 8.8153C20.2785 8.92452 20.2512 9.0654 20.151 9.14345L18.4394 10.4768C18.2295 10.6403 18.1219 10.9029 18.1568 11.1668C18.1928 11.439 18.2114 11.7171 18.2114 12C18.2114 12.2829 18.1928 12.561 18.1568 12.8332C18.1219 13.0971 18.2295 13.3597 18.4394 13.5232L20.151 14.8565C20.2512 14.9346 20.2785 15.0755 20.2158 15.1847L18.8472 17.5684C18.7854 17.6759 18.6554 17.7201 18.5417 17.6733L16.5371 16.8493C16.2885 16.7471 16.0042 16.7858 15.7919 16.9507C15.3566 17.2888 14.8759 17.5698 14.3609 17.7829C14.1142 17.885 13.9404 18.1106 13.9045 18.3751L13.6118 20.5336C13.595 20.6575 13.4891 20.75 13.364 20.75H10.6359C10.5108 20.75 10.405 20.6575 10.3882 20.5336L10.0955 18.3751C10.0596 18.1106 9.88576 17.885 9.63906 17.7829C9.12404 17.5698 8.64336 17.2888 8.20809 16.9507C7.9958 16.7858 7.71149 16.7471 7.46286 16.8493L5.45823 17.6734C5.34451 17.7201 5.21454 17.676 5.15279 17.5684L3.78413 15.1847C3.72142 15.0755 3.74875 14.9346 3.84894 14.8565L5.56053 13.5232C5.77049 13.3597 5.87805 13.0971 5.84316 12.8332C5.80715 12.561 5.78852 12.2829 5.78852 12C5.78852 11.7171 5.80715 11.439 5.84315 11.1668C5.87805 10.9029 5.77049 10.6403 5.56053 10.4768L3.84894 9.14347C3.74875 9.06542 3.72142 8.92454 3.78413 8.81531L5.15279 6.4316C5.21454 6.32405 5.34451 6.27992 5.45823 6.32666L7.46285 7.15069C7.71148 7.2529 7.99578 7.21422 8.20808 7.04932C8.64335 6.71122 9.12404 6.43022 9.63906 6.21708C9.88576 6.11499 10.0596 5.88944 10.0955 5.62487L10.3882 3.46641Z" fill="#212121"/>
</svg>
