<svg width="24" height="24" viewBox="0 0 24 24" fill="none" xmlns="http://www.w3.org/2000/svg">
<path fill-rule="evenodd" clip-rule="evenodd" d="M4.25 4C4.25 3.0335 5.0335 2.25 6 2.25H18C18.9665 2.25 19.75 3.0335 19.75 4V18.9421C19.75 20.217 18.4304 21.064 17.2712 20.5331L12 18.1187L6.72875 20.5331C5.56962 21.064 4.25 20.217 4.25 18.9421V4ZM6 3.75C5.86193 3.75 5.75 3.86193 5.75 4V18.9421C5.75 19.1242 5.93852 19.2452 6.10411 19.1693L11.6877 16.6119C11.886 16.521 12.114 16.521 12.3123 16.6119L17.8959 19.1693C18.0615 19.2452 18.25 19.1242 18.25 18.9421V4C18.25 3.86193 18.1381 3.75 18 3.75H6Z" fill="#212121"/>
</svg>
