<svg width="24" height="24" viewBox="0 0 24 24" fill="none" xmlns="http://www.w3.org/2000/svg">
<path d="M9.43855 12.75L9.57881 13.2058L9.75413 12.75H9.43855Z" fill="#212121"/>
<path d="M13.9385 12.75L14.0788 13.2058L14.2541 12.75H13.9385Z" fill="#212121"/>
<path fill-rule="evenodd" clip-rule="evenodd" d="M23 12C23 18.0751 18.0751 23 12 23C5.92487 23 1 18.0751 1 12C1 5.92487 5.92487 1 12 1C18.0751 1 23 5.92487 23 12ZM5.25 12C5.25 11.5858 5.58579 11.25 6 11.25H7.40761L6.78317 9.22055C6.66135 8.82466 6.88354 8.40497 7.27944 8.28315C7.67533 8.16134 8.09502 8.38353 8.21683 8.77942L8.97701 11.25H10.3311L11.3 8.73075C11.4148 8.4323 11.7062 8.23945 12.0257 8.25043C12.3453 8.26141 12.6228 8.4738 12.7168 8.77942L13.477 11.25H14.8311L15.8 8.73075C15.9487 8.34415 16.3826 8.15129 16.7692 8.29998C17.1558 8.44867 17.3487 8.88262 17.2 9.26922L16.4382 11.25H18C18.4142 11.25 18.75 11.5858 18.75 12C18.75 12.4142 18.4142 12.75 18 12.75H15.8613L14.7 15.7692C14.5852 16.0677 14.2938 16.2605 13.9743 16.2495C13.6547 16.2386 13.3772 16.0262 13.2832 15.7206L12.3691 12.75H11.3613L10.2 15.7692C10.0852 16.0677 9.79383 16.2605 9.47425 16.2495C9.15468 16.2386 8.8772 16.0262 8.78317 15.7206L7.86915 12.75H6C5.58579 12.75 5.25 12.4142 5.25 12Z" fill="#212121"/>
</svg>
