<svg width="24" height="24" viewBox="0 0 24 24" fill="none" xmlns="http://www.w3.org/2000/svg">
<path fill-rule="evenodd" clip-rule="evenodd" d="M10.8791 2.57655C11.3376 1.6475 12.6624 1.6475 13.1209 2.57655L15.437 7.26939L20.6158 8.02193C21.6411 8.17091 22.0505 9.43087 21.3086 10.154L17.5612 13.8069L18.4458 18.9648C18.6209 19.986 17.5492 20.7647 16.6321 20.2826L12 17.8473L7.3679 20.2826C6.45087 20.7647 5.37908 19.986 5.55421 18.9648L6.43887 13.8069L2.69141 10.154C1.94952 9.43087 2.3589 8.17091 3.38418 8.02193L8.56304 7.26939L10.8791 2.57655ZM12 3.69465L9.84997 8.0511C9.66789 8.42003 9.31594 8.67574 8.9088 8.73491L4.10117 9.4335L7.58 12.8245C7.87461 13.1117 8.00905 13.5254 7.9395 13.9309L7.11826 18.7191L11.4183 16.4585C11.7825 16.267 12.2175 16.267 12.5817 16.4585L16.8818 18.7191L16.0605 13.9309C15.991 13.5254 16.1254 13.1117 16.42 12.8245L19.8989 9.4335L15.0912 8.73491C14.6841 8.67574 14.3321 8.42003 14.1501 8.0511L12 3.69465Z" fill="#212121"/>
</svg>
