<svg width="24" height="24" viewBox="0 0 24 24" fill="none" xmlns="http://www.w3.org/2000/svg">
<path d="M5.5 2.75C3.98122 2.75 2.75 3.98122 2.75 5.5V18.5C2.75 20.0188 3.98122 21.25 5.5 21.25H18.5C20.0188 21.25 21.25 20.0188 21.25 18.5V14.5C21.25 14.0858 20.9142 13.75 20.5 13.75C20.0858 13.75 19.75 14.0858 19.75 14.5V18.5C19.75 19.1904 19.1904 19.75 18.5 19.75H5.5C4.80964 19.75 4.25 19.1904 4.25 18.5V5.5C4.25 4.80964 4.80964 4.25 5.5 4.25H9C9.41421 4.25 9.75 3.91421 9.75 3.5C9.75 3.08579 9.41421 2.75 9 2.75H5.5Z" fill="#212121"/>
<path d="M13 2.75C12.5858 2.75 12.25 3.08579 12.25 3.5C12.25 3.91421 12.5858 4.25 13 4.25H18.6893L11.4697 11.4697C11.1768 11.7626 11.1768 12.2374 11.4697 12.5303C11.7626 12.8232 12.2374 12.8232 12.5303 12.5303L19.75 5.31066V11C19.75 11.4142 20.0858 11.75 20.5 11.75C20.9142 11.75 21.25 11.4142 21.25 11V3.5C21.25 3.08579 20.9142 2.75 20.5 2.75H13Z" fill="#212121"/>
</svg>
