<svg width="24" height="24" viewBox="0 0 24 24" fill="none" xmlns="http://www.w3.org/2000/svg">
<path fill-rule="evenodd" clip-rule="evenodd" d="M5.51953 12.2959L12.237 19.0134L23.0204 8.23008C23.7038 7.54666 23.7038 6.43862 23.0204 5.7552L18.7777 1.51256C18.0943 0.829145 16.9863 0.829146 16.3029 1.51256L5.51953 12.2959ZM10.4685 14.0635C10.859 14.454 11.4922 14.454 11.8827 14.0635L17.5396 8.40662C17.9301 8.01609 17.9301 7.38293 17.5396 6.9924C17.1491 6.60188 16.5159 6.60188 16.1254 6.9924L10.4685 12.6493C10.078 13.0398 10.078 13.6729 10.4685 14.0635Z" fill="#2277FF"/>
<path d="M3.30295 17.3422L1.51613 19.1288C0.413611 20.2312 1.19438 22.1163 2.75351 22.1163H5.78925C6.12077 22.1163 6.43871 21.9846 6.67313 21.7502L7.19303 21.2303L3.30295 17.3422Z" fill="#2277FF"/>
<path d="M10.469 12.6494C10.0785 13.0399 10.0785 13.6731 10.469 14.0636C10.8595 14.4541 11.4927 14.4541 11.8832 14.0636L17.54 8.40675C17.9306 8.01622 17.9306 7.38306 17.54 6.99253C17.1495 6.60201 16.5164 6.60201 16.1258 6.99253L10.469 12.6494Z" fill="#212121"/>
<path fill-rule="evenodd" clip-rule="evenodd" d="M7.19303 21.2303C7.59975 21.2822 8.02383 21.1916 8.38545 20.9505L9.17589 20.4236C9.32154 20.3265 9.4761 20.2446 9.63713 20.1788C9.75258 20.1316 9.8879 20.1229 10.1982 20.1027L10.2465 20.0996C10.5267 20.0813 10.991 20.0497 11.4102 19.7821C11.5159 19.7147 11.6154 19.6351 11.7067 19.5438L23.0204 8.23008C23.7038 7.54666 23.7038 6.43862 23.0204 5.7552L18.7778 1.51256C18.0944 0.829145 16.9863 0.829146 16.3029 1.51256L4.9892 12.8263C4.89793 12.9175 4.81834 13.0171 4.75085 13.1228C4.4833 13.542 4.45167 14.0063 4.4334 14.2865L4.43027 14.3348C4.41013 14.6451 4.40135 14.7804 4.35419 14.8959C4.28843 15.0569 4.20654 15.2114 4.10944 15.3571L3.58248 16.1475C3.34096 16.5098 3.25043 16.9348 3.30295 17.3422L1.51613 19.1288C0.413611 20.2313 1.19438 22.1163 2.75351 22.1163H5.78925C6.12077 22.1163 6.43871 21.9846 6.67313 21.7502L7.19303 21.2303ZM7.5534 19.7024C7.45424 19.7685 7.32221 19.7555 7.23794 19.6712L4.86179 17.295C4.77752 17.2108 4.76445 17.0788 4.83055 16.9796L5.35752 16.1891C5.51039 15.9598 5.63932 15.7165 5.74285 15.463C5.83403 15.2397 5.87706 15.0037 5.89987 14.7982L9.73479 18.6331C9.52931 18.6559 9.29325 18.699 9.07 18.7901C8.81649 18.8937 8.57315 19.0226 8.34384 19.1755L7.5534 19.7024ZM17.3636 2.57322L6.57989 13.3569L11.1761 17.9531L21.9598 7.16942C22.0574 7.07179 22.0574 6.91349 21.9598 6.81586L17.7171 2.57322C17.6195 2.47559 17.4612 2.47559 17.3636 2.57322ZM5.87373 20.4283L4.10593 18.6605L2.57674 20.1896C2.41924 20.347 2.53078 20.6163 2.75351 20.6163L5.6857 20.6163L5.87373 20.4283Z" fill="#212121"/>
</svg>
