<svg width="24" height="24" viewBox="0 0 24 24" fill="none" xmlns="http://www.w3.org/2000/svg">
<path d="M4.5 2.75C3.5335 2.75 2.75 3.5335 2.75 4.5V9.5C2.75 10.4665 3.5335 11.25 4.5 11.25H9.5C10.4665 11.25 11.25 10.4665 11.25 9.5V4.5C11.25 3.5335 10.4665 2.75 9.5 2.75H4.5Z" fill="#212121"/>
<path d="M4.5 12.75C3.5335 12.75 2.75 13.5335 2.75 14.5V19.5C2.75 20.4665 3.5335 21.25 4.5 21.25H9.5C10.4665 21.25 11.25 20.4665 11.25 19.5V14.5C11.25 13.5335 10.4665 12.75 9.5 12.75H4.5Z" fill="#212121"/>
<path d="M14.5 2.75C13.5335 2.75 12.75 3.5335 12.75 4.5V9.5C12.75 10.4665 13.5335 11.25 14.5 11.25H19.5C20.4665 11.25 21.25 10.4665 21.25 9.5V4.5C21.25 3.5335 20.4665 2.75 19.5 2.75H14.5Z" fill="#212121"/>
<path d="M14.5 12.75C13.5335 12.75 12.75 13.5335 12.75 14.5V19.5C12.75 20.4665 13.5335 21.25 14.5 21.25H19.5C20.4665 21.25 21.25 20.4665 21.25 19.5V14.5C21.25 13.5335 20.4665 12.75 19.5 12.75H14.5Z" fill="#212121"/>
</svg>
