<svg width="24" height="24" viewBox="0 0 24 24" fill="none" xmlns="http://www.w3.org/2000/svg">
<path d="M4 3.25C2.48122 3.25 1.25 4.48122 1.25 6V9C1.25 9.41421 1.58579 9.75 2 9.75C3.24264 9.75 4.25 10.7574 4.25 12C4.25 13.2426 3.24264 14.25 2 14.25C1.58579 14.25 1.25 14.5858 1.25 15V18C1.25 19.5188 2.48122 20.75 4 20.75H20C21.5188 20.75 22.75 19.5188 22.75 18V15C22.75 14.5858 22.4142 14.25 22 14.25C20.7574 14.25 19.75 13.2426 19.75 12C19.75 10.7574 20.7574 9.75 22 9.75C22.4142 9.75 22.75 9.41421 22.75 9V6C22.75 4.48122 21.5188 3.25 20 3.25H4Z" fill="#212121"/>
</svg>
