<svg width="24" height="24" viewBox="0 0 24 24" fill="none" xmlns="http://www.w3.org/2000/svg">
<path d="M12.75 14C12.75 13.5858 12.4142 13.25 12 13.25C11.5858 13.25 11.25 13.5858 11.25 14V17C11.25 17.4142 11.5858 17.75 12 17.75C12.4142 17.75 12.75 17.4142 12.75 17V14Z" fill="#212121"/>
<path fill-rule="evenodd" clip-rule="evenodd" d="M6.25 7C6.25 3.82436 8.82436 1.25 12 1.25C15.1756 1.25 17.75 3.82436 17.75 7H16.25C16.25 4.65279 14.3472 2.75 12 2.75C9.65279 2.75 7.75 4.65279 7.75 7V9.25H18C19.5188 9.25 20.75 10.4812 20.75 12V19C20.75 20.5188 19.5188 21.75 18 21.75H6C4.48122 21.75 3.25 20.5188 3.25 19V12C3.25 10.4812 4.48122 9.25 6 9.25H6.25V7ZM6 10.75H18C18.6904 10.75 19.25 11.3096 19.25 12V19C19.25 19.6904 18.6904 20.25 18 20.25H6C5.30964 20.25 4.75 19.6904 4.75 19V12C4.75 11.3096 5.30964 10.75 6 10.75Z" fill="#212121"/>
</svg>
