<svg width="24" height="24" viewBox="0 0 24 24" fill="none" xmlns="http://www.w3.org/2000/svg">
<path fill-rule="evenodd" clip-rule="evenodd" d="M9.28164 2.28449C9.37681 1.96725 9.6688 1.75 10 1.75H15.5C15.7411 1.75 15.9675 1.86589 16.1084 2.06147C16.2494 2.25704 16.2878 2.50846 16.2115 2.73717L14.0406 9.25H18C18.2869 9.25 18.5486 9.41362 18.6742 9.6715C18.7999 9.92937 18.7674 10.2363 18.5906 10.4622L9.59064 21.9622C9.37468 22.2382 8.99645 22.3278 8.67963 22.1781C8.36281 22.0285 8.19185 21.6794 8.26787 21.3373L10.065 13.25H7.00001C6.76293 13.25 6.53981 13.1379 6.39829 12.9477C6.25677 12.7575 6.21351 12.5116 6.28164 12.2845L9.28164 2.28449ZM10.558 3.25L8.00803 11.75H11C11.2275 11.75 11.4427 11.8533 11.585 12.0307C11.7274 12.2082 11.7815 12.4406 11.7321 12.6627L10.4506 18.4295L16.4607 10.75H13C12.7589 10.75 12.5325 10.6341 12.3916 10.4385C12.2506 10.243 12.2123 9.99154 12.2885 9.76283L14.4594 3.25H10.558Z" fill="#212121"/>
</svg>
