<svg width="24" height="24" viewBox="0 0 24 24" fill="none" xmlns="http://www.w3.org/2000/svg">
<path fill-rule="evenodd" clip-rule="evenodd" d="M20 2.25C21.5188 2.25 22.75 3.48122 22.75 5L22.75 11.5C22.75 13.0188 21.5188 14.25 20 14.25H17.448L14.6036 19.5325C14.1998 20.2824 13.4169 20.75 12.5652 20.75C11.2865 20.75 10.25 19.7135 10.25 18.4349L10.25 16.25H5.63694C3.81594 16.25 2.49779 14.5121 2.98879 12.7585L5.36879 4.25852C5.7013 3.07098 6.78372 2.25 8.01694 2.25L20 2.25ZM13.2829 18.8213C13.1407 19.0854 12.865 19.25 12.5652 19.25C12.115 19.25 11.75 18.885 11.75 18.4349V15.5C11.75 15.0858 11.4142 14.75 11 14.75H5.63694C4.80921 14.75 4.21005 13.96 4.43323 13.163L6.81323 4.66296C6.96437 4.12317 7.45639 3.75 8.01694 3.75L16.25 3.75L16.25 13.3109L13.2829 18.8213ZM17.75 12.75H20C20.6904 12.75 21.25 12.1904 21.25 11.5L21.25 5C21.25 4.30964 20.6904 3.75 20 3.75L17.75 3.75L17.75 12.75Z" fill="#212121"/>
</svg>
