<svg width="24" height="24" viewBox="0 0 24 24" fill="none" xmlns="http://www.w3.org/2000/svg">
<path d="M12.1464 7.75C11.232 7.75 10.4592 8.36427 10.2216 9.20412C10.1089 9.6027 9.69441 9.83442 9.29583 9.72169C8.89725 9.60896 8.66553 9.19446 8.77826 8.79588C9.19365 7.32723 10.5433 6.25 12.1464 6.25C14.0794 6.25 15.6464 7.817 15.6464 9.75C15.6464 11.4653 14.3252 12.8327 12.7499 13.17V14C12.7499 14.4142 12.4142 14.75 11.9999 14.75C11.5857 14.75 11.2499 14.4142 11.2499 14V12.5C11.2499 12.0858 11.5857 11.75 11.9999 11.75C13.1556 11.75 14.1464 10.8053 14.1464 9.75C14.1464 8.64543 13.251 7.75 12.1464 7.75Z" fill="#212121"/>
<path d="M11.95 17.5C12.3642 17.5 12.7 17.1642 12.7 16.75C12.7 16.3358 12.3642 16 11.95 16C11.5357 16 11.2 16.3358 11.2 16.75C11.2 17.1642 11.5357 17.5 11.95 17.5Z" fill="#212121"/>
<path fill-rule="evenodd" clip-rule="evenodd" d="M1.25 12C1.25 6.06294 6.06294 1.25 12 1.25C17.9371 1.25 22.75 6.06294 22.75 12C22.75 17.9371 17.9371 22.75 12 22.75C6.06294 22.75 1.25 17.9371 1.25 12ZM12 2.75C6.89137 2.75 2.75 6.89137 2.75 12C2.75 17.1086 6.89137 21.25 12 21.25C17.1086 21.25 21.25 17.1086 21.25 12C21.25 6.89137 17.1086 2.75 12 2.75Z" fill="#212121"/>
</svg>
