<svg width="24" height="24" viewBox="0 0 24 24" fill="none" xmlns="http://www.w3.org/2000/svg">
<path fill-rule="evenodd" clip-rule="evenodd" d="M3 4.25C2.0335 4.25 1.25 5.0335 1.25 6V18C1.25 18.9665 2.0335 19.75 3 19.75H3.35352C3.67998 20.9043 4.74122 21.75 6 21.75C7.25878 21.75 8.32002 20.9043 8.64648 19.75H15.3535C15.68 20.9043 16.7412 21.75 18 21.75C19.2588 21.75 20.32 20.9043 20.6465 19.75H21C21.9665 19.75 22.75 18.9665 22.75 18V14.2361C22.75 13.9644 22.6867 13.6964 22.5652 13.4534L19.9472 8.21738C19.6508 7.6245 19.0448 7.25 18.382 7.25H14.75V6C14.75 5.0335 13.9665 4.25 13 4.25H3ZM18 16.25C16.7412 16.25 15.68 17.0957 15.3535 18.25H14.75V14.75H21.25V18C21.25 18.1381 21.1381 18.25 21 18.25H20.6465C20.32 17.0957 19.2588 16.25 18 16.25ZM20.7865 13.25H14.75V8.75H18.382C18.4767 8.75 18.5632 8.8035 18.6056 8.8882L20.7865 13.25ZM13.25 6C13.25 5.86193 13.1381 5.75 13 5.75H3C2.86193 5.75 2.75 5.86193 2.75 6V18C2.75 18.1381 2.86193 18.25 3 18.25H3.35352C3.67998 17.0957 4.74122 16.25 6 16.25C7.25878 16.25 8.32002 17.0957 8.64648 18.25H13.25V6ZM6 17.75C5.30964 17.75 4.75 18.3096 4.75 19C4.75 19.6904 5.30964 20.25 6 20.25C6.69036 20.25 7.25 19.6904 7.25 19C7.25 18.3096 6.69036 17.75 6 17.75ZM18 17.75C17.3096 17.75 16.75 18.3096 16.75 19C16.75 19.6904 17.3096 20.25 18 20.25C18.6904 20.25 19.25 19.6904 19.25 19C19.25 18.3096 18.6904 17.75 18 17.75Z" fill="black"/>
</svg>
