<svg width="24" height="24" viewBox="0 0 24 24" fill="none" xmlns="http://www.w3.org/2000/svg">
<path fill-rule="evenodd" clip-rule="evenodd" d="M7.25 6C7.25 3.37665 9.37665 1.25 12 1.25C14.6234 1.25 16.75 3.37665 16.75 6V11C16.75 13.6234 14.6234 15.75 12 15.75C9.37665 15.75 7.25 13.6234 7.25 11V6ZM12 2.75C10.2051 2.75 8.75 4.20507 8.75 6V11C8.75 12.7949 10.2051 14.25 12 14.25C13.7949 14.25 15.25 12.7949 15.25 11V6C15.25 4.20507 13.7949 2.75 12 2.75Z" fill="#212121"/>
<path d="M12.75 19.7183C17.2314 19.3379 20.75 15.5798 20.75 11C20.75 10.5858 20.4142 10.25 20 10.25C19.5858 10.25 19.25 10.5858 19.25 11C19.25 15.0041 16.0041 18.25 12 18.25C7.99594 18.25 4.75 15.0041 4.75 11C4.75 10.5858 4.41421 10.25 4 10.25C3.58579 10.25 3.25 10.5858 3.25 11C3.25 15.5798 6.7686 19.3379 11.25 19.7183V23C11.25 23.4142 11.5858 23.75 12 23.75C12.4142 23.75 12.75 23.4142 12.75 23V19.7183Z" fill="#212121"/>
</svg>
