<svg width="24" height="24" viewBox="0 0 24 24" fill="none" xmlns="http://www.w3.org/2000/svg">
<path d="M1.46967 7.96967C1.17678 8.26256 1.17678 8.73744 1.46967 9.03033C1.76256 9.32322 2.23744 9.32322 2.53033 9.03033L5.75 5.81066L5.75 20C5.75 20.4142 6.08579 20.75 6.5 20.75C6.91421 20.75 7.25 20.4142 7.25 20L7.25 5.81066L10.4697 9.03033C10.7626 9.32322 11.2374 9.32322 11.5303 9.03033C11.8232 8.73744 11.8232 8.26256 11.5303 7.96967L7.03033 3.46967C6.73744 3.17678 6.26256 3.17678 5.96967 3.46967L1.46967 7.96967Z" fill="#212121"/>
<path d="M18.25 18.1893L21.4697 14.9697C21.7626 14.6768 22.2374 14.6768 22.5303 14.9697C22.8232 15.2626 22.8232 15.7374 22.5303 16.0303L18.0303 20.5303C17.7374 20.8232 17.2626 20.8232 16.9697 20.5303L12.4697 16.0303C12.1768 15.7374 12.1768 15.2626 12.4697 14.9697C12.7626 14.6768 13.2374 14.6768 13.5303 14.9697L16.75 18.1893L16.75 4C16.75 3.58579 17.0858 3.25 17.5 3.25C17.9142 3.25 18.25 3.58579 18.25 4L18.25 18.1893Z" fill="#212121"/>
</svg>
